%TF.GenerationSoftware,KiCad,Pcbnew,9.0.2*%
%TF.CreationDate,2025-06-30T11:38:54+08:00*%
%TF.ProjectId,flamepad,666c616d-6570-4616-942e-6b696361645f,rev?*%
%TF.SameCoordinates,Original*%
%TF.FileFunction,Legend,Bot*%
%TF.FilePolarity,Positive*%
%FSLAX46Y46*%
G04 Gerber Fmt 4.6, Leading zero omitted, Abs format (unit mm)*
G04 Created by KiCad (PCBNEW 9.0.2) date 2025-06-30 11:38:54*
%MOMM*%
%LPD*%
G01*
G04 APERTURE LIST*
%ADD10C,0.150000*%
%ADD11C,0.120000*%
G04 APERTURE END LIST*
D10*
X171262319Y-80761905D02*
X170262319Y-80761905D01*
X170262319Y-80761905D02*
X170262319Y-81000000D01*
X170262319Y-81000000D02*
X170309938Y-81142857D01*
X170309938Y-81142857D02*
X170405176Y-81238095D01*
X170405176Y-81238095D02*
X170500414Y-81285714D01*
X170500414Y-81285714D02*
X170690890Y-81333333D01*
X170690890Y-81333333D02*
X170833747Y-81333333D01*
X170833747Y-81333333D02*
X171024223Y-81285714D01*
X171024223Y-81285714D02*
X171119461Y-81238095D01*
X171119461Y-81238095D02*
X171214700Y-81142857D01*
X171214700Y-81142857D02*
X171262319Y-81000000D01*
X171262319Y-81000000D02*
X171262319Y-80761905D01*
X171262319Y-82285714D02*
X171262319Y-81714286D01*
X171262319Y-82000000D02*
X170262319Y-82000000D01*
X170262319Y-82000000D02*
X170405176Y-81904762D01*
X170405176Y-81904762D02*
X170500414Y-81809524D01*
X170500414Y-81809524D02*
X170548033Y-81714286D01*
X170942319Y-85048095D02*
X169942319Y-85048095D01*
X170942319Y-85619523D02*
X170370890Y-85190952D01*
X169942319Y-85619523D02*
X170513747Y-85048095D01*
X166499819Y-99811905D02*
X165499819Y-99811905D01*
X165499819Y-99811905D02*
X165499819Y-100050000D01*
X165499819Y-100050000D02*
X165547438Y-100192857D01*
X165547438Y-100192857D02*
X165642676Y-100288095D01*
X165642676Y-100288095D02*
X165737914Y-100335714D01*
X165737914Y-100335714D02*
X165928390Y-100383333D01*
X165928390Y-100383333D02*
X166071247Y-100383333D01*
X166071247Y-100383333D02*
X166261723Y-100335714D01*
X166261723Y-100335714D02*
X166356961Y-100288095D01*
X166356961Y-100288095D02*
X166452200Y-100192857D01*
X166452200Y-100192857D02*
X166499819Y-100050000D01*
X166499819Y-100050000D02*
X166499819Y-99811905D01*
X165499819Y-101240476D02*
X165499819Y-101050000D01*
X165499819Y-101050000D02*
X165547438Y-100954762D01*
X165547438Y-100954762D02*
X165595057Y-100907143D01*
X165595057Y-100907143D02*
X165737914Y-100811905D01*
X165737914Y-100811905D02*
X165928390Y-100764286D01*
X165928390Y-100764286D02*
X166309342Y-100764286D01*
X166309342Y-100764286D02*
X166404580Y-100811905D01*
X166404580Y-100811905D02*
X166452200Y-100859524D01*
X166452200Y-100859524D02*
X166499819Y-100954762D01*
X166499819Y-100954762D02*
X166499819Y-101145238D01*
X166499819Y-101145238D02*
X166452200Y-101240476D01*
X166452200Y-101240476D02*
X166404580Y-101288095D01*
X166404580Y-101288095D02*
X166309342Y-101335714D01*
X166309342Y-101335714D02*
X166071247Y-101335714D01*
X166071247Y-101335714D02*
X165976009Y-101288095D01*
X165976009Y-101288095D02*
X165928390Y-101240476D01*
X165928390Y-101240476D02*
X165880771Y-101145238D01*
X165880771Y-101145238D02*
X165880771Y-100954762D01*
X165880771Y-100954762D02*
X165928390Y-100859524D01*
X165928390Y-100859524D02*
X165976009Y-100811905D01*
X165976009Y-100811905D02*
X166071247Y-100764286D01*
X166179819Y-104098095D02*
X165179819Y-104098095D01*
X166179819Y-104669523D02*
X165608390Y-104240952D01*
X165179819Y-104669523D02*
X165751247Y-104098095D01*
X147449819Y-137435714D02*
X146449819Y-137435714D01*
X146449819Y-137435714D02*
X146449819Y-137673809D01*
X146449819Y-137673809D02*
X146497438Y-137816666D01*
X146497438Y-137816666D02*
X146592676Y-137911904D01*
X146592676Y-137911904D02*
X146687914Y-137959523D01*
X146687914Y-137959523D02*
X146878390Y-138007142D01*
X146878390Y-138007142D02*
X147021247Y-138007142D01*
X147021247Y-138007142D02*
X147211723Y-137959523D01*
X147211723Y-137959523D02*
X147306961Y-137911904D01*
X147306961Y-137911904D02*
X147402200Y-137816666D01*
X147402200Y-137816666D02*
X147449819Y-137673809D01*
X147449819Y-137673809D02*
X147449819Y-137435714D01*
X147449819Y-138959523D02*
X147449819Y-138388095D01*
X147449819Y-138673809D02*
X146449819Y-138673809D01*
X146449819Y-138673809D02*
X146592676Y-138578571D01*
X146592676Y-138578571D02*
X146687914Y-138483333D01*
X146687914Y-138483333D02*
X146735533Y-138388095D01*
X147449819Y-139911904D02*
X147449819Y-139340476D01*
X147449819Y-139626190D02*
X146449819Y-139626190D01*
X146449819Y-139626190D02*
X146592676Y-139530952D01*
X146592676Y-139530952D02*
X146687914Y-139435714D01*
X146687914Y-139435714D02*
X146735533Y-139340476D01*
X147129819Y-142198095D02*
X146129819Y-142198095D01*
X147129819Y-142769523D02*
X146558390Y-142340952D01*
X146129819Y-142769523D02*
X146701247Y-142198095D01*
X128399819Y-99811905D02*
X127399819Y-99811905D01*
X127399819Y-99811905D02*
X127399819Y-100050000D01*
X127399819Y-100050000D02*
X127447438Y-100192857D01*
X127447438Y-100192857D02*
X127542676Y-100288095D01*
X127542676Y-100288095D02*
X127637914Y-100335714D01*
X127637914Y-100335714D02*
X127828390Y-100383333D01*
X127828390Y-100383333D02*
X127971247Y-100383333D01*
X127971247Y-100383333D02*
X128161723Y-100335714D01*
X128161723Y-100335714D02*
X128256961Y-100288095D01*
X128256961Y-100288095D02*
X128352200Y-100192857D01*
X128352200Y-100192857D02*
X128399819Y-100050000D01*
X128399819Y-100050000D02*
X128399819Y-99811905D01*
X127733152Y-101240476D02*
X128399819Y-101240476D01*
X127352200Y-101002381D02*
X128066485Y-100764286D01*
X128066485Y-100764286D02*
X128066485Y-101383333D01*
X128079819Y-104098095D02*
X127079819Y-104098095D01*
X128079819Y-104669523D02*
X127508390Y-104240952D01*
X127079819Y-104669523D02*
X127651247Y-104098095D01*
X166499819Y-137435714D02*
X165499819Y-137435714D01*
X165499819Y-137435714D02*
X165499819Y-137673809D01*
X165499819Y-137673809D02*
X165547438Y-137816666D01*
X165547438Y-137816666D02*
X165642676Y-137911904D01*
X165642676Y-137911904D02*
X165737914Y-137959523D01*
X165737914Y-137959523D02*
X165928390Y-138007142D01*
X165928390Y-138007142D02*
X166071247Y-138007142D01*
X166071247Y-138007142D02*
X166261723Y-137959523D01*
X166261723Y-137959523D02*
X166356961Y-137911904D01*
X166356961Y-137911904D02*
X166452200Y-137816666D01*
X166452200Y-137816666D02*
X166499819Y-137673809D01*
X166499819Y-137673809D02*
X166499819Y-137435714D01*
X166499819Y-138959523D02*
X166499819Y-138388095D01*
X166499819Y-138673809D02*
X165499819Y-138673809D01*
X165499819Y-138673809D02*
X165642676Y-138578571D01*
X165642676Y-138578571D02*
X165737914Y-138483333D01*
X165737914Y-138483333D02*
X165785533Y-138388095D01*
X165595057Y-139340476D02*
X165547438Y-139388095D01*
X165547438Y-139388095D02*
X165499819Y-139483333D01*
X165499819Y-139483333D02*
X165499819Y-139721428D01*
X165499819Y-139721428D02*
X165547438Y-139816666D01*
X165547438Y-139816666D02*
X165595057Y-139864285D01*
X165595057Y-139864285D02*
X165690295Y-139911904D01*
X165690295Y-139911904D02*
X165785533Y-139911904D01*
X165785533Y-139911904D02*
X165928390Y-139864285D01*
X165928390Y-139864285D02*
X166499819Y-139292857D01*
X166499819Y-139292857D02*
X166499819Y-139911904D01*
X166179819Y-142198095D02*
X165179819Y-142198095D01*
X166179819Y-142769523D02*
X165608390Y-142340952D01*
X165179819Y-142769523D02*
X165751247Y-142198095D01*
X147449819Y-99811905D02*
X146449819Y-99811905D01*
X146449819Y-99811905D02*
X146449819Y-100050000D01*
X146449819Y-100050000D02*
X146497438Y-100192857D01*
X146497438Y-100192857D02*
X146592676Y-100288095D01*
X146592676Y-100288095D02*
X146687914Y-100335714D01*
X146687914Y-100335714D02*
X146878390Y-100383333D01*
X146878390Y-100383333D02*
X147021247Y-100383333D01*
X147021247Y-100383333D02*
X147211723Y-100335714D01*
X147211723Y-100335714D02*
X147306961Y-100288095D01*
X147306961Y-100288095D02*
X147402200Y-100192857D01*
X147402200Y-100192857D02*
X147449819Y-100050000D01*
X147449819Y-100050000D02*
X147449819Y-99811905D01*
X146449819Y-101288095D02*
X146449819Y-100811905D01*
X146449819Y-100811905D02*
X146926009Y-100764286D01*
X146926009Y-100764286D02*
X146878390Y-100811905D01*
X146878390Y-100811905D02*
X146830771Y-100907143D01*
X146830771Y-100907143D02*
X146830771Y-101145238D01*
X146830771Y-101145238D02*
X146878390Y-101240476D01*
X146878390Y-101240476D02*
X146926009Y-101288095D01*
X146926009Y-101288095D02*
X147021247Y-101335714D01*
X147021247Y-101335714D02*
X147259342Y-101335714D01*
X147259342Y-101335714D02*
X147354580Y-101288095D01*
X147354580Y-101288095D02*
X147402200Y-101240476D01*
X147402200Y-101240476D02*
X147449819Y-101145238D01*
X147449819Y-101145238D02*
X147449819Y-100907143D01*
X147449819Y-100907143D02*
X147402200Y-100811905D01*
X147402200Y-100811905D02*
X147354580Y-100764286D01*
X147129819Y-104098095D02*
X146129819Y-104098095D01*
X147129819Y-104669523D02*
X146558390Y-104240952D01*
X146129819Y-104669523D02*
X146701247Y-104098095D01*
X166499819Y-80761905D02*
X165499819Y-80761905D01*
X165499819Y-80761905D02*
X165499819Y-81000000D01*
X165499819Y-81000000D02*
X165547438Y-81142857D01*
X165547438Y-81142857D02*
X165642676Y-81238095D01*
X165642676Y-81238095D02*
X165737914Y-81285714D01*
X165737914Y-81285714D02*
X165928390Y-81333333D01*
X165928390Y-81333333D02*
X166071247Y-81333333D01*
X166071247Y-81333333D02*
X166261723Y-81285714D01*
X166261723Y-81285714D02*
X166356961Y-81238095D01*
X166356961Y-81238095D02*
X166452200Y-81142857D01*
X166452200Y-81142857D02*
X166499819Y-81000000D01*
X166499819Y-81000000D02*
X166499819Y-80761905D01*
X165499819Y-81666667D02*
X165499819Y-82285714D01*
X165499819Y-82285714D02*
X165880771Y-81952381D01*
X165880771Y-81952381D02*
X165880771Y-82095238D01*
X165880771Y-82095238D02*
X165928390Y-82190476D01*
X165928390Y-82190476D02*
X165976009Y-82238095D01*
X165976009Y-82238095D02*
X166071247Y-82285714D01*
X166071247Y-82285714D02*
X166309342Y-82285714D01*
X166309342Y-82285714D02*
X166404580Y-82238095D01*
X166404580Y-82238095D02*
X166452200Y-82190476D01*
X166452200Y-82190476D02*
X166499819Y-82095238D01*
X166499819Y-82095238D02*
X166499819Y-81809524D01*
X166499819Y-81809524D02*
X166452200Y-81714286D01*
X166452200Y-81714286D02*
X166404580Y-81666667D01*
X166179819Y-85048095D02*
X165179819Y-85048095D01*
X166179819Y-85619523D02*
X165608390Y-85190952D01*
X165179819Y-85619523D02*
X165751247Y-85048095D01*
X147449819Y-80761905D02*
X146449819Y-80761905D01*
X146449819Y-80761905D02*
X146449819Y-81000000D01*
X146449819Y-81000000D02*
X146497438Y-81142857D01*
X146497438Y-81142857D02*
X146592676Y-81238095D01*
X146592676Y-81238095D02*
X146687914Y-81285714D01*
X146687914Y-81285714D02*
X146878390Y-81333333D01*
X146878390Y-81333333D02*
X147021247Y-81333333D01*
X147021247Y-81333333D02*
X147211723Y-81285714D01*
X147211723Y-81285714D02*
X147306961Y-81238095D01*
X147306961Y-81238095D02*
X147402200Y-81142857D01*
X147402200Y-81142857D02*
X147449819Y-81000000D01*
X147449819Y-81000000D02*
X147449819Y-80761905D01*
X146545057Y-81714286D02*
X146497438Y-81761905D01*
X146497438Y-81761905D02*
X146449819Y-81857143D01*
X146449819Y-81857143D02*
X146449819Y-82095238D01*
X146449819Y-82095238D02*
X146497438Y-82190476D01*
X146497438Y-82190476D02*
X146545057Y-82238095D01*
X146545057Y-82238095D02*
X146640295Y-82285714D01*
X146640295Y-82285714D02*
X146735533Y-82285714D01*
X146735533Y-82285714D02*
X146878390Y-82238095D01*
X146878390Y-82238095D02*
X147449819Y-81666667D01*
X147449819Y-81666667D02*
X147449819Y-82285714D01*
X147129819Y-85048095D02*
X146129819Y-85048095D01*
X147129819Y-85619523D02*
X146558390Y-85190952D01*
X146129819Y-85619523D02*
X146701247Y-85048095D01*
X128399819Y-137523214D02*
X127399819Y-137523214D01*
X127399819Y-137523214D02*
X127399819Y-137761309D01*
X127399819Y-137761309D02*
X127447438Y-137904166D01*
X127447438Y-137904166D02*
X127542676Y-137999404D01*
X127542676Y-137999404D02*
X127637914Y-138047023D01*
X127637914Y-138047023D02*
X127828390Y-138094642D01*
X127828390Y-138094642D02*
X127971247Y-138094642D01*
X127971247Y-138094642D02*
X128161723Y-138047023D01*
X128161723Y-138047023D02*
X128256961Y-137999404D01*
X128256961Y-137999404D02*
X128352200Y-137904166D01*
X128352200Y-137904166D02*
X128399819Y-137761309D01*
X128399819Y-137761309D02*
X128399819Y-137523214D01*
X128399819Y-139047023D02*
X128399819Y-138475595D01*
X128399819Y-138761309D02*
X127399819Y-138761309D01*
X127399819Y-138761309D02*
X127542676Y-138666071D01*
X127542676Y-138666071D02*
X127637914Y-138570833D01*
X127637914Y-138570833D02*
X127685533Y-138475595D01*
X127399819Y-139666071D02*
X127399819Y-139761309D01*
X127399819Y-139761309D02*
X127447438Y-139856547D01*
X127447438Y-139856547D02*
X127495057Y-139904166D01*
X127495057Y-139904166D02*
X127590295Y-139951785D01*
X127590295Y-139951785D02*
X127780771Y-139999404D01*
X127780771Y-139999404D02*
X128018866Y-139999404D01*
X128018866Y-139999404D02*
X128209342Y-139951785D01*
X128209342Y-139951785D02*
X128304580Y-139904166D01*
X128304580Y-139904166D02*
X128352200Y-139856547D01*
X128352200Y-139856547D02*
X128399819Y-139761309D01*
X128399819Y-139761309D02*
X128399819Y-139666071D01*
X128399819Y-139666071D02*
X128352200Y-139570833D01*
X128352200Y-139570833D02*
X128304580Y-139523214D01*
X128304580Y-139523214D02*
X128209342Y-139475595D01*
X128209342Y-139475595D02*
X128018866Y-139427976D01*
X128018866Y-139427976D02*
X127780771Y-139427976D01*
X127780771Y-139427976D02*
X127590295Y-139475595D01*
X127590295Y-139475595D02*
X127495057Y-139523214D01*
X127495057Y-139523214D02*
X127447438Y-139570833D01*
X127447438Y-139570833D02*
X127399819Y-139666071D01*
X128079819Y-142285595D02*
X127079819Y-142285595D01*
X128079819Y-142857023D02*
X127508390Y-142428452D01*
X127079819Y-142857023D02*
X127651247Y-142285595D01*
X166499819Y-118899405D02*
X165499819Y-118899405D01*
X165499819Y-118899405D02*
X165499819Y-119137500D01*
X165499819Y-119137500D02*
X165547438Y-119280357D01*
X165547438Y-119280357D02*
X165642676Y-119375595D01*
X165642676Y-119375595D02*
X165737914Y-119423214D01*
X165737914Y-119423214D02*
X165928390Y-119470833D01*
X165928390Y-119470833D02*
X166071247Y-119470833D01*
X166071247Y-119470833D02*
X166261723Y-119423214D01*
X166261723Y-119423214D02*
X166356961Y-119375595D01*
X166356961Y-119375595D02*
X166452200Y-119280357D01*
X166452200Y-119280357D02*
X166499819Y-119137500D01*
X166499819Y-119137500D02*
X166499819Y-118899405D01*
X166499819Y-119947024D02*
X166499819Y-120137500D01*
X166499819Y-120137500D02*
X166452200Y-120232738D01*
X166452200Y-120232738D02*
X166404580Y-120280357D01*
X166404580Y-120280357D02*
X166261723Y-120375595D01*
X166261723Y-120375595D02*
X166071247Y-120423214D01*
X166071247Y-120423214D02*
X165690295Y-120423214D01*
X165690295Y-120423214D02*
X165595057Y-120375595D01*
X165595057Y-120375595D02*
X165547438Y-120327976D01*
X165547438Y-120327976D02*
X165499819Y-120232738D01*
X165499819Y-120232738D02*
X165499819Y-120042262D01*
X165499819Y-120042262D02*
X165547438Y-119947024D01*
X165547438Y-119947024D02*
X165595057Y-119899405D01*
X165595057Y-119899405D02*
X165690295Y-119851786D01*
X165690295Y-119851786D02*
X165928390Y-119851786D01*
X165928390Y-119851786D02*
X166023628Y-119899405D01*
X166023628Y-119899405D02*
X166071247Y-119947024D01*
X166071247Y-119947024D02*
X166118866Y-120042262D01*
X166118866Y-120042262D02*
X166118866Y-120232738D01*
X166118866Y-120232738D02*
X166071247Y-120327976D01*
X166071247Y-120327976D02*
X166023628Y-120375595D01*
X166023628Y-120375595D02*
X165928390Y-120423214D01*
X166179819Y-123185595D02*
X165179819Y-123185595D01*
X166179819Y-123757023D02*
X165608390Y-123328452D01*
X165179819Y-123757023D02*
X165751247Y-123185595D01*
X128399819Y-118861905D02*
X127399819Y-118861905D01*
X127399819Y-118861905D02*
X127399819Y-119100000D01*
X127399819Y-119100000D02*
X127447438Y-119242857D01*
X127447438Y-119242857D02*
X127542676Y-119338095D01*
X127542676Y-119338095D02*
X127637914Y-119385714D01*
X127637914Y-119385714D02*
X127828390Y-119433333D01*
X127828390Y-119433333D02*
X127971247Y-119433333D01*
X127971247Y-119433333D02*
X128161723Y-119385714D01*
X128161723Y-119385714D02*
X128256961Y-119338095D01*
X128256961Y-119338095D02*
X128352200Y-119242857D01*
X128352200Y-119242857D02*
X128399819Y-119100000D01*
X128399819Y-119100000D02*
X128399819Y-118861905D01*
X127399819Y-119766667D02*
X127399819Y-120433333D01*
X127399819Y-120433333D02*
X128399819Y-120004762D01*
X128079819Y-123148095D02*
X127079819Y-123148095D01*
X128079819Y-123719523D02*
X127508390Y-123290952D01*
X127079819Y-123719523D02*
X127651247Y-123148095D01*
X147449819Y-118861905D02*
X146449819Y-118861905D01*
X146449819Y-118861905D02*
X146449819Y-119100000D01*
X146449819Y-119100000D02*
X146497438Y-119242857D01*
X146497438Y-119242857D02*
X146592676Y-119338095D01*
X146592676Y-119338095D02*
X146687914Y-119385714D01*
X146687914Y-119385714D02*
X146878390Y-119433333D01*
X146878390Y-119433333D02*
X147021247Y-119433333D01*
X147021247Y-119433333D02*
X147211723Y-119385714D01*
X147211723Y-119385714D02*
X147306961Y-119338095D01*
X147306961Y-119338095D02*
X147402200Y-119242857D01*
X147402200Y-119242857D02*
X147449819Y-119100000D01*
X147449819Y-119100000D02*
X147449819Y-118861905D01*
X146878390Y-120004762D02*
X146830771Y-119909524D01*
X146830771Y-119909524D02*
X146783152Y-119861905D01*
X146783152Y-119861905D02*
X146687914Y-119814286D01*
X146687914Y-119814286D02*
X146640295Y-119814286D01*
X146640295Y-119814286D02*
X146545057Y-119861905D01*
X146545057Y-119861905D02*
X146497438Y-119909524D01*
X146497438Y-119909524D02*
X146449819Y-120004762D01*
X146449819Y-120004762D02*
X146449819Y-120195238D01*
X146449819Y-120195238D02*
X146497438Y-120290476D01*
X146497438Y-120290476D02*
X146545057Y-120338095D01*
X146545057Y-120338095D02*
X146640295Y-120385714D01*
X146640295Y-120385714D02*
X146687914Y-120385714D01*
X146687914Y-120385714D02*
X146783152Y-120338095D01*
X146783152Y-120338095D02*
X146830771Y-120290476D01*
X146830771Y-120290476D02*
X146878390Y-120195238D01*
X146878390Y-120195238D02*
X146878390Y-120004762D01*
X146878390Y-120004762D02*
X146926009Y-119909524D01*
X146926009Y-119909524D02*
X146973628Y-119861905D01*
X146973628Y-119861905D02*
X147068866Y-119814286D01*
X147068866Y-119814286D02*
X147259342Y-119814286D01*
X147259342Y-119814286D02*
X147354580Y-119861905D01*
X147354580Y-119861905D02*
X147402200Y-119909524D01*
X147402200Y-119909524D02*
X147449819Y-120004762D01*
X147449819Y-120004762D02*
X147449819Y-120195238D01*
X147449819Y-120195238D02*
X147402200Y-120290476D01*
X147402200Y-120290476D02*
X147354580Y-120338095D01*
X147354580Y-120338095D02*
X147259342Y-120385714D01*
X147259342Y-120385714D02*
X147068866Y-120385714D01*
X147068866Y-120385714D02*
X146973628Y-120338095D01*
X146973628Y-120338095D02*
X146926009Y-120290476D01*
X146926009Y-120290476D02*
X146878390Y-120195238D01*
X147129819Y-123148095D02*
X146129819Y-123148095D01*
X147129819Y-123719523D02*
X146558390Y-123290952D01*
X146129819Y-123719523D02*
X146701247Y-123148095D01*
D11*
%TO.C,D1*%
X168687500Y-78730000D02*
X168687500Y-79380000D01*
X168687500Y-84270000D02*
X168687500Y-83620000D01*
X169807500Y-82780000D02*
X167567500Y-82780000D01*
X169807500Y-82900000D02*
X167567500Y-82900000D01*
X169807500Y-83020000D02*
X167567500Y-83020000D01*
X169807500Y-83620000D02*
X167567500Y-83620000D01*
X167567500Y-79380000D01*
X169807500Y-79380000D01*
X169807500Y-83620000D01*
%TO.C,D6*%
X163925000Y-97780000D02*
X163925000Y-98430000D01*
X163925000Y-103320000D02*
X163925000Y-102670000D01*
X165045000Y-101830000D02*
X162805000Y-101830000D01*
X165045000Y-101950000D02*
X162805000Y-101950000D01*
X165045000Y-102070000D02*
X162805000Y-102070000D01*
X165045000Y-102670000D02*
X162805000Y-102670000D01*
X162805000Y-98430000D01*
X165045000Y-98430000D01*
X165045000Y-102670000D01*
%TO.C,D11*%
X144875000Y-135880000D02*
X144875000Y-136530000D01*
X144875000Y-141420000D02*
X144875000Y-140770000D01*
X145995000Y-139930000D02*
X143755000Y-139930000D01*
X145995000Y-140050000D02*
X143755000Y-140050000D01*
X145995000Y-140170000D02*
X143755000Y-140170000D01*
X145995000Y-140770000D02*
X143755000Y-140770000D01*
X143755000Y-136530000D01*
X145995000Y-136530000D01*
X145995000Y-140770000D01*
%TO.C,D4*%
X125825000Y-97780000D02*
X125825000Y-98430000D01*
X125825000Y-103320000D02*
X125825000Y-102670000D01*
X126945000Y-101830000D02*
X124705000Y-101830000D01*
X126945000Y-101950000D02*
X124705000Y-101950000D01*
X126945000Y-102070000D02*
X124705000Y-102070000D01*
X126945000Y-102670000D02*
X124705000Y-102670000D01*
X124705000Y-98430000D01*
X126945000Y-98430000D01*
X126945000Y-102670000D01*
%TO.C,D12*%
X163925000Y-135880000D02*
X163925000Y-136530000D01*
X163925000Y-141420000D02*
X163925000Y-140770000D01*
X165045000Y-139930000D02*
X162805000Y-139930000D01*
X165045000Y-140050000D02*
X162805000Y-140050000D01*
X165045000Y-140170000D02*
X162805000Y-140170000D01*
X165045000Y-140770000D02*
X162805000Y-140770000D01*
X162805000Y-136530000D01*
X165045000Y-136530000D01*
X165045000Y-140770000D01*
%TO.C,D5*%
X144875000Y-97780000D02*
X144875000Y-98430000D01*
X144875000Y-103320000D02*
X144875000Y-102670000D01*
X145995000Y-101830000D02*
X143755000Y-101830000D01*
X145995000Y-101950000D02*
X143755000Y-101950000D01*
X145995000Y-102070000D02*
X143755000Y-102070000D01*
X145995000Y-102670000D02*
X143755000Y-102670000D01*
X143755000Y-98430000D01*
X145995000Y-98430000D01*
X145995000Y-102670000D01*
%TO.C,D3*%
X163925000Y-78730000D02*
X163925000Y-79380000D01*
X163925000Y-84270000D02*
X163925000Y-83620000D01*
X165045000Y-82780000D02*
X162805000Y-82780000D01*
X165045000Y-82900000D02*
X162805000Y-82900000D01*
X165045000Y-83020000D02*
X162805000Y-83020000D01*
X165045000Y-83620000D02*
X162805000Y-83620000D01*
X162805000Y-79380000D01*
X165045000Y-79380000D01*
X165045000Y-83620000D01*
%TO.C,D2*%
X144875000Y-78730000D02*
X144875000Y-79380000D01*
X144875000Y-84270000D02*
X144875000Y-83620000D01*
X145995000Y-82780000D02*
X143755000Y-82780000D01*
X145995000Y-82900000D02*
X143755000Y-82900000D01*
X145995000Y-83020000D02*
X143755000Y-83020000D01*
X145995000Y-83620000D02*
X143755000Y-83620000D01*
X143755000Y-79380000D01*
X145995000Y-79380000D01*
X145995000Y-83620000D01*
%TO.C,D10*%
X125825000Y-135967500D02*
X125825000Y-136617500D01*
X125825000Y-141507500D02*
X125825000Y-140857500D01*
X126945000Y-140017500D02*
X124705000Y-140017500D01*
X126945000Y-140137500D02*
X124705000Y-140137500D01*
X126945000Y-140257500D02*
X124705000Y-140257500D01*
X126945000Y-140857500D02*
X124705000Y-140857500D01*
X124705000Y-136617500D01*
X126945000Y-136617500D01*
X126945000Y-140857500D01*
%TO.C,D9*%
X163925000Y-116867500D02*
X163925000Y-117517500D01*
X163925000Y-122407500D02*
X163925000Y-121757500D01*
X165045000Y-120917500D02*
X162805000Y-120917500D01*
X165045000Y-121037500D02*
X162805000Y-121037500D01*
X165045000Y-121157500D02*
X162805000Y-121157500D01*
X165045000Y-121757500D02*
X162805000Y-121757500D01*
X162805000Y-117517500D01*
X165045000Y-117517500D01*
X165045000Y-121757500D01*
%TO.C,D7*%
X125825000Y-116830000D02*
X125825000Y-117480000D01*
X125825000Y-122370000D02*
X125825000Y-121720000D01*
X126945000Y-120880000D02*
X124705000Y-120880000D01*
X126945000Y-121000000D02*
X124705000Y-121000000D01*
X126945000Y-121120000D02*
X124705000Y-121120000D01*
X126945000Y-121720000D02*
X124705000Y-121720000D01*
X124705000Y-117480000D01*
X126945000Y-117480000D01*
X126945000Y-121720000D01*
%TO.C,D8*%
X144875000Y-116830000D02*
X144875000Y-117480000D01*
X144875000Y-122370000D02*
X144875000Y-121720000D01*
X145995000Y-120880000D02*
X143755000Y-120880000D01*
X145995000Y-121000000D02*
X143755000Y-121000000D01*
X145995000Y-121120000D02*
X143755000Y-121120000D01*
X145995000Y-121720000D02*
X143755000Y-121720000D01*
X143755000Y-117480000D01*
X145995000Y-117480000D01*
X145995000Y-121720000D01*
%TD*%
M02*
