%TF.GenerationSoftware,KiCad,Pcbnew,9.0.2*%
%TF.CreationDate,2025-06-30T11:38:54+08:00*%
%TF.ProjectId,flamepad,666c616d-6570-4616-942e-6b696361645f,rev?*%
%TF.SameCoordinates,Original*%
%TF.FileFunction,Legend,Top*%
%TF.FilePolarity,Positive*%
%FSLAX46Y46*%
G04 Gerber Fmt 4.6, Leading zero omitted, Abs format (unit mm)*
G04 Created by KiCad (PCBNEW 9.0.2) date 2025-06-30 11:38:54*
%MOMM*%
%LPD*%
G01*
G04 APERTURE LIST*
%ADD10C,0.300000*%
%ADD11C,0.150000*%
%ADD12C,0.120000*%
%ADD13C,0.040000*%
%ADD14C,0.127000*%
%ADD15C,0.100000*%
%ADD16C,0.504000*%
G04 APERTURE END LIST*
D10*
X110411653Y-62600828D02*
X111411653Y-64100828D01*
X111411653Y-62600828D02*
X110411653Y-64100828D01*
X111983081Y-64100828D02*
X111983081Y-62600828D01*
X112625939Y-63672257D02*
X113340225Y-63672257D01*
X112483082Y-64100828D02*
X112983082Y-62600828D01*
X112983082Y-62600828D02*
X113483082Y-64100828D01*
X114268796Y-62600828D02*
X114554510Y-62600828D01*
X114554510Y-62600828D02*
X114697367Y-62672257D01*
X114697367Y-62672257D02*
X114840224Y-62815114D01*
X114840224Y-62815114D02*
X114911653Y-63100828D01*
X114911653Y-63100828D02*
X114911653Y-63600828D01*
X114911653Y-63600828D02*
X114840224Y-63886542D01*
X114840224Y-63886542D02*
X114697367Y-64029400D01*
X114697367Y-64029400D02*
X114554510Y-64100828D01*
X114554510Y-64100828D02*
X114268796Y-64100828D01*
X114268796Y-64100828D02*
X114125939Y-64029400D01*
X114125939Y-64029400D02*
X113983081Y-63886542D01*
X113983081Y-63886542D02*
X113911653Y-63600828D01*
X113911653Y-63600828D02*
X113911653Y-63100828D01*
X113911653Y-63100828D02*
X113983081Y-62815114D01*
X113983081Y-62815114D02*
X114125939Y-62672257D01*
X114125939Y-62672257D02*
X114268796Y-62600828D01*
X116697367Y-64100828D02*
X116697367Y-62600828D01*
X116697367Y-63315114D02*
X117554510Y-63315114D01*
X117554510Y-64100828D02*
X117554510Y-62600828D01*
X118268796Y-63315114D02*
X118768796Y-63315114D01*
X118983082Y-64100828D02*
X118268796Y-64100828D01*
X118268796Y-64100828D02*
X118268796Y-62600828D01*
X118268796Y-62600828D02*
X118983082Y-62600828D01*
X120483082Y-64100828D02*
X119983082Y-63386542D01*
X119625939Y-64100828D02*
X119625939Y-62600828D01*
X119625939Y-62600828D02*
X120197368Y-62600828D01*
X120197368Y-62600828D02*
X120340225Y-62672257D01*
X120340225Y-62672257D02*
X120411654Y-62743685D01*
X120411654Y-62743685D02*
X120483082Y-62886542D01*
X120483082Y-62886542D02*
X120483082Y-63100828D01*
X120483082Y-63100828D02*
X120411654Y-63243685D01*
X120411654Y-63243685D02*
X120340225Y-63315114D01*
X120340225Y-63315114D02*
X120197368Y-63386542D01*
X120197368Y-63386542D02*
X119625939Y-63386542D01*
X121125939Y-63315114D02*
X121625939Y-63315114D01*
X121840225Y-64100828D02*
X121125939Y-64100828D01*
X121125939Y-64100828D02*
X121125939Y-62600828D01*
X121125939Y-62600828D02*
X121840225Y-62600828D01*
G36*
X101904276Y-83327302D02*
G01*
X102138750Y-83327302D01*
X102138750Y-84300000D01*
X100485714Y-84300000D01*
X100485714Y-84039606D01*
X100733376Y-84039606D01*
X101891087Y-84039606D01*
X101891087Y-83356245D01*
X100733376Y-83356245D01*
X100733376Y-84039606D01*
X100485714Y-84039606D01*
X100485714Y-83327302D01*
X100720187Y-83327302D01*
X100720187Y-83095852D01*
X101904276Y-83095852D01*
X101904276Y-83327302D01*
G37*
G36*
X101671269Y-82629653D02*
G01*
X101886691Y-82629653D01*
X101886691Y-81696340D01*
X102138750Y-81696340D01*
X102138750Y-82666015D01*
X101904276Y-82666015D01*
X101904276Y-82900488D01*
X101189133Y-82900488D01*
X101189133Y-82666015D01*
X100954660Y-82666015D01*
X100954660Y-82640095D01*
X101202322Y-82640095D01*
X101423606Y-82640095D01*
X101423606Y-81956734D01*
X101202322Y-81956734D01*
X101202322Y-82640095D01*
X100954660Y-82640095D01*
X100954660Y-81927424D01*
X101189133Y-81927424D01*
X101189133Y-81696340D01*
X101671269Y-81696340D01*
X101671269Y-82629653D01*
G37*
G36*
X100954660Y-81266503D02*
G01*
X100954660Y-80299302D01*
X101206719Y-80299302D01*
X101206719Y-81231332D01*
X101423606Y-81231332D01*
X101423606Y-80527913D01*
X101652218Y-80527913D01*
X101652218Y-80299302D01*
X101904276Y-80299302D01*
X101904276Y-80527913D01*
X102138750Y-80527913D01*
X102138750Y-81500976D01*
X101886691Y-81500976D01*
X101886691Y-80568946D01*
X101675665Y-80568946D01*
X101675665Y-81266503D01*
X101441192Y-81266503D01*
X101441192Y-81500976D01*
X101189133Y-81500976D01*
X101189133Y-81266503D01*
X100954660Y-81266503D01*
G37*
G36*
X100485714Y-79632519D02*
G01*
X100485714Y-79362875D01*
X100737773Y-79362875D01*
X100737773Y-79632519D01*
X100485714Y-79632519D01*
G37*
G36*
X100954660Y-79866992D02*
G01*
X100954660Y-79362875D01*
X101886691Y-79362875D01*
X101886691Y-79128401D01*
X102138750Y-79128401D01*
X102138750Y-79866992D01*
X101886691Y-79866992D01*
X101886691Y-79632519D01*
X101206719Y-79632519D01*
X101206719Y-79866992D01*
X100954660Y-79866992D01*
G37*
G36*
X102138750Y-77728890D02*
G01*
X102373223Y-77728890D01*
X102373223Y-78701953D01*
X102121164Y-78701953D01*
X102121164Y-77766534D01*
X101905742Y-77766534D01*
X101905742Y-78468579D01*
X101675665Y-78468579D01*
X101675665Y-78701953D01*
X101189133Y-78701953D01*
X101189133Y-78468579D01*
X100954660Y-78468579D01*
X100954660Y-78441560D01*
X101202322Y-78441560D01*
X101658080Y-78441560D01*
X101658080Y-77758199D01*
X101202322Y-77758199D01*
X101202322Y-78441560D01*
X100954660Y-78441560D01*
X100954660Y-77497806D01*
X102138750Y-77497806D01*
X102138750Y-77728890D01*
G37*
G36*
X100954660Y-77302442D02*
G01*
X100954660Y-77032798D01*
X101189133Y-77032798D01*
X101189133Y-76833496D01*
X100954660Y-76833496D01*
X100954660Y-76329378D01*
X101189133Y-76329378D01*
X101189133Y-76100767D01*
X102138750Y-76100767D01*
X102138750Y-76370411D01*
X101206719Y-76370411D01*
X101206719Y-76796218D01*
X101441192Y-76796218D01*
X101441192Y-77032798D01*
X102138750Y-77032798D01*
X102138750Y-77302442D01*
X100954660Y-77302442D01*
G37*
G36*
X101671269Y-75632096D02*
G01*
X101886691Y-75632096D01*
X101886691Y-74698783D01*
X102138750Y-74698783D01*
X102138750Y-75668457D01*
X101904276Y-75668457D01*
X101904276Y-75902930D01*
X101189133Y-75902930D01*
X101189133Y-75668457D01*
X100954660Y-75668457D01*
X100954660Y-75642537D01*
X101202322Y-75642537D01*
X101423606Y-75642537D01*
X101423606Y-74959176D01*
X101202322Y-74959176D01*
X101202322Y-75642537D01*
X100954660Y-75642537D01*
X100954660Y-74929867D01*
X101189133Y-74929867D01*
X101189133Y-74698783D01*
X101671269Y-74698783D01*
X101671269Y-75632096D01*
G37*
G36*
X102138750Y-73571388D02*
G01*
X101904276Y-73571388D01*
X101904276Y-73764829D01*
X102138750Y-73764829D01*
X102138750Y-74268946D01*
X101904276Y-74268946D01*
X101904276Y-74503419D01*
X101189133Y-74503419D01*
X101189133Y-74268946D01*
X100954660Y-74268946D01*
X100954660Y-74243025D01*
X101202322Y-74243025D01*
X101891087Y-74243025D01*
X101891087Y-73794138D01*
X101202322Y-73794138D01*
X101202322Y-74243025D01*
X100954660Y-74243025D01*
X100954660Y-73802472D01*
X100485714Y-73802472D01*
X100485714Y-73533744D01*
X101886691Y-73533744D01*
X101886691Y-73301744D01*
X102138750Y-73301744D01*
X102138750Y-73571388D01*
G37*
G36*
X101904276Y-70731332D02*
G01*
X102138750Y-70731332D01*
X102138750Y-71704396D01*
X100485714Y-71704396D01*
X100485714Y-71433469D01*
X101189133Y-71433469D01*
X101189133Y-71235450D01*
X100954660Y-71235450D01*
X100954660Y-71208339D01*
X101202322Y-71208339D01*
X101436796Y-71208339D01*
X101436796Y-71444002D01*
X101891087Y-71444002D01*
X101891087Y-70760642D01*
X101202322Y-70760642D01*
X101202322Y-71208339D01*
X100954660Y-71208339D01*
X100954660Y-70731332D01*
X101189133Y-70731332D01*
X101189133Y-70500248D01*
X101904276Y-70500248D01*
X101904276Y-70731332D01*
G37*
G36*
X100954660Y-70304884D02*
G01*
X100954660Y-70035240D01*
X101658080Y-70035240D01*
X101658080Y-69372854D01*
X100954660Y-69372854D01*
X100954660Y-69103210D01*
X102138750Y-69103210D01*
X102138750Y-69331821D01*
X102373223Y-69331821D01*
X102373223Y-70304884D01*
X102121164Y-70304884D01*
X102121164Y-69372854D01*
X101910138Y-69372854D01*
X101910138Y-70072518D01*
X101669803Y-70072518D01*
X101669803Y-70304884D01*
X100954660Y-70304884D01*
G37*
G36*
X102138750Y-66573831D02*
G01*
X101206719Y-66573831D01*
X101206719Y-67236217D01*
X102138750Y-67236217D01*
X102138750Y-67505861D01*
X100718813Y-67505861D01*
X100718813Y-67271388D01*
X100485714Y-67271388D01*
X100485714Y-67246017D01*
X100733376Y-67246017D01*
X100959057Y-67246017D01*
X100959057Y-66564763D01*
X100733376Y-66564763D01*
X100733376Y-67246017D01*
X100485714Y-67246017D01*
X100485714Y-66532798D01*
X100718813Y-66532798D01*
X100718813Y-66304187D01*
X102138750Y-66304187D01*
X102138750Y-66573831D01*
G37*
G36*
X100954660Y-65871877D02*
G01*
X100954660Y-64904675D01*
X101206719Y-64904675D01*
X101206719Y-65836706D01*
X101423606Y-65836706D01*
X101423606Y-65133286D01*
X101652218Y-65133286D01*
X101652218Y-64904675D01*
X101904276Y-64904675D01*
X101904276Y-65133286D01*
X102138750Y-65133286D01*
X102138750Y-66106350D01*
X101886691Y-66106350D01*
X101886691Y-65174319D01*
X101675665Y-65174319D01*
X101675665Y-65871877D01*
X101441192Y-65871877D01*
X101441192Y-66106350D01*
X101189133Y-66106350D01*
X101189133Y-65871877D01*
X100954660Y-65871877D01*
G37*
G36*
X100954660Y-64706838D02*
G01*
X100954660Y-64437194D01*
X101658080Y-64437194D01*
X101658080Y-63774808D01*
X100954660Y-63774808D01*
X100954660Y-63505163D01*
X102138750Y-63505163D01*
X102138750Y-63733775D01*
X102373223Y-63733775D01*
X102373223Y-64706838D01*
X102121164Y-64706838D01*
X102121164Y-63774808D01*
X101910138Y-63774808D01*
X101910138Y-64474472D01*
X101669803Y-64474472D01*
X101669803Y-64706838D01*
X100954660Y-64706838D01*
G37*
G36*
X100954660Y-63307327D02*
G01*
X100954660Y-63037683D01*
X101189133Y-63037683D01*
X101189133Y-62838381D01*
X100954660Y-62838381D01*
X100954660Y-62334263D01*
X101189133Y-62334263D01*
X101189133Y-62105652D01*
X101441192Y-62105652D01*
X101441192Y-62375296D01*
X101206719Y-62375296D01*
X101206719Y-62801103D01*
X101441192Y-62801103D01*
X101441192Y-63037683D01*
X102138750Y-63037683D01*
X102138750Y-63307327D01*
X100954660Y-63307327D01*
G37*
G36*
X102138750Y-61673342D02*
G01*
X101904276Y-61673342D01*
X101904276Y-61907815D01*
X101652218Y-61907815D01*
X101652218Y-61673342D01*
X101422141Y-61673342D01*
X101422141Y-61647422D01*
X101669803Y-61647422D01*
X101891087Y-61647422D01*
X101891087Y-60964061D01*
X101669803Y-60964061D01*
X101669803Y-61647422D01*
X101422141Y-61647422D01*
X101422141Y-60972396D01*
X101206719Y-60972396D01*
X101206719Y-61673342D01*
X100954660Y-61673342D01*
X100954660Y-60934752D01*
X101187943Y-60934752D01*
X101187943Y-60703668D01*
X102138750Y-60703668D01*
X102138750Y-61673342D01*
G37*
G36*
X100485714Y-60039357D02*
G01*
X100485714Y-59535240D01*
X100720187Y-59535240D01*
X100720187Y-59306629D01*
X100972246Y-59306629D01*
X100972246Y-59576273D01*
X100737773Y-59576273D01*
X100737773Y-60004187D01*
X101189133Y-60004187D01*
X101189133Y-59535240D01*
X101441192Y-59535240D01*
X101441192Y-60004187D01*
X102138750Y-60004187D01*
X102138750Y-60273831D01*
X101441192Y-60273831D01*
X101441192Y-60508304D01*
X101189133Y-60508304D01*
X101189133Y-60273831D01*
X100720187Y-60273831D01*
X100720187Y-60039357D01*
X100485714Y-60039357D01*
G37*
G36*
X100485714Y-58639846D02*
G01*
X100485714Y-58370202D01*
X100972246Y-58370202D01*
X100972246Y-58639846D01*
X100485714Y-58639846D01*
G37*
G36*
X100954660Y-57474808D02*
G01*
X100954660Y-56507606D01*
X101206719Y-56507606D01*
X101206719Y-57439637D01*
X101423606Y-57439637D01*
X101423606Y-56736217D01*
X101652218Y-56736217D01*
X101652218Y-56507606D01*
X101904276Y-56507606D01*
X101904276Y-56736217D01*
X102138750Y-56736217D01*
X102138750Y-57709281D01*
X101886691Y-57709281D01*
X101886691Y-56777250D01*
X101675665Y-56777250D01*
X101675665Y-57474808D01*
X101441192Y-57474808D01*
X101441192Y-57709281D01*
X101189133Y-57709281D01*
X101189133Y-57474808D01*
X100954660Y-57474808D01*
G37*
G36*
X100455952Y-146700000D02*
G01*
X100455952Y-145093859D01*
X100792030Y-145093859D01*
X100792030Y-146340474D01*
X101393845Y-146340474D01*
X101393845Y-145406489D01*
X101729923Y-145406489D01*
X101729923Y-146340474D01*
X102660000Y-146340474D01*
X102660000Y-146700000D01*
X100455952Y-146700000D01*
G37*
G36*
X100455952Y-144521353D02*
G01*
X100455952Y-143849197D01*
X102323921Y-143849197D01*
X102323921Y-143223935D01*
X102660000Y-143223935D01*
X102660000Y-143896092D01*
X102348834Y-143896092D01*
X102348834Y-144208722D01*
X100792030Y-144208722D01*
X100792030Y-144521353D01*
X100455952Y-144521353D01*
G37*
G36*
X102660000Y-142655338D02*
G01*
X102347369Y-142655338D01*
X102347369Y-142967969D01*
X102011290Y-142967969D01*
X102011290Y-142655338D01*
X101704521Y-142655338D01*
X101704521Y-142620778D01*
X102034738Y-142620778D01*
X102329783Y-142620778D01*
X102329783Y-141709630D01*
X102034738Y-141709630D01*
X102034738Y-142620778D01*
X101704521Y-142620778D01*
X101704521Y-141720743D01*
X101417292Y-141720743D01*
X101417292Y-142655338D01*
X101081214Y-142655338D01*
X101081214Y-141670551D01*
X101392257Y-141670551D01*
X101392257Y-141362438D01*
X102660000Y-141362438D01*
X102660000Y-142655338D01*
G37*
G36*
X101081214Y-141101953D02*
G01*
X101081214Y-140426378D01*
X101393845Y-140426378D01*
X101393845Y-140164061D01*
X101081214Y-140164061D01*
X101081214Y-139804535D01*
X101393845Y-139804535D01*
X101393845Y-139499720D01*
X102660000Y-139499720D01*
X102660000Y-139859246D01*
X101417292Y-139859246D01*
X101417292Y-140117166D01*
X102660000Y-140117166D01*
X102660000Y-140476692D01*
X101417292Y-140476692D01*
X101417292Y-140742428D01*
X102660000Y-140742428D01*
X102660000Y-141101953D01*
X101081214Y-141101953D01*
G37*
G36*
X102036692Y-138874825D02*
G01*
X102323921Y-138874825D01*
X102323921Y-137630408D01*
X102660000Y-137630408D01*
X102660000Y-138923307D01*
X102347369Y-138923307D01*
X102347369Y-139235938D01*
X101393845Y-139235938D01*
X101393845Y-138923307D01*
X101081214Y-138923307D01*
X101081214Y-138888747D01*
X101411430Y-138888747D01*
X101706475Y-138888747D01*
X101706475Y-137977599D01*
X101411430Y-137977599D01*
X101411430Y-138888747D01*
X101081214Y-138888747D01*
X101081214Y-137938520D01*
X101393845Y-137938520D01*
X101393845Y-137630408D01*
X102036692Y-137630408D01*
X102036692Y-138874825D01*
G37*
G36*
X101104661Y-136072993D02*
G01*
X101393845Y-136072993D01*
X101393845Y-135764392D01*
X102347369Y-135764392D01*
X102347369Y-136072993D01*
X102660000Y-136072993D01*
X102660000Y-137369923D01*
X100455952Y-137369923D01*
X100455952Y-137022732D01*
X100786168Y-137022732D01*
X101081214Y-137022732D01*
X101409476Y-137022732D01*
X102329783Y-137022732D01*
X102329783Y-136111584D01*
X101409476Y-136111584D01*
X101409476Y-137022732D01*
X101081214Y-137022732D01*
X101081214Y-136111584D01*
X100786168Y-136111584D01*
X100786168Y-137022732D01*
X100455952Y-137022732D01*
X100455952Y-136072993D01*
X100768583Y-136072993D01*
X100768583Y-135764392D01*
X101104661Y-135764392D01*
X101104661Y-136072993D01*
G37*
G36*
X102660000Y-135191277D02*
G01*
X102347369Y-135191277D01*
X102347369Y-135503907D01*
X102011290Y-135503907D01*
X102011290Y-135191277D01*
X101704521Y-135191277D01*
X101704521Y-135156716D01*
X102034738Y-135156716D01*
X102329783Y-135156716D01*
X102329783Y-134245568D01*
X102034738Y-134245568D01*
X102034738Y-135156716D01*
X101704521Y-135156716D01*
X101704521Y-134256681D01*
X101417292Y-134256681D01*
X101417292Y-135191277D01*
X101081214Y-135191277D01*
X101081214Y-134206489D01*
X101392257Y-134206489D01*
X101392257Y-133898377D01*
X102660000Y-133898377D01*
X102660000Y-135191277D01*
G37*
G36*
X101081214Y-133637892D02*
G01*
X101081214Y-132962316D01*
X101393845Y-132962316D01*
X101393845Y-132700000D01*
X101081214Y-132700000D01*
X101081214Y-132340474D01*
X101393845Y-132340474D01*
X101393845Y-132035659D01*
X102660000Y-132035659D01*
X102660000Y-132395184D01*
X101417292Y-132395184D01*
X101417292Y-132653105D01*
X102660000Y-132653105D01*
X102660000Y-133012630D01*
X101417292Y-133012630D01*
X101417292Y-133278367D01*
X102660000Y-133278367D01*
X102660000Y-133637892D01*
X101081214Y-133637892D01*
G37*
G36*
X102347369Y-130474459D02*
G01*
X102660000Y-130474459D01*
X102660000Y-131771877D01*
X100455952Y-131771877D01*
X100455952Y-131410642D01*
X101393845Y-131410642D01*
X101393845Y-131146615D01*
X101081214Y-131146615D01*
X101081214Y-131110467D01*
X101411430Y-131110467D01*
X101724061Y-131110467D01*
X101724061Y-131424685D01*
X102329783Y-131424685D01*
X102329783Y-130513538D01*
X101411430Y-130513538D01*
X101411430Y-131110467D01*
X101081214Y-131110467D01*
X101081214Y-130474459D01*
X101393845Y-130474459D01*
X101393845Y-130166346D01*
X102347369Y-130166346D01*
X102347369Y-130474459D01*
G37*
G36*
X102347369Y-128608443D02*
G01*
X102660000Y-128608443D01*
X102660000Y-129593230D01*
X102347369Y-129593230D01*
X102347369Y-129905861D01*
X101393845Y-129905861D01*
X101393845Y-129593230D01*
X101081214Y-129593230D01*
X101081214Y-129558670D01*
X101411430Y-129558670D01*
X102329783Y-129558670D01*
X102329783Y-128647522D01*
X101411430Y-128647522D01*
X101411430Y-129558670D01*
X101081214Y-129558670D01*
X101081214Y-128608443D01*
X101393845Y-128608443D01*
X101393845Y-128300331D01*
X102347369Y-128300331D01*
X102347369Y-128608443D01*
G37*
G36*
X102347369Y-126742428D02*
G01*
X102660000Y-126742428D01*
X102660000Y-127727215D01*
X102347369Y-127727215D01*
X102347369Y-128039846D01*
X101393845Y-128039846D01*
X101393845Y-127727215D01*
X101081214Y-127727215D01*
X101081214Y-127692655D01*
X101411430Y-127692655D01*
X102329783Y-127692655D01*
X102329783Y-126781507D01*
X101411430Y-126781507D01*
X101411430Y-127692655D01*
X101081214Y-127692655D01*
X101081214Y-126742428D01*
X101393845Y-126742428D01*
X101393845Y-126434316D01*
X102347369Y-126434316D01*
X102347369Y-126742428D01*
G37*
G36*
X101417292Y-123010886D02*
G01*
X101729923Y-123010886D01*
X101729923Y-123946702D01*
X102660000Y-123946702D01*
X102660000Y-124307815D01*
X100455952Y-124307815D01*
X100455952Y-123960624D01*
X100786168Y-123960624D01*
X101399706Y-123960624D01*
X101399706Y-123049476D01*
X100786168Y-123049476D01*
X100786168Y-123960624D01*
X100455952Y-123960624D01*
X100455952Y-123010886D01*
X100768583Y-123010886D01*
X100768583Y-122702285D01*
X101417292Y-122702285D01*
X101417292Y-123010886D01*
G37*
G36*
X102660000Y-122129169D02*
G01*
X102347369Y-122129169D01*
X102347369Y-122441800D01*
X102011290Y-122441800D01*
X102011290Y-122129169D01*
X101704521Y-122129169D01*
X101704521Y-122094609D01*
X102034738Y-122094609D01*
X102329783Y-122094609D01*
X102329783Y-121183461D01*
X102034738Y-121183461D01*
X102034738Y-122094609D01*
X101704521Y-122094609D01*
X101704521Y-121194574D01*
X101417292Y-121194574D01*
X101417292Y-122129169D01*
X101081214Y-122129169D01*
X101081214Y-121144382D01*
X101392257Y-121144382D01*
X101392257Y-120836270D01*
X102660000Y-120836270D01*
X102660000Y-122129169D01*
G37*
G36*
X102660000Y-119333077D02*
G01*
X102347369Y-119333077D01*
X102347369Y-119590997D01*
X102660000Y-119590997D01*
X102660000Y-120263154D01*
X102347369Y-120263154D01*
X102347369Y-120575785D01*
X101393845Y-120575785D01*
X101393845Y-120263154D01*
X101081214Y-120263154D01*
X101081214Y-120228593D01*
X101411430Y-120228593D01*
X102329783Y-120228593D01*
X102329783Y-119630076D01*
X101411430Y-119630076D01*
X101411430Y-120228593D01*
X101081214Y-120228593D01*
X101081214Y-119641189D01*
X100455952Y-119641189D01*
X100455952Y-119282885D01*
X102323921Y-119282885D01*
X102323921Y-118973551D01*
X102660000Y-118973551D01*
X102660000Y-119333077D01*
G37*
D11*
X110516667Y-74707200D02*
X110659524Y-74754819D01*
X110659524Y-74754819D02*
X110897619Y-74754819D01*
X110897619Y-74754819D02*
X110992857Y-74707200D01*
X110992857Y-74707200D02*
X111040476Y-74659580D01*
X111040476Y-74659580D02*
X111088095Y-74564342D01*
X111088095Y-74564342D02*
X111088095Y-74469104D01*
X111088095Y-74469104D02*
X111040476Y-74373866D01*
X111040476Y-74373866D02*
X110992857Y-74326247D01*
X110992857Y-74326247D02*
X110897619Y-74278628D01*
X110897619Y-74278628D02*
X110707143Y-74231009D01*
X110707143Y-74231009D02*
X110611905Y-74183390D01*
X110611905Y-74183390D02*
X110564286Y-74135771D01*
X110564286Y-74135771D02*
X110516667Y-74040533D01*
X110516667Y-74040533D02*
X110516667Y-73945295D01*
X110516667Y-73945295D02*
X110564286Y-73850057D01*
X110564286Y-73850057D02*
X110611905Y-73802438D01*
X110611905Y-73802438D02*
X110707143Y-73754819D01*
X110707143Y-73754819D02*
X110945238Y-73754819D01*
X110945238Y-73754819D02*
X111088095Y-73802438D01*
X111421429Y-73754819D02*
X111659524Y-74754819D01*
X111659524Y-74754819D02*
X111850000Y-74040533D01*
X111850000Y-74040533D02*
X112040476Y-74754819D01*
X112040476Y-74754819D02*
X112278572Y-73754819D01*
X113183333Y-74754819D02*
X112611905Y-74754819D01*
X112897619Y-74754819D02*
X112897619Y-73754819D01*
X112897619Y-73754819D02*
X112802381Y-73897676D01*
X112802381Y-73897676D02*
X112707143Y-73992914D01*
X112707143Y-73992914D02*
X112611905Y-74040533D01*
X114490476Y-131183200D02*
X114633333Y-131230819D01*
X114633333Y-131230819D02*
X114871428Y-131230819D01*
X114871428Y-131230819D02*
X114966666Y-131183200D01*
X114966666Y-131183200D02*
X115014285Y-131135580D01*
X115014285Y-131135580D02*
X115061904Y-131040342D01*
X115061904Y-131040342D02*
X115061904Y-130945104D01*
X115061904Y-130945104D02*
X115014285Y-130849866D01*
X115014285Y-130849866D02*
X114966666Y-130802247D01*
X114966666Y-130802247D02*
X114871428Y-130754628D01*
X114871428Y-130754628D02*
X114680952Y-130707009D01*
X114680952Y-130707009D02*
X114585714Y-130659390D01*
X114585714Y-130659390D02*
X114538095Y-130611771D01*
X114538095Y-130611771D02*
X114490476Y-130516533D01*
X114490476Y-130516533D02*
X114490476Y-130421295D01*
X114490476Y-130421295D02*
X114538095Y-130326057D01*
X114538095Y-130326057D02*
X114585714Y-130278438D01*
X114585714Y-130278438D02*
X114680952Y-130230819D01*
X114680952Y-130230819D02*
X114919047Y-130230819D01*
X114919047Y-130230819D02*
X115061904Y-130278438D01*
X115395238Y-130230819D02*
X115633333Y-131230819D01*
X115633333Y-131230819D02*
X115823809Y-130516533D01*
X115823809Y-130516533D02*
X116014285Y-131230819D01*
X116014285Y-131230819D02*
X116252381Y-130230819D01*
X117157142Y-131230819D02*
X116585714Y-131230819D01*
X116871428Y-131230819D02*
X116871428Y-130230819D01*
X116871428Y-130230819D02*
X116776190Y-130373676D01*
X116776190Y-130373676D02*
X116680952Y-130468914D01*
X116680952Y-130468914D02*
X116585714Y-130516533D01*
X117776190Y-130230819D02*
X117871428Y-130230819D01*
X117871428Y-130230819D02*
X117966666Y-130278438D01*
X117966666Y-130278438D02*
X118014285Y-130326057D01*
X118014285Y-130326057D02*
X118061904Y-130421295D01*
X118061904Y-130421295D02*
X118109523Y-130611771D01*
X118109523Y-130611771D02*
X118109523Y-130849866D01*
X118109523Y-130849866D02*
X118061904Y-131040342D01*
X118061904Y-131040342D02*
X118014285Y-131135580D01*
X118014285Y-131135580D02*
X117966666Y-131183200D01*
X117966666Y-131183200D02*
X117871428Y-131230819D01*
X117871428Y-131230819D02*
X117776190Y-131230819D01*
X117776190Y-131230819D02*
X117680952Y-131183200D01*
X117680952Y-131183200D02*
X117633333Y-131135580D01*
X117633333Y-131135580D02*
X117585714Y-131040342D01*
X117585714Y-131040342D02*
X117538095Y-130849866D01*
X117538095Y-130849866D02*
X117538095Y-130611771D01*
X117538095Y-130611771D02*
X117585714Y-130421295D01*
X117585714Y-130421295D02*
X117633333Y-130326057D01*
X117633333Y-130326057D02*
X117680952Y-130278438D01*
X117680952Y-130278438D02*
X117776190Y-130230819D01*
X152590476Y-131183200D02*
X152733333Y-131230819D01*
X152733333Y-131230819D02*
X152971428Y-131230819D01*
X152971428Y-131230819D02*
X153066666Y-131183200D01*
X153066666Y-131183200D02*
X153114285Y-131135580D01*
X153114285Y-131135580D02*
X153161904Y-131040342D01*
X153161904Y-131040342D02*
X153161904Y-130945104D01*
X153161904Y-130945104D02*
X153114285Y-130849866D01*
X153114285Y-130849866D02*
X153066666Y-130802247D01*
X153066666Y-130802247D02*
X152971428Y-130754628D01*
X152971428Y-130754628D02*
X152780952Y-130707009D01*
X152780952Y-130707009D02*
X152685714Y-130659390D01*
X152685714Y-130659390D02*
X152638095Y-130611771D01*
X152638095Y-130611771D02*
X152590476Y-130516533D01*
X152590476Y-130516533D02*
X152590476Y-130421295D01*
X152590476Y-130421295D02*
X152638095Y-130326057D01*
X152638095Y-130326057D02*
X152685714Y-130278438D01*
X152685714Y-130278438D02*
X152780952Y-130230819D01*
X152780952Y-130230819D02*
X153019047Y-130230819D01*
X153019047Y-130230819D02*
X153161904Y-130278438D01*
X153495238Y-130230819D02*
X153733333Y-131230819D01*
X153733333Y-131230819D02*
X153923809Y-130516533D01*
X153923809Y-130516533D02*
X154114285Y-131230819D01*
X154114285Y-131230819D02*
X154352381Y-130230819D01*
X155257142Y-131230819D02*
X154685714Y-131230819D01*
X154971428Y-131230819D02*
X154971428Y-130230819D01*
X154971428Y-130230819D02*
X154876190Y-130373676D01*
X154876190Y-130373676D02*
X154780952Y-130468914D01*
X154780952Y-130468914D02*
X154685714Y-130516533D01*
X155638095Y-130326057D02*
X155685714Y-130278438D01*
X155685714Y-130278438D02*
X155780952Y-130230819D01*
X155780952Y-130230819D02*
X156019047Y-130230819D01*
X156019047Y-130230819D02*
X156114285Y-130278438D01*
X156114285Y-130278438D02*
X156161904Y-130326057D01*
X156161904Y-130326057D02*
X156209523Y-130421295D01*
X156209523Y-130421295D02*
X156209523Y-130516533D01*
X156209523Y-130516533D02*
X156161904Y-130659390D01*
X156161904Y-130659390D02*
X155590476Y-131230819D01*
X155590476Y-131230819D02*
X156209523Y-131230819D01*
X127354819Y-62673333D02*
X128069104Y-62673333D01*
X128069104Y-62673333D02*
X128211961Y-62720952D01*
X128211961Y-62720952D02*
X128307200Y-62816190D01*
X128307200Y-62816190D02*
X128354819Y-62959047D01*
X128354819Y-62959047D02*
X128354819Y-63054285D01*
X128354819Y-61673333D02*
X128354819Y-62244761D01*
X128354819Y-61959047D02*
X127354819Y-61959047D01*
X127354819Y-61959047D02*
X127497676Y-62054285D01*
X127497676Y-62054285D02*
X127592914Y-62149523D01*
X127592914Y-62149523D02*
X127640533Y-62244761D01*
X160803450Y-67150713D02*
X160839164Y-67043571D01*
X160839164Y-67043571D02*
X160839164Y-66864999D01*
X160839164Y-66864999D02*
X160803450Y-66793571D01*
X160803450Y-66793571D02*
X160767735Y-66757856D01*
X160767735Y-66757856D02*
X160696307Y-66722142D01*
X160696307Y-66722142D02*
X160624878Y-66722142D01*
X160624878Y-66722142D02*
X160553450Y-66757856D01*
X160553450Y-66757856D02*
X160517735Y-66793571D01*
X160517735Y-66793571D02*
X160482021Y-66864999D01*
X160482021Y-66864999D02*
X160446307Y-67007856D01*
X160446307Y-67007856D02*
X160410592Y-67079285D01*
X160410592Y-67079285D02*
X160374878Y-67114999D01*
X160374878Y-67114999D02*
X160303450Y-67150713D01*
X160303450Y-67150713D02*
X160232021Y-67150713D01*
X160232021Y-67150713D02*
X160160592Y-67114999D01*
X160160592Y-67114999D02*
X160124878Y-67079285D01*
X160124878Y-67079285D02*
X160089164Y-67007856D01*
X160089164Y-67007856D02*
X160089164Y-66829285D01*
X160089164Y-66829285D02*
X160124878Y-66722142D01*
X160839164Y-66400713D02*
X160089164Y-66400713D01*
X160089164Y-66400713D02*
X160089164Y-66222142D01*
X160089164Y-66222142D02*
X160124878Y-66114999D01*
X160124878Y-66114999D02*
X160196307Y-66043570D01*
X160196307Y-66043570D02*
X160267735Y-66007856D01*
X160267735Y-66007856D02*
X160410592Y-65972142D01*
X160410592Y-65972142D02*
X160517735Y-65972142D01*
X160517735Y-65972142D02*
X160660592Y-66007856D01*
X160660592Y-66007856D02*
X160732021Y-66043570D01*
X160732021Y-66043570D02*
X160803450Y-66114999D01*
X160803450Y-66114999D02*
X160839164Y-66222142D01*
X160839164Y-66222142D02*
X160839164Y-66400713D01*
X160624878Y-65686427D02*
X160624878Y-65329285D01*
X160839164Y-65757856D02*
X160089164Y-65507856D01*
X160089164Y-65507856D02*
X160839164Y-65257856D01*
X160124878Y-59191428D02*
X160089164Y-59262857D01*
X160089164Y-59262857D02*
X160089164Y-59369999D01*
X160089164Y-59369999D02*
X160124878Y-59477142D01*
X160124878Y-59477142D02*
X160196307Y-59548571D01*
X160196307Y-59548571D02*
X160267735Y-59584285D01*
X160267735Y-59584285D02*
X160410592Y-59619999D01*
X160410592Y-59619999D02*
X160517735Y-59619999D01*
X160517735Y-59619999D02*
X160660592Y-59584285D01*
X160660592Y-59584285D02*
X160732021Y-59548571D01*
X160732021Y-59548571D02*
X160803450Y-59477142D01*
X160803450Y-59477142D02*
X160839164Y-59369999D01*
X160839164Y-59369999D02*
X160839164Y-59298571D01*
X160839164Y-59298571D02*
X160803450Y-59191428D01*
X160803450Y-59191428D02*
X160767735Y-59155714D01*
X160767735Y-59155714D02*
X160517735Y-59155714D01*
X160517735Y-59155714D02*
X160517735Y-59298571D01*
X160839164Y-58834285D02*
X160089164Y-58834285D01*
X160089164Y-58834285D02*
X160839164Y-58405714D01*
X160839164Y-58405714D02*
X160089164Y-58405714D01*
X160839164Y-58048571D02*
X160089164Y-58048571D01*
X160089164Y-58048571D02*
X160089164Y-57870000D01*
X160089164Y-57870000D02*
X160124878Y-57762857D01*
X160124878Y-57762857D02*
X160196307Y-57691428D01*
X160196307Y-57691428D02*
X160267735Y-57655714D01*
X160267735Y-57655714D02*
X160410592Y-57620000D01*
X160410592Y-57620000D02*
X160517735Y-57620000D01*
X160517735Y-57620000D02*
X160660592Y-57655714D01*
X160660592Y-57655714D02*
X160732021Y-57691428D01*
X160732021Y-57691428D02*
X160803450Y-57762857D01*
X160803450Y-57762857D02*
X160839164Y-57870000D01*
X160839164Y-57870000D02*
X160839164Y-58048571D01*
X160803450Y-64592856D02*
X160839164Y-64485714D01*
X160839164Y-64485714D02*
X160839164Y-64307142D01*
X160839164Y-64307142D02*
X160803450Y-64235714D01*
X160803450Y-64235714D02*
X160767735Y-64199999D01*
X160767735Y-64199999D02*
X160696307Y-64164285D01*
X160696307Y-64164285D02*
X160624878Y-64164285D01*
X160624878Y-64164285D02*
X160553450Y-64199999D01*
X160553450Y-64199999D02*
X160517735Y-64235714D01*
X160517735Y-64235714D02*
X160482021Y-64307142D01*
X160482021Y-64307142D02*
X160446307Y-64449999D01*
X160446307Y-64449999D02*
X160410592Y-64521428D01*
X160410592Y-64521428D02*
X160374878Y-64557142D01*
X160374878Y-64557142D02*
X160303450Y-64592856D01*
X160303450Y-64592856D02*
X160232021Y-64592856D01*
X160232021Y-64592856D02*
X160160592Y-64557142D01*
X160160592Y-64557142D02*
X160124878Y-64521428D01*
X160124878Y-64521428D02*
X160089164Y-64449999D01*
X160089164Y-64449999D02*
X160089164Y-64271428D01*
X160089164Y-64271428D02*
X160124878Y-64164285D01*
X160767735Y-63414285D02*
X160803450Y-63449999D01*
X160803450Y-63449999D02*
X160839164Y-63557142D01*
X160839164Y-63557142D02*
X160839164Y-63628570D01*
X160839164Y-63628570D02*
X160803450Y-63735713D01*
X160803450Y-63735713D02*
X160732021Y-63807142D01*
X160732021Y-63807142D02*
X160660592Y-63842856D01*
X160660592Y-63842856D02*
X160517735Y-63878570D01*
X160517735Y-63878570D02*
X160410592Y-63878570D01*
X160410592Y-63878570D02*
X160267735Y-63842856D01*
X160267735Y-63842856D02*
X160196307Y-63807142D01*
X160196307Y-63807142D02*
X160124878Y-63735713D01*
X160124878Y-63735713D02*
X160089164Y-63628570D01*
X160089164Y-63628570D02*
X160089164Y-63557142D01*
X160089164Y-63557142D02*
X160124878Y-63449999D01*
X160124878Y-63449999D02*
X160160592Y-63414285D01*
X160839164Y-62735713D02*
X160839164Y-63092856D01*
X160839164Y-63092856D02*
X160089164Y-63092856D01*
X141071428Y-61884819D02*
X141261904Y-61884819D01*
X141261904Y-61884819D02*
X141357142Y-61932438D01*
X141357142Y-61932438D02*
X141452380Y-62027676D01*
X141452380Y-62027676D02*
X141499999Y-62218152D01*
X141499999Y-62218152D02*
X141499999Y-62551485D01*
X141499999Y-62551485D02*
X141452380Y-62741961D01*
X141452380Y-62741961D02*
X141357142Y-62837200D01*
X141357142Y-62837200D02*
X141261904Y-62884819D01*
X141261904Y-62884819D02*
X141071428Y-62884819D01*
X141071428Y-62884819D02*
X140976190Y-62837200D01*
X140976190Y-62837200D02*
X140880952Y-62741961D01*
X140880952Y-62741961D02*
X140833333Y-62551485D01*
X140833333Y-62551485D02*
X140833333Y-62218152D01*
X140833333Y-62218152D02*
X140880952Y-62027676D01*
X140880952Y-62027676D02*
X140976190Y-61932438D01*
X140976190Y-61932438D02*
X141071428Y-61884819D01*
X142404761Y-62884819D02*
X141928571Y-62884819D01*
X141928571Y-62884819D02*
X141928571Y-61884819D01*
X142738095Y-62361009D02*
X143071428Y-62361009D01*
X143214285Y-62884819D02*
X142738095Y-62884819D01*
X142738095Y-62884819D02*
X142738095Y-61884819D01*
X142738095Y-61884819D02*
X143214285Y-61884819D01*
X143642857Y-62884819D02*
X143642857Y-61884819D01*
X143642857Y-61884819D02*
X143880952Y-61884819D01*
X143880952Y-61884819D02*
X144023809Y-61932438D01*
X144023809Y-61932438D02*
X144119047Y-62027676D01*
X144119047Y-62027676D02*
X144166666Y-62122914D01*
X144166666Y-62122914D02*
X144214285Y-62313390D01*
X144214285Y-62313390D02*
X144214285Y-62456247D01*
X144214285Y-62456247D02*
X144166666Y-62646723D01*
X144166666Y-62646723D02*
X144119047Y-62741961D01*
X144119047Y-62741961D02*
X144023809Y-62837200D01*
X144023809Y-62837200D02*
X143880952Y-62884819D01*
X143880952Y-62884819D02*
X143642857Y-62884819D01*
X145404762Y-62884819D02*
X145404762Y-61884819D01*
X145404762Y-61884819D02*
X145785714Y-61884819D01*
X145785714Y-61884819D02*
X145880952Y-61932438D01*
X145880952Y-61932438D02*
X145928571Y-61980057D01*
X145928571Y-61980057D02*
X145976190Y-62075295D01*
X145976190Y-62075295D02*
X145976190Y-62218152D01*
X145976190Y-62218152D02*
X145928571Y-62313390D01*
X145928571Y-62313390D02*
X145880952Y-62361009D01*
X145880952Y-62361009D02*
X145785714Y-62408628D01*
X145785714Y-62408628D02*
X145404762Y-62408628D01*
X146833333Y-62884819D02*
X146833333Y-62361009D01*
X146833333Y-62361009D02*
X146785714Y-62265771D01*
X146785714Y-62265771D02*
X146690476Y-62218152D01*
X146690476Y-62218152D02*
X146500000Y-62218152D01*
X146500000Y-62218152D02*
X146404762Y-62265771D01*
X146833333Y-62837200D02*
X146738095Y-62884819D01*
X146738095Y-62884819D02*
X146500000Y-62884819D01*
X146500000Y-62884819D02*
X146404762Y-62837200D01*
X146404762Y-62837200D02*
X146357143Y-62741961D01*
X146357143Y-62741961D02*
X146357143Y-62646723D01*
X146357143Y-62646723D02*
X146404762Y-62551485D01*
X146404762Y-62551485D02*
X146500000Y-62503866D01*
X146500000Y-62503866D02*
X146738095Y-62503866D01*
X146738095Y-62503866D02*
X146833333Y-62456247D01*
X147309524Y-62218152D02*
X147309524Y-62884819D01*
X147309524Y-62313390D02*
X147357143Y-62265771D01*
X147357143Y-62265771D02*
X147452381Y-62218152D01*
X147452381Y-62218152D02*
X147595238Y-62218152D01*
X147595238Y-62218152D02*
X147690476Y-62265771D01*
X147690476Y-62265771D02*
X147738095Y-62361009D01*
X147738095Y-62361009D02*
X147738095Y-62884819D01*
X148595238Y-62837200D02*
X148500000Y-62884819D01*
X148500000Y-62884819D02*
X148309524Y-62884819D01*
X148309524Y-62884819D02*
X148214286Y-62837200D01*
X148214286Y-62837200D02*
X148166667Y-62741961D01*
X148166667Y-62741961D02*
X148166667Y-62361009D01*
X148166667Y-62361009D02*
X148214286Y-62265771D01*
X148214286Y-62265771D02*
X148309524Y-62218152D01*
X148309524Y-62218152D02*
X148500000Y-62218152D01*
X148500000Y-62218152D02*
X148595238Y-62265771D01*
X148595238Y-62265771D02*
X148642857Y-62361009D01*
X148642857Y-62361009D02*
X148642857Y-62456247D01*
X148642857Y-62456247D02*
X148166667Y-62551485D01*
X149214286Y-62884819D02*
X149119048Y-62837200D01*
X149119048Y-62837200D02*
X149071429Y-62741961D01*
X149071429Y-62741961D02*
X149071429Y-61884819D01*
X160089164Y-62159999D02*
X160839164Y-61909999D01*
X160839164Y-61909999D02*
X160089164Y-61659999D01*
X160767735Y-60981428D02*
X160803450Y-61017142D01*
X160803450Y-61017142D02*
X160839164Y-61124285D01*
X160839164Y-61124285D02*
X160839164Y-61195713D01*
X160839164Y-61195713D02*
X160803450Y-61302856D01*
X160803450Y-61302856D02*
X160732021Y-61374285D01*
X160732021Y-61374285D02*
X160660592Y-61409999D01*
X160660592Y-61409999D02*
X160517735Y-61445713D01*
X160517735Y-61445713D02*
X160410592Y-61445713D01*
X160410592Y-61445713D02*
X160267735Y-61409999D01*
X160267735Y-61409999D02*
X160196307Y-61374285D01*
X160196307Y-61374285D02*
X160124878Y-61302856D01*
X160124878Y-61302856D02*
X160089164Y-61195713D01*
X160089164Y-61195713D02*
X160089164Y-61124285D01*
X160089164Y-61124285D02*
X160124878Y-61017142D01*
X160124878Y-61017142D02*
X160160592Y-60981428D01*
X160767735Y-60231428D02*
X160803450Y-60267142D01*
X160803450Y-60267142D02*
X160839164Y-60374285D01*
X160839164Y-60374285D02*
X160839164Y-60445713D01*
X160839164Y-60445713D02*
X160803450Y-60552856D01*
X160803450Y-60552856D02*
X160732021Y-60624285D01*
X160732021Y-60624285D02*
X160660592Y-60659999D01*
X160660592Y-60659999D02*
X160517735Y-60695713D01*
X160517735Y-60695713D02*
X160410592Y-60695713D01*
X160410592Y-60695713D02*
X160267735Y-60659999D01*
X160267735Y-60659999D02*
X160196307Y-60624285D01*
X160196307Y-60624285D02*
X160124878Y-60552856D01*
X160124878Y-60552856D02*
X160089164Y-60445713D01*
X160089164Y-60445713D02*
X160089164Y-60374285D01*
X160089164Y-60374285D02*
X160124878Y-60267142D01*
X160124878Y-60267142D02*
X160160592Y-60231428D01*
X134016667Y-93083200D02*
X134159524Y-93130819D01*
X134159524Y-93130819D02*
X134397619Y-93130819D01*
X134397619Y-93130819D02*
X134492857Y-93083200D01*
X134492857Y-93083200D02*
X134540476Y-93035580D01*
X134540476Y-93035580D02*
X134588095Y-92940342D01*
X134588095Y-92940342D02*
X134588095Y-92845104D01*
X134588095Y-92845104D02*
X134540476Y-92749866D01*
X134540476Y-92749866D02*
X134492857Y-92702247D01*
X134492857Y-92702247D02*
X134397619Y-92654628D01*
X134397619Y-92654628D02*
X134207143Y-92607009D01*
X134207143Y-92607009D02*
X134111905Y-92559390D01*
X134111905Y-92559390D02*
X134064286Y-92511771D01*
X134064286Y-92511771D02*
X134016667Y-92416533D01*
X134016667Y-92416533D02*
X134016667Y-92321295D01*
X134016667Y-92321295D02*
X134064286Y-92226057D01*
X134064286Y-92226057D02*
X134111905Y-92178438D01*
X134111905Y-92178438D02*
X134207143Y-92130819D01*
X134207143Y-92130819D02*
X134445238Y-92130819D01*
X134445238Y-92130819D02*
X134588095Y-92178438D01*
X134921429Y-92130819D02*
X135159524Y-93130819D01*
X135159524Y-93130819D02*
X135350000Y-92416533D01*
X135350000Y-92416533D02*
X135540476Y-93130819D01*
X135540476Y-93130819D02*
X135778572Y-92130819D01*
X136635714Y-92130819D02*
X136159524Y-92130819D01*
X136159524Y-92130819D02*
X136111905Y-92607009D01*
X136111905Y-92607009D02*
X136159524Y-92559390D01*
X136159524Y-92559390D02*
X136254762Y-92511771D01*
X136254762Y-92511771D02*
X136492857Y-92511771D01*
X136492857Y-92511771D02*
X136588095Y-92559390D01*
X136588095Y-92559390D02*
X136635714Y-92607009D01*
X136635714Y-92607009D02*
X136683333Y-92702247D01*
X136683333Y-92702247D02*
X136683333Y-92940342D01*
X136683333Y-92940342D02*
X136635714Y-93035580D01*
X136635714Y-93035580D02*
X136588095Y-93083200D01*
X136588095Y-93083200D02*
X136492857Y-93130819D01*
X136492857Y-93130819D02*
X136254762Y-93130819D01*
X136254762Y-93130819D02*
X136159524Y-93083200D01*
X136159524Y-93083200D02*
X136111905Y-93035580D01*
X153066667Y-74033200D02*
X153209524Y-74080819D01*
X153209524Y-74080819D02*
X153447619Y-74080819D01*
X153447619Y-74080819D02*
X153542857Y-74033200D01*
X153542857Y-74033200D02*
X153590476Y-73985580D01*
X153590476Y-73985580D02*
X153638095Y-73890342D01*
X153638095Y-73890342D02*
X153638095Y-73795104D01*
X153638095Y-73795104D02*
X153590476Y-73699866D01*
X153590476Y-73699866D02*
X153542857Y-73652247D01*
X153542857Y-73652247D02*
X153447619Y-73604628D01*
X153447619Y-73604628D02*
X153257143Y-73557009D01*
X153257143Y-73557009D02*
X153161905Y-73509390D01*
X153161905Y-73509390D02*
X153114286Y-73461771D01*
X153114286Y-73461771D02*
X153066667Y-73366533D01*
X153066667Y-73366533D02*
X153066667Y-73271295D01*
X153066667Y-73271295D02*
X153114286Y-73176057D01*
X153114286Y-73176057D02*
X153161905Y-73128438D01*
X153161905Y-73128438D02*
X153257143Y-73080819D01*
X153257143Y-73080819D02*
X153495238Y-73080819D01*
X153495238Y-73080819D02*
X153638095Y-73128438D01*
X153971429Y-73080819D02*
X154209524Y-74080819D01*
X154209524Y-74080819D02*
X154400000Y-73366533D01*
X154400000Y-73366533D02*
X154590476Y-74080819D01*
X154590476Y-74080819D02*
X154828572Y-73080819D01*
X155114286Y-73080819D02*
X155733333Y-73080819D01*
X155733333Y-73080819D02*
X155400000Y-73461771D01*
X155400000Y-73461771D02*
X155542857Y-73461771D01*
X155542857Y-73461771D02*
X155638095Y-73509390D01*
X155638095Y-73509390D02*
X155685714Y-73557009D01*
X155685714Y-73557009D02*
X155733333Y-73652247D01*
X155733333Y-73652247D02*
X155733333Y-73890342D01*
X155733333Y-73890342D02*
X155685714Y-73985580D01*
X155685714Y-73985580D02*
X155638095Y-74033200D01*
X155638095Y-74033200D02*
X155542857Y-74080819D01*
X155542857Y-74080819D02*
X155257143Y-74080819D01*
X155257143Y-74080819D02*
X155161905Y-74033200D01*
X155161905Y-74033200D02*
X155114286Y-73985580D01*
X114966667Y-112133200D02*
X115109524Y-112180819D01*
X115109524Y-112180819D02*
X115347619Y-112180819D01*
X115347619Y-112180819D02*
X115442857Y-112133200D01*
X115442857Y-112133200D02*
X115490476Y-112085580D01*
X115490476Y-112085580D02*
X115538095Y-111990342D01*
X115538095Y-111990342D02*
X115538095Y-111895104D01*
X115538095Y-111895104D02*
X115490476Y-111799866D01*
X115490476Y-111799866D02*
X115442857Y-111752247D01*
X115442857Y-111752247D02*
X115347619Y-111704628D01*
X115347619Y-111704628D02*
X115157143Y-111657009D01*
X115157143Y-111657009D02*
X115061905Y-111609390D01*
X115061905Y-111609390D02*
X115014286Y-111561771D01*
X115014286Y-111561771D02*
X114966667Y-111466533D01*
X114966667Y-111466533D02*
X114966667Y-111371295D01*
X114966667Y-111371295D02*
X115014286Y-111276057D01*
X115014286Y-111276057D02*
X115061905Y-111228438D01*
X115061905Y-111228438D02*
X115157143Y-111180819D01*
X115157143Y-111180819D02*
X115395238Y-111180819D01*
X115395238Y-111180819D02*
X115538095Y-111228438D01*
X115871429Y-111180819D02*
X116109524Y-112180819D01*
X116109524Y-112180819D02*
X116300000Y-111466533D01*
X116300000Y-111466533D02*
X116490476Y-112180819D01*
X116490476Y-112180819D02*
X116728572Y-111180819D01*
X117014286Y-111180819D02*
X117680952Y-111180819D01*
X117680952Y-111180819D02*
X117252381Y-112180819D01*
X133540476Y-131183200D02*
X133683333Y-131230819D01*
X133683333Y-131230819D02*
X133921428Y-131230819D01*
X133921428Y-131230819D02*
X134016666Y-131183200D01*
X134016666Y-131183200D02*
X134064285Y-131135580D01*
X134064285Y-131135580D02*
X134111904Y-131040342D01*
X134111904Y-131040342D02*
X134111904Y-130945104D01*
X134111904Y-130945104D02*
X134064285Y-130849866D01*
X134064285Y-130849866D02*
X134016666Y-130802247D01*
X134016666Y-130802247D02*
X133921428Y-130754628D01*
X133921428Y-130754628D02*
X133730952Y-130707009D01*
X133730952Y-130707009D02*
X133635714Y-130659390D01*
X133635714Y-130659390D02*
X133588095Y-130611771D01*
X133588095Y-130611771D02*
X133540476Y-130516533D01*
X133540476Y-130516533D02*
X133540476Y-130421295D01*
X133540476Y-130421295D02*
X133588095Y-130326057D01*
X133588095Y-130326057D02*
X133635714Y-130278438D01*
X133635714Y-130278438D02*
X133730952Y-130230819D01*
X133730952Y-130230819D02*
X133969047Y-130230819D01*
X133969047Y-130230819D02*
X134111904Y-130278438D01*
X134445238Y-130230819D02*
X134683333Y-131230819D01*
X134683333Y-131230819D02*
X134873809Y-130516533D01*
X134873809Y-130516533D02*
X135064285Y-131230819D01*
X135064285Y-131230819D02*
X135302381Y-130230819D01*
X136207142Y-131230819D02*
X135635714Y-131230819D01*
X135921428Y-131230819D02*
X135921428Y-130230819D01*
X135921428Y-130230819D02*
X135826190Y-130373676D01*
X135826190Y-130373676D02*
X135730952Y-130468914D01*
X135730952Y-130468914D02*
X135635714Y-130516533D01*
X137159523Y-131230819D02*
X136588095Y-131230819D01*
X136873809Y-131230819D02*
X136873809Y-130230819D01*
X136873809Y-130230819D02*
X136778571Y-130373676D01*
X136778571Y-130373676D02*
X136683333Y-130468914D01*
X136683333Y-130468914D02*
X136588095Y-130516533D01*
X134016667Y-74033200D02*
X134159524Y-74080819D01*
X134159524Y-74080819D02*
X134397619Y-74080819D01*
X134397619Y-74080819D02*
X134492857Y-74033200D01*
X134492857Y-74033200D02*
X134540476Y-73985580D01*
X134540476Y-73985580D02*
X134588095Y-73890342D01*
X134588095Y-73890342D02*
X134588095Y-73795104D01*
X134588095Y-73795104D02*
X134540476Y-73699866D01*
X134540476Y-73699866D02*
X134492857Y-73652247D01*
X134492857Y-73652247D02*
X134397619Y-73604628D01*
X134397619Y-73604628D02*
X134207143Y-73557009D01*
X134207143Y-73557009D02*
X134111905Y-73509390D01*
X134111905Y-73509390D02*
X134064286Y-73461771D01*
X134064286Y-73461771D02*
X134016667Y-73366533D01*
X134016667Y-73366533D02*
X134016667Y-73271295D01*
X134016667Y-73271295D02*
X134064286Y-73176057D01*
X134064286Y-73176057D02*
X134111905Y-73128438D01*
X134111905Y-73128438D02*
X134207143Y-73080819D01*
X134207143Y-73080819D02*
X134445238Y-73080819D01*
X134445238Y-73080819D02*
X134588095Y-73128438D01*
X134921429Y-73080819D02*
X135159524Y-74080819D01*
X135159524Y-74080819D02*
X135350000Y-73366533D01*
X135350000Y-73366533D02*
X135540476Y-74080819D01*
X135540476Y-74080819D02*
X135778572Y-73080819D01*
X136111905Y-73176057D02*
X136159524Y-73128438D01*
X136159524Y-73128438D02*
X136254762Y-73080819D01*
X136254762Y-73080819D02*
X136492857Y-73080819D01*
X136492857Y-73080819D02*
X136588095Y-73128438D01*
X136588095Y-73128438D02*
X136635714Y-73176057D01*
X136635714Y-73176057D02*
X136683333Y-73271295D01*
X136683333Y-73271295D02*
X136683333Y-73366533D01*
X136683333Y-73366533D02*
X136635714Y-73509390D01*
X136635714Y-73509390D02*
X136064286Y-74080819D01*
X136064286Y-74080819D02*
X136683333Y-74080819D01*
X153066667Y-112133200D02*
X153209524Y-112180819D01*
X153209524Y-112180819D02*
X153447619Y-112180819D01*
X153447619Y-112180819D02*
X153542857Y-112133200D01*
X153542857Y-112133200D02*
X153590476Y-112085580D01*
X153590476Y-112085580D02*
X153638095Y-111990342D01*
X153638095Y-111990342D02*
X153638095Y-111895104D01*
X153638095Y-111895104D02*
X153590476Y-111799866D01*
X153590476Y-111799866D02*
X153542857Y-111752247D01*
X153542857Y-111752247D02*
X153447619Y-111704628D01*
X153447619Y-111704628D02*
X153257143Y-111657009D01*
X153257143Y-111657009D02*
X153161905Y-111609390D01*
X153161905Y-111609390D02*
X153114286Y-111561771D01*
X153114286Y-111561771D02*
X153066667Y-111466533D01*
X153066667Y-111466533D02*
X153066667Y-111371295D01*
X153066667Y-111371295D02*
X153114286Y-111276057D01*
X153114286Y-111276057D02*
X153161905Y-111228438D01*
X153161905Y-111228438D02*
X153257143Y-111180819D01*
X153257143Y-111180819D02*
X153495238Y-111180819D01*
X153495238Y-111180819D02*
X153638095Y-111228438D01*
X153971429Y-111180819D02*
X154209524Y-112180819D01*
X154209524Y-112180819D02*
X154400000Y-111466533D01*
X154400000Y-111466533D02*
X154590476Y-112180819D01*
X154590476Y-112180819D02*
X154828572Y-111180819D01*
X155257143Y-112180819D02*
X155447619Y-112180819D01*
X155447619Y-112180819D02*
X155542857Y-112133200D01*
X155542857Y-112133200D02*
X155590476Y-112085580D01*
X155590476Y-112085580D02*
X155685714Y-111942723D01*
X155685714Y-111942723D02*
X155733333Y-111752247D01*
X155733333Y-111752247D02*
X155733333Y-111371295D01*
X155733333Y-111371295D02*
X155685714Y-111276057D01*
X155685714Y-111276057D02*
X155638095Y-111228438D01*
X155638095Y-111228438D02*
X155542857Y-111180819D01*
X155542857Y-111180819D02*
X155352381Y-111180819D01*
X155352381Y-111180819D02*
X155257143Y-111228438D01*
X155257143Y-111228438D02*
X155209524Y-111276057D01*
X155209524Y-111276057D02*
X155161905Y-111371295D01*
X155161905Y-111371295D02*
X155161905Y-111609390D01*
X155161905Y-111609390D02*
X155209524Y-111704628D01*
X155209524Y-111704628D02*
X155257143Y-111752247D01*
X155257143Y-111752247D02*
X155352381Y-111799866D01*
X155352381Y-111799866D02*
X155542857Y-111799866D01*
X155542857Y-111799866D02*
X155638095Y-111752247D01*
X155638095Y-111752247D02*
X155685714Y-111704628D01*
X155685714Y-111704628D02*
X155733333Y-111609390D01*
X114966667Y-93083200D02*
X115109524Y-93130819D01*
X115109524Y-93130819D02*
X115347619Y-93130819D01*
X115347619Y-93130819D02*
X115442857Y-93083200D01*
X115442857Y-93083200D02*
X115490476Y-93035580D01*
X115490476Y-93035580D02*
X115538095Y-92940342D01*
X115538095Y-92940342D02*
X115538095Y-92845104D01*
X115538095Y-92845104D02*
X115490476Y-92749866D01*
X115490476Y-92749866D02*
X115442857Y-92702247D01*
X115442857Y-92702247D02*
X115347619Y-92654628D01*
X115347619Y-92654628D02*
X115157143Y-92607009D01*
X115157143Y-92607009D02*
X115061905Y-92559390D01*
X115061905Y-92559390D02*
X115014286Y-92511771D01*
X115014286Y-92511771D02*
X114966667Y-92416533D01*
X114966667Y-92416533D02*
X114966667Y-92321295D01*
X114966667Y-92321295D02*
X115014286Y-92226057D01*
X115014286Y-92226057D02*
X115061905Y-92178438D01*
X115061905Y-92178438D02*
X115157143Y-92130819D01*
X115157143Y-92130819D02*
X115395238Y-92130819D01*
X115395238Y-92130819D02*
X115538095Y-92178438D01*
X115871429Y-92130819D02*
X116109524Y-93130819D01*
X116109524Y-93130819D02*
X116300000Y-92416533D01*
X116300000Y-92416533D02*
X116490476Y-93130819D01*
X116490476Y-93130819D02*
X116728572Y-92130819D01*
X117538095Y-92464152D02*
X117538095Y-93130819D01*
X117300000Y-92083200D02*
X117061905Y-92797485D01*
X117061905Y-92797485D02*
X117680952Y-92797485D01*
X153066667Y-93083200D02*
X153209524Y-93130819D01*
X153209524Y-93130819D02*
X153447619Y-93130819D01*
X153447619Y-93130819D02*
X153542857Y-93083200D01*
X153542857Y-93083200D02*
X153590476Y-93035580D01*
X153590476Y-93035580D02*
X153638095Y-92940342D01*
X153638095Y-92940342D02*
X153638095Y-92845104D01*
X153638095Y-92845104D02*
X153590476Y-92749866D01*
X153590476Y-92749866D02*
X153542857Y-92702247D01*
X153542857Y-92702247D02*
X153447619Y-92654628D01*
X153447619Y-92654628D02*
X153257143Y-92607009D01*
X153257143Y-92607009D02*
X153161905Y-92559390D01*
X153161905Y-92559390D02*
X153114286Y-92511771D01*
X153114286Y-92511771D02*
X153066667Y-92416533D01*
X153066667Y-92416533D02*
X153066667Y-92321295D01*
X153066667Y-92321295D02*
X153114286Y-92226057D01*
X153114286Y-92226057D02*
X153161905Y-92178438D01*
X153161905Y-92178438D02*
X153257143Y-92130819D01*
X153257143Y-92130819D02*
X153495238Y-92130819D01*
X153495238Y-92130819D02*
X153638095Y-92178438D01*
X153971429Y-92130819D02*
X154209524Y-93130819D01*
X154209524Y-93130819D02*
X154400000Y-92416533D01*
X154400000Y-92416533D02*
X154590476Y-93130819D01*
X154590476Y-93130819D02*
X154828572Y-92130819D01*
X155638095Y-92130819D02*
X155447619Y-92130819D01*
X155447619Y-92130819D02*
X155352381Y-92178438D01*
X155352381Y-92178438D02*
X155304762Y-92226057D01*
X155304762Y-92226057D02*
X155209524Y-92368914D01*
X155209524Y-92368914D02*
X155161905Y-92559390D01*
X155161905Y-92559390D02*
X155161905Y-92940342D01*
X155161905Y-92940342D02*
X155209524Y-93035580D01*
X155209524Y-93035580D02*
X155257143Y-93083200D01*
X155257143Y-93083200D02*
X155352381Y-93130819D01*
X155352381Y-93130819D02*
X155542857Y-93130819D01*
X155542857Y-93130819D02*
X155638095Y-93083200D01*
X155638095Y-93083200D02*
X155685714Y-93035580D01*
X155685714Y-93035580D02*
X155733333Y-92940342D01*
X155733333Y-92940342D02*
X155733333Y-92702247D01*
X155733333Y-92702247D02*
X155685714Y-92607009D01*
X155685714Y-92607009D02*
X155638095Y-92559390D01*
X155638095Y-92559390D02*
X155542857Y-92511771D01*
X155542857Y-92511771D02*
X155352381Y-92511771D01*
X155352381Y-92511771D02*
X155257143Y-92559390D01*
X155257143Y-92559390D02*
X155209524Y-92607009D01*
X155209524Y-92607009D02*
X155161905Y-92702247D01*
X134016667Y-112133200D02*
X134159524Y-112180819D01*
X134159524Y-112180819D02*
X134397619Y-112180819D01*
X134397619Y-112180819D02*
X134492857Y-112133200D01*
X134492857Y-112133200D02*
X134540476Y-112085580D01*
X134540476Y-112085580D02*
X134588095Y-111990342D01*
X134588095Y-111990342D02*
X134588095Y-111895104D01*
X134588095Y-111895104D02*
X134540476Y-111799866D01*
X134540476Y-111799866D02*
X134492857Y-111752247D01*
X134492857Y-111752247D02*
X134397619Y-111704628D01*
X134397619Y-111704628D02*
X134207143Y-111657009D01*
X134207143Y-111657009D02*
X134111905Y-111609390D01*
X134111905Y-111609390D02*
X134064286Y-111561771D01*
X134064286Y-111561771D02*
X134016667Y-111466533D01*
X134016667Y-111466533D02*
X134016667Y-111371295D01*
X134016667Y-111371295D02*
X134064286Y-111276057D01*
X134064286Y-111276057D02*
X134111905Y-111228438D01*
X134111905Y-111228438D02*
X134207143Y-111180819D01*
X134207143Y-111180819D02*
X134445238Y-111180819D01*
X134445238Y-111180819D02*
X134588095Y-111228438D01*
X134921429Y-111180819D02*
X135159524Y-112180819D01*
X135159524Y-112180819D02*
X135350000Y-111466533D01*
X135350000Y-111466533D02*
X135540476Y-112180819D01*
X135540476Y-112180819D02*
X135778572Y-111180819D01*
X136302381Y-111609390D02*
X136207143Y-111561771D01*
X136207143Y-111561771D02*
X136159524Y-111514152D01*
X136159524Y-111514152D02*
X136111905Y-111418914D01*
X136111905Y-111418914D02*
X136111905Y-111371295D01*
X136111905Y-111371295D02*
X136159524Y-111276057D01*
X136159524Y-111276057D02*
X136207143Y-111228438D01*
X136207143Y-111228438D02*
X136302381Y-111180819D01*
X136302381Y-111180819D02*
X136492857Y-111180819D01*
X136492857Y-111180819D02*
X136588095Y-111228438D01*
X136588095Y-111228438D02*
X136635714Y-111276057D01*
X136635714Y-111276057D02*
X136683333Y-111371295D01*
X136683333Y-111371295D02*
X136683333Y-111418914D01*
X136683333Y-111418914D02*
X136635714Y-111514152D01*
X136635714Y-111514152D02*
X136588095Y-111561771D01*
X136588095Y-111561771D02*
X136492857Y-111609390D01*
X136492857Y-111609390D02*
X136302381Y-111609390D01*
X136302381Y-111609390D02*
X136207143Y-111657009D01*
X136207143Y-111657009D02*
X136159524Y-111704628D01*
X136159524Y-111704628D02*
X136111905Y-111799866D01*
X136111905Y-111799866D02*
X136111905Y-111990342D01*
X136111905Y-111990342D02*
X136159524Y-112085580D01*
X136159524Y-112085580D02*
X136207143Y-112133200D01*
X136207143Y-112133200D02*
X136302381Y-112180819D01*
X136302381Y-112180819D02*
X136492857Y-112180819D01*
X136492857Y-112180819D02*
X136588095Y-112133200D01*
X136588095Y-112133200D02*
X136635714Y-112085580D01*
X136635714Y-112085580D02*
X136683333Y-111990342D01*
X136683333Y-111990342D02*
X136683333Y-111799866D01*
X136683333Y-111799866D02*
X136635714Y-111704628D01*
X136635714Y-111704628D02*
X136588095Y-111657009D01*
X136588095Y-111657009D02*
X136492857Y-111609390D01*
D12*
%TO.C,SW1*%
X108750000Y-77400000D02*
X109350000Y-77400000D01*
X109050000Y-77700000D02*
X108750000Y-77400000D01*
X109350000Y-77400000D02*
X109050000Y-77700000D01*
X110450000Y-75600000D02*
X110450000Y-87400000D01*
X114550000Y-75600000D02*
X110450000Y-75600000D01*
X114550000Y-87400000D02*
X110450000Y-87400000D01*
X116050000Y-81500000D02*
X117050000Y-81500000D01*
X116550000Y-81000000D02*
X116550000Y-82000000D01*
X118550000Y-75600000D02*
X122650000Y-75600000D01*
X122650000Y-75600000D02*
X122650000Y-78000000D01*
X122650000Y-80200000D02*
X122650000Y-82800000D01*
X122650000Y-85000000D02*
X122650000Y-87400000D01*
X122650000Y-87400000D02*
X118550000Y-87400000D01*
X119550000Y-81500000D02*
G75*
G02*
X113550000Y-81500000I-3000000J0D01*
G01*
X113550000Y-81500000D02*
G75*
G02*
X119550000Y-81500000I3000000J0D01*
G01*
%TO.C,SW10*%
X109315000Y-131665000D02*
X123285000Y-131665000D01*
X109315000Y-145635000D02*
X109315000Y-131665000D01*
X123285000Y-131665000D02*
X123285000Y-145635000D01*
X123285000Y-145635000D02*
X109315000Y-145635000D01*
%TO.C,SW12*%
X147415000Y-131665000D02*
X161385000Y-131665000D01*
X147415000Y-145635000D02*
X147415000Y-131665000D01*
X161385000Y-131665000D02*
X161385000Y-145635000D01*
X161385000Y-145635000D02*
X147415000Y-145635000D01*
D13*
%TO.C,J1*%
X126000000Y-56430000D02*
X126000000Y-68430000D01*
X126000000Y-68430000D02*
X164000000Y-68430000D01*
X129500000Y-56430000D02*
X129500000Y-68430000D01*
X159000000Y-56430000D02*
X159000000Y-68430000D01*
X164000000Y-56430000D02*
X126000000Y-56430000D01*
X164000000Y-68430000D02*
X164000000Y-56430000D01*
D12*
%TO.C,SW5*%
X128365000Y-93565000D02*
X142335000Y-93565000D01*
X128365000Y-107535000D02*
X128365000Y-93565000D01*
X142335000Y-93565000D02*
X142335000Y-107535000D01*
X142335000Y-107535000D02*
X128365000Y-107535000D01*
%TO.C,SW3*%
X147415000Y-74515000D02*
X161385000Y-74515000D01*
X147415000Y-88485000D02*
X147415000Y-74515000D01*
X161385000Y-74515000D02*
X161385000Y-88485000D01*
X161385000Y-88485000D02*
X147415000Y-88485000D01*
%TO.C,SW7*%
X109315000Y-112615000D02*
X123285000Y-112615000D01*
X109315000Y-126585000D02*
X109315000Y-112615000D01*
X123285000Y-112615000D02*
X123285000Y-126585000D01*
X123285000Y-126585000D02*
X109315000Y-126585000D01*
%TO.C,SW11*%
X128365000Y-131665000D02*
X142335000Y-131665000D01*
X128365000Y-145635000D02*
X128365000Y-131665000D01*
X142335000Y-131665000D02*
X142335000Y-145635000D01*
X142335000Y-145635000D02*
X128365000Y-145635000D01*
%TO.C,SW2*%
X128365000Y-74515000D02*
X142335000Y-74515000D01*
X128365000Y-88485000D02*
X128365000Y-74515000D01*
X142335000Y-74515000D02*
X142335000Y-88485000D01*
X142335000Y-88485000D02*
X128365000Y-88485000D01*
%TO.C,SW9*%
X147415000Y-112615000D02*
X161385000Y-112615000D01*
X147415000Y-126585000D02*
X147415000Y-112615000D01*
X161385000Y-112615000D02*
X161385000Y-126585000D01*
X161385000Y-126585000D02*
X147415000Y-126585000D01*
%TO.C,SW4*%
X109315000Y-93565000D02*
X123285000Y-93565000D01*
X109315000Y-107535000D02*
X109315000Y-93565000D01*
X123285000Y-93565000D02*
X123285000Y-107535000D01*
X123285000Y-107535000D02*
X109315000Y-107535000D01*
D14*
%TO.C,U1*%
X107110000Y-72109000D02*
X107110000Y-54964000D01*
X109015000Y-74014000D02*
X122985000Y-74014000D01*
X111505000Y-53059000D02*
X111508728Y-52148728D01*
X112008728Y-51649000D02*
X120004000Y-51649000D01*
X120504000Y-52149000D02*
X120504000Y-53059000D01*
D15*
X122985000Y-53059000D02*
X109015000Y-53059000D01*
D14*
X122985000Y-53059000D02*
X109015000Y-53059000D01*
X124890000Y-72109000D02*
X124890000Y-54964000D01*
X107110000Y-54964000D02*
G75*
G02*
X109015000Y-53059000I1905001J-1D01*
G01*
X109015000Y-74014000D02*
G75*
G02*
X107110000Y-72109000I1J1905001D01*
G01*
X111508728Y-52148728D02*
G75*
G02*
X112008728Y-51649001I500018J-291D01*
G01*
X120004000Y-51649000D02*
G75*
G02*
X120504000Y-52149000I0J-500000D01*
G01*
X122985000Y-53059000D02*
G75*
G02*
X124890000Y-54964000I0J-1905000D01*
G01*
X124890000Y-72109000D02*
G75*
G02*
X122985000Y-74014000I-1905000J0D01*
G01*
D16*
X107302000Y-53300000D02*
G75*
G02*
X106798000Y-53300000I-252000J0D01*
G01*
X106798000Y-53300000D02*
G75*
G02*
X107302000Y-53300000I252000J0D01*
G01*
X108445000Y-54180000D02*
G75*
G02*
X107941000Y-54180000I-252000J0D01*
G01*
X107941000Y-54180000D02*
G75*
G02*
X108445000Y-54180000I252000J0D01*
G01*
D12*
%TO.C,SW6*%
X147415000Y-93565000D02*
X161385000Y-93565000D01*
X147415000Y-107535000D02*
X147415000Y-93565000D01*
X161385000Y-93565000D02*
X161385000Y-107535000D01*
X161385000Y-107535000D02*
X147415000Y-107535000D01*
%TO.C,SW8*%
X128365000Y-112615000D02*
X142335000Y-112615000D01*
X128365000Y-126585000D02*
X128365000Y-112615000D01*
X142335000Y-112615000D02*
X142335000Y-126585000D01*
X142335000Y-126585000D02*
X128365000Y-126585000D01*
%TD*%
M02*
