%TF.GenerationSoftware,KiCad,Pcbnew,9.0.2*%
%TF.CreationDate,2025-06-30T15:09:24+08:00*%
%TF.ProjectId,flamepad,666c616d-6570-4616-942e-6b696361645f,rev?*%
%TF.SameCoordinates,Original*%
%TF.FileFunction,Drillmap*%
%TF.FilePolarity,Positive*%
%FSLAX45Y45*%
G04 Gerber Fmt 4.5, Leading zero omitted, Abs format (unit mm)*
G04 Created by KiCad (PCBNEW 9.0.2) date 2025-06-30 15:09:24*
%MOMM*%
%LPD*%
G01*
G04 APERTURE LIST*
%ADD10C,0.050000*%
%ADD11C,0.200000*%
%ADD12C,0.170000*%
%ADD13C,0.400000*%
G04 APERTURE END LIST*
D10*
X9671875Y-5305000D02*
X17438125Y-5305000D01*
X17438125Y-14993125D01*
X9671875Y-14993125D01*
X9671875Y-5305000D01*
D11*
D12*
X11037000Y-9970000D02*
X11207000Y-10140000D01*
X11207000Y-9970000D02*
X11037000Y-10140000D01*
X11037000Y-11875000D02*
X11207000Y-12045000D01*
X11207000Y-11875000D02*
X11037000Y-12045000D01*
X11037000Y-13780000D02*
X11207000Y-13950000D01*
X11207000Y-13780000D02*
X11037000Y-13950000D01*
X12053000Y-9970000D02*
X12223000Y-10140000D01*
X12223000Y-9970000D02*
X12053000Y-10140000D01*
X12053000Y-11875000D02*
X12223000Y-12045000D01*
X12223000Y-11875000D02*
X12053000Y-12045000D01*
X12053000Y-13780000D02*
X12223000Y-13950000D01*
X12223000Y-13780000D02*
X12053000Y-13950000D01*
X12942000Y-8065000D02*
X13112000Y-8235000D01*
X13112000Y-8065000D02*
X12942000Y-8235000D01*
X12942000Y-9970000D02*
X13112000Y-10140000D01*
X13112000Y-9970000D02*
X12942000Y-10140000D01*
X12942000Y-11875000D02*
X13112000Y-12045000D01*
X13112000Y-11875000D02*
X12942000Y-12045000D01*
X12942000Y-13780000D02*
X13112000Y-13950000D01*
X13112000Y-13780000D02*
X12942000Y-13950000D01*
X13958000Y-8065000D02*
X14128000Y-8235000D01*
X14128000Y-8065000D02*
X13958000Y-8235000D01*
X13958000Y-9970000D02*
X14128000Y-10140000D01*
X14128000Y-9970000D02*
X13958000Y-10140000D01*
X13958000Y-11875000D02*
X14128000Y-12045000D01*
X14128000Y-11875000D02*
X13958000Y-12045000D01*
X13958000Y-13780000D02*
X14128000Y-13950000D01*
X14128000Y-13780000D02*
X13958000Y-13950000D01*
X14847000Y-8065000D02*
X15017000Y-8235000D01*
X15017000Y-8065000D02*
X14847000Y-8235000D01*
X14847000Y-9970000D02*
X15017000Y-10140000D01*
X15017000Y-9970000D02*
X14847000Y-10140000D01*
X14847000Y-11875000D02*
X15017000Y-12045000D01*
X15017000Y-11875000D02*
X14847000Y-12045000D01*
X14847000Y-13780000D02*
X15017000Y-13950000D01*
X15017000Y-13780000D02*
X14847000Y-13950000D01*
X15863000Y-8065000D02*
X16033000Y-8235000D01*
X16033000Y-8065000D02*
X15863000Y-8235000D01*
X15863000Y-9970000D02*
X16033000Y-10140000D01*
X16033000Y-9970000D02*
X15863000Y-10140000D01*
X15863000Y-11875000D02*
X16033000Y-12045000D01*
X16033000Y-11875000D02*
X15863000Y-12045000D01*
X15863000Y-13780000D02*
X16033000Y-13950000D01*
X16033000Y-13780000D02*
X15863000Y-13950000D01*
D13*
X11830000Y-10055000D02*
G75*
G02*
X11430000Y-10055000I-200000J0D01*
G01*
X11430000Y-10055000D02*
G75*
G02*
X11830000Y-10055000I200000J0D01*
G01*
X11830000Y-11960000D02*
G75*
G02*
X11430000Y-11960000I-200000J0D01*
G01*
X11430000Y-11960000D02*
G75*
G02*
X11830000Y-11960000I200000J0D01*
G01*
X11830000Y-13865000D02*
G75*
G02*
X11430000Y-13865000I-200000J0D01*
G01*
X11430000Y-13865000D02*
G75*
G02*
X11830000Y-13865000I200000J0D01*
G01*
X13735000Y-8150000D02*
G75*
G02*
X13335000Y-8150000I-200000J0D01*
G01*
X13335000Y-8150000D02*
G75*
G02*
X13735000Y-8150000I200000J0D01*
G01*
X13735000Y-10055000D02*
G75*
G02*
X13335000Y-10055000I-200000J0D01*
G01*
X13335000Y-10055000D02*
G75*
G02*
X13735000Y-10055000I200000J0D01*
G01*
X13735000Y-11960000D02*
G75*
G02*
X13335000Y-11960000I-200000J0D01*
G01*
X13335000Y-11960000D02*
G75*
G02*
X13735000Y-11960000I200000J0D01*
G01*
X13735000Y-13865000D02*
G75*
G02*
X13335000Y-13865000I-200000J0D01*
G01*
X13335000Y-13865000D02*
G75*
G02*
X13735000Y-13865000I200000J0D01*
G01*
X15640000Y-8150000D02*
G75*
G02*
X15240000Y-8150000I-200000J0D01*
G01*
X15240000Y-8150000D02*
G75*
G02*
X15640000Y-8150000I200000J0D01*
G01*
X15640000Y-10055000D02*
G75*
G02*
X15240000Y-10055000I-200000J0D01*
G01*
X15240000Y-10055000D02*
G75*
G02*
X15640000Y-10055000I200000J0D01*
G01*
X15640000Y-11960000D02*
G75*
G02*
X15240000Y-11960000I-200000J0D01*
G01*
X15240000Y-11960000D02*
G75*
G02*
X15640000Y-11960000I200000J0D01*
G01*
X15640000Y-13865000D02*
G75*
G02*
X15240000Y-13865000I-200000J0D01*
G01*
X15240000Y-13865000D02*
G75*
G02*
X15640000Y-13865000I200000J0D01*
G01*
D11*
X9930152Y-15307109D02*
X9930152Y-15107109D01*
X9930152Y-15107109D02*
X9977771Y-15107109D01*
X9977771Y-15107109D02*
X10006342Y-15116633D01*
X10006342Y-15116633D02*
X10025390Y-15135680D01*
X10025390Y-15135680D02*
X10034914Y-15154728D01*
X10034914Y-15154728D02*
X10044438Y-15192823D01*
X10044438Y-15192823D02*
X10044438Y-15221394D01*
X10044438Y-15221394D02*
X10034914Y-15259490D01*
X10034914Y-15259490D02*
X10025390Y-15278537D01*
X10025390Y-15278537D02*
X10006342Y-15297585D01*
X10006342Y-15297585D02*
X9977771Y-15307109D01*
X9977771Y-15307109D02*
X9930152Y-15307109D01*
X10130152Y-15307109D02*
X10130152Y-15173775D01*
X10130152Y-15211871D02*
X10139676Y-15192823D01*
X10139676Y-15192823D02*
X10149199Y-15183299D01*
X10149199Y-15183299D02*
X10168247Y-15173775D01*
X10168247Y-15173775D02*
X10187295Y-15173775D01*
X10253961Y-15307109D02*
X10253961Y-15173775D01*
X10253961Y-15107109D02*
X10244438Y-15116633D01*
X10244438Y-15116633D02*
X10253961Y-15126156D01*
X10253961Y-15126156D02*
X10263485Y-15116633D01*
X10263485Y-15116633D02*
X10253961Y-15107109D01*
X10253961Y-15107109D02*
X10253961Y-15126156D01*
X10377771Y-15307109D02*
X10358723Y-15297585D01*
X10358723Y-15297585D02*
X10349199Y-15278537D01*
X10349199Y-15278537D02*
X10349199Y-15107109D01*
X10482533Y-15307109D02*
X10463485Y-15297585D01*
X10463485Y-15297585D02*
X10453961Y-15278537D01*
X10453961Y-15278537D02*
X10453961Y-15107109D01*
X10711104Y-15307109D02*
X10711104Y-15107109D01*
X10711104Y-15107109D02*
X10777771Y-15249966D01*
X10777771Y-15249966D02*
X10844438Y-15107109D01*
X10844438Y-15107109D02*
X10844438Y-15307109D01*
X11025390Y-15307109D02*
X11025390Y-15202347D01*
X11025390Y-15202347D02*
X11015866Y-15183299D01*
X11015866Y-15183299D02*
X10996819Y-15173775D01*
X10996819Y-15173775D02*
X10958723Y-15173775D01*
X10958723Y-15173775D02*
X10939676Y-15183299D01*
X11025390Y-15297585D02*
X11006342Y-15307109D01*
X11006342Y-15307109D02*
X10958723Y-15307109D01*
X10958723Y-15307109D02*
X10939676Y-15297585D01*
X10939676Y-15297585D02*
X10930152Y-15278537D01*
X10930152Y-15278537D02*
X10930152Y-15259490D01*
X10930152Y-15259490D02*
X10939676Y-15240442D01*
X10939676Y-15240442D02*
X10958723Y-15230918D01*
X10958723Y-15230918D02*
X11006342Y-15230918D01*
X11006342Y-15230918D02*
X11025390Y-15221394D01*
X11120628Y-15173775D02*
X11120628Y-15373775D01*
X11120628Y-15183299D02*
X11139676Y-15173775D01*
X11139676Y-15173775D02*
X11177771Y-15173775D01*
X11177771Y-15173775D02*
X11196818Y-15183299D01*
X11196818Y-15183299D02*
X11206342Y-15192823D01*
X11206342Y-15192823D02*
X11215866Y-15211871D01*
X11215866Y-15211871D02*
X11215866Y-15269013D01*
X11215866Y-15269013D02*
X11206342Y-15288061D01*
X11206342Y-15288061D02*
X11196818Y-15297585D01*
X11196818Y-15297585D02*
X11177771Y-15307109D01*
X11177771Y-15307109D02*
X11139676Y-15307109D01*
X11139676Y-15307109D02*
X11120628Y-15297585D01*
X11301580Y-15288061D02*
X11311104Y-15297585D01*
X11311104Y-15297585D02*
X11301580Y-15307109D01*
X11301580Y-15307109D02*
X11292057Y-15297585D01*
X11292057Y-15297585D02*
X11301580Y-15288061D01*
X11301580Y-15288061D02*
X11301580Y-15307109D01*
X11301580Y-15183299D02*
X11311104Y-15192823D01*
X11311104Y-15192823D02*
X11301580Y-15202347D01*
X11301580Y-15202347D02*
X11292057Y-15192823D01*
X11292057Y-15192823D02*
X11301580Y-15183299D01*
X11301580Y-15183299D02*
X11301580Y-15202347D01*
D12*
X9499375Y-15550625D02*
X9669375Y-15720625D01*
X9669375Y-15550625D02*
X9499375Y-15720625D01*
D11*
X10034914Y-15727109D02*
X9920628Y-15727109D01*
X9977771Y-15727109D02*
X9977771Y-15527109D01*
X9977771Y-15527109D02*
X9958723Y-15555680D01*
X9958723Y-15555680D02*
X9939676Y-15574728D01*
X9939676Y-15574728D02*
X9920628Y-15584252D01*
X10120628Y-15708061D02*
X10130152Y-15717585D01*
X10130152Y-15717585D02*
X10120628Y-15727109D01*
X10120628Y-15727109D02*
X10111104Y-15717585D01*
X10111104Y-15717585D02*
X10120628Y-15708061D01*
X10120628Y-15708061D02*
X10120628Y-15727109D01*
X10196819Y-15527109D02*
X10330152Y-15527109D01*
X10330152Y-15527109D02*
X10244438Y-15727109D01*
X10444438Y-15527109D02*
X10463485Y-15527109D01*
X10463485Y-15527109D02*
X10482533Y-15536633D01*
X10482533Y-15536633D02*
X10492057Y-15546156D01*
X10492057Y-15546156D02*
X10501580Y-15565204D01*
X10501580Y-15565204D02*
X10511104Y-15603299D01*
X10511104Y-15603299D02*
X10511104Y-15650918D01*
X10511104Y-15650918D02*
X10501580Y-15689013D01*
X10501580Y-15689013D02*
X10492057Y-15708061D01*
X10492057Y-15708061D02*
X10482533Y-15717585D01*
X10482533Y-15717585D02*
X10463485Y-15727109D01*
X10463485Y-15727109D02*
X10444438Y-15727109D01*
X10444438Y-15727109D02*
X10425390Y-15717585D01*
X10425390Y-15717585D02*
X10415866Y-15708061D01*
X10415866Y-15708061D02*
X10406342Y-15689013D01*
X10406342Y-15689013D02*
X10396819Y-15650918D01*
X10396819Y-15650918D02*
X10396819Y-15603299D01*
X10396819Y-15603299D02*
X10406342Y-15565204D01*
X10406342Y-15565204D02*
X10415866Y-15546156D01*
X10415866Y-15546156D02*
X10425390Y-15536633D01*
X10425390Y-15536633D02*
X10444438Y-15527109D01*
X10634914Y-15527109D02*
X10653961Y-15527109D01*
X10653961Y-15527109D02*
X10673009Y-15536633D01*
X10673009Y-15536633D02*
X10682533Y-15546156D01*
X10682533Y-15546156D02*
X10692057Y-15565204D01*
X10692057Y-15565204D02*
X10701580Y-15603299D01*
X10701580Y-15603299D02*
X10701580Y-15650918D01*
X10701580Y-15650918D02*
X10692057Y-15689013D01*
X10692057Y-15689013D02*
X10682533Y-15708061D01*
X10682533Y-15708061D02*
X10673009Y-15717585D01*
X10673009Y-15717585D02*
X10653961Y-15727109D01*
X10653961Y-15727109D02*
X10634914Y-15727109D01*
X10634914Y-15727109D02*
X10615866Y-15717585D01*
X10615866Y-15717585D02*
X10606342Y-15708061D01*
X10606342Y-15708061D02*
X10596819Y-15689013D01*
X10596819Y-15689013D02*
X10587295Y-15650918D01*
X10587295Y-15650918D02*
X10587295Y-15603299D01*
X10587295Y-15603299D02*
X10596819Y-15565204D01*
X10596819Y-15565204D02*
X10606342Y-15546156D01*
X10606342Y-15546156D02*
X10615866Y-15536633D01*
X10615866Y-15536633D02*
X10634914Y-15527109D01*
X10787295Y-15727109D02*
X10787295Y-15593775D01*
X10787295Y-15612823D02*
X10796819Y-15603299D01*
X10796819Y-15603299D02*
X10815866Y-15593775D01*
X10815866Y-15593775D02*
X10844438Y-15593775D01*
X10844438Y-15593775D02*
X10863485Y-15603299D01*
X10863485Y-15603299D02*
X10873009Y-15622347D01*
X10873009Y-15622347D02*
X10873009Y-15727109D01*
X10873009Y-15622347D02*
X10882533Y-15603299D01*
X10882533Y-15603299D02*
X10901580Y-15593775D01*
X10901580Y-15593775D02*
X10930152Y-15593775D01*
X10930152Y-15593775D02*
X10949200Y-15603299D01*
X10949200Y-15603299D02*
X10958723Y-15622347D01*
X10958723Y-15622347D02*
X10958723Y-15727109D01*
X11053961Y-15727109D02*
X11053961Y-15593775D01*
X11053961Y-15612823D02*
X11063485Y-15603299D01*
X11063485Y-15603299D02*
X11082533Y-15593775D01*
X11082533Y-15593775D02*
X11111104Y-15593775D01*
X11111104Y-15593775D02*
X11130152Y-15603299D01*
X11130152Y-15603299D02*
X11139676Y-15622347D01*
X11139676Y-15622347D02*
X11139676Y-15727109D01*
X11139676Y-15622347D02*
X11149200Y-15603299D01*
X11149200Y-15603299D02*
X11168247Y-15593775D01*
X11168247Y-15593775D02*
X11196818Y-15593775D01*
X11196818Y-15593775D02*
X11215866Y-15603299D01*
X11215866Y-15603299D02*
X11225390Y-15622347D01*
X11225390Y-15622347D02*
X11225390Y-15727109D01*
X11615866Y-15517585D02*
X11444438Y-15774728D01*
X11873009Y-15527109D02*
X11892057Y-15527109D01*
X11892057Y-15527109D02*
X11911104Y-15536633D01*
X11911104Y-15536633D02*
X11920628Y-15546156D01*
X11920628Y-15546156D02*
X11930152Y-15565204D01*
X11930152Y-15565204D02*
X11939676Y-15603299D01*
X11939676Y-15603299D02*
X11939676Y-15650918D01*
X11939676Y-15650918D02*
X11930152Y-15689013D01*
X11930152Y-15689013D02*
X11920628Y-15708061D01*
X11920628Y-15708061D02*
X11911104Y-15717585D01*
X11911104Y-15717585D02*
X11892057Y-15727109D01*
X11892057Y-15727109D02*
X11873009Y-15727109D01*
X11873009Y-15727109D02*
X11853961Y-15717585D01*
X11853961Y-15717585D02*
X11844438Y-15708061D01*
X11844438Y-15708061D02*
X11834914Y-15689013D01*
X11834914Y-15689013D02*
X11825390Y-15650918D01*
X11825390Y-15650918D02*
X11825390Y-15603299D01*
X11825390Y-15603299D02*
X11834914Y-15565204D01*
X11834914Y-15565204D02*
X11844438Y-15546156D01*
X11844438Y-15546156D02*
X11853961Y-15536633D01*
X11853961Y-15536633D02*
X11873009Y-15527109D01*
X12025390Y-15708061D02*
X12034914Y-15717585D01*
X12034914Y-15717585D02*
X12025390Y-15727109D01*
X12025390Y-15727109D02*
X12015866Y-15717585D01*
X12015866Y-15717585D02*
X12025390Y-15708061D01*
X12025390Y-15708061D02*
X12025390Y-15727109D01*
X12158723Y-15527109D02*
X12177771Y-15527109D01*
X12177771Y-15527109D02*
X12196819Y-15536633D01*
X12196819Y-15536633D02*
X12206342Y-15546156D01*
X12206342Y-15546156D02*
X12215866Y-15565204D01*
X12215866Y-15565204D02*
X12225390Y-15603299D01*
X12225390Y-15603299D02*
X12225390Y-15650918D01*
X12225390Y-15650918D02*
X12215866Y-15689013D01*
X12215866Y-15689013D02*
X12206342Y-15708061D01*
X12206342Y-15708061D02*
X12196819Y-15717585D01*
X12196819Y-15717585D02*
X12177771Y-15727109D01*
X12177771Y-15727109D02*
X12158723Y-15727109D01*
X12158723Y-15727109D02*
X12139676Y-15717585D01*
X12139676Y-15717585D02*
X12130152Y-15708061D01*
X12130152Y-15708061D02*
X12120628Y-15689013D01*
X12120628Y-15689013D02*
X12111104Y-15650918D01*
X12111104Y-15650918D02*
X12111104Y-15603299D01*
X12111104Y-15603299D02*
X12120628Y-15565204D01*
X12120628Y-15565204D02*
X12130152Y-15546156D01*
X12130152Y-15546156D02*
X12139676Y-15536633D01*
X12139676Y-15536633D02*
X12158723Y-15527109D01*
X12396819Y-15527109D02*
X12358723Y-15527109D01*
X12358723Y-15527109D02*
X12339676Y-15536633D01*
X12339676Y-15536633D02*
X12330152Y-15546156D01*
X12330152Y-15546156D02*
X12311104Y-15574728D01*
X12311104Y-15574728D02*
X12301581Y-15612823D01*
X12301581Y-15612823D02*
X12301581Y-15689013D01*
X12301581Y-15689013D02*
X12311104Y-15708061D01*
X12311104Y-15708061D02*
X12320628Y-15717585D01*
X12320628Y-15717585D02*
X12339676Y-15727109D01*
X12339676Y-15727109D02*
X12377771Y-15727109D01*
X12377771Y-15727109D02*
X12396819Y-15717585D01*
X12396819Y-15717585D02*
X12406342Y-15708061D01*
X12406342Y-15708061D02*
X12415866Y-15689013D01*
X12415866Y-15689013D02*
X12415866Y-15641394D01*
X12415866Y-15641394D02*
X12406342Y-15622347D01*
X12406342Y-15622347D02*
X12396819Y-15612823D01*
X12396819Y-15612823D02*
X12377771Y-15603299D01*
X12377771Y-15603299D02*
X12339676Y-15603299D01*
X12339676Y-15603299D02*
X12320628Y-15612823D01*
X12320628Y-15612823D02*
X12311104Y-15622347D01*
X12311104Y-15622347D02*
X12301581Y-15641394D01*
X12587295Y-15527109D02*
X12549200Y-15527109D01*
X12549200Y-15527109D02*
X12530152Y-15536633D01*
X12530152Y-15536633D02*
X12520628Y-15546156D01*
X12520628Y-15546156D02*
X12501581Y-15574728D01*
X12501581Y-15574728D02*
X12492057Y-15612823D01*
X12492057Y-15612823D02*
X12492057Y-15689013D01*
X12492057Y-15689013D02*
X12501581Y-15708061D01*
X12501581Y-15708061D02*
X12511104Y-15717585D01*
X12511104Y-15717585D02*
X12530152Y-15727109D01*
X12530152Y-15727109D02*
X12568247Y-15727109D01*
X12568247Y-15727109D02*
X12587295Y-15717585D01*
X12587295Y-15717585D02*
X12596819Y-15708061D01*
X12596819Y-15708061D02*
X12606342Y-15689013D01*
X12606342Y-15689013D02*
X12606342Y-15641394D01*
X12606342Y-15641394D02*
X12596819Y-15622347D01*
X12596819Y-15622347D02*
X12587295Y-15612823D01*
X12587295Y-15612823D02*
X12568247Y-15603299D01*
X12568247Y-15603299D02*
X12530152Y-15603299D01*
X12530152Y-15603299D02*
X12511104Y-15612823D01*
X12511104Y-15612823D02*
X12501581Y-15622347D01*
X12501581Y-15622347D02*
X12492057Y-15641394D01*
X12701581Y-15727109D02*
X12739676Y-15727109D01*
X12739676Y-15727109D02*
X12758723Y-15717585D01*
X12758723Y-15717585D02*
X12768247Y-15708061D01*
X12768247Y-15708061D02*
X12787295Y-15679490D01*
X12787295Y-15679490D02*
X12796819Y-15641394D01*
X12796819Y-15641394D02*
X12796819Y-15565204D01*
X12796819Y-15565204D02*
X12787295Y-15546156D01*
X12787295Y-15546156D02*
X12777771Y-15536633D01*
X12777771Y-15536633D02*
X12758723Y-15527109D01*
X12758723Y-15527109D02*
X12720628Y-15527109D01*
X12720628Y-15527109D02*
X12701581Y-15536633D01*
X12701581Y-15536633D02*
X12692057Y-15546156D01*
X12692057Y-15546156D02*
X12682533Y-15565204D01*
X12682533Y-15565204D02*
X12682533Y-15612823D01*
X12682533Y-15612823D02*
X12692057Y-15631871D01*
X12692057Y-15631871D02*
X12701581Y-15641394D01*
X12701581Y-15641394D02*
X12720628Y-15650918D01*
X12720628Y-15650918D02*
X12758723Y-15650918D01*
X12758723Y-15650918D02*
X12777771Y-15641394D01*
X12777771Y-15641394D02*
X12787295Y-15631871D01*
X12787295Y-15631871D02*
X12796819Y-15612823D01*
X12873009Y-15527109D02*
X12873009Y-15565204D01*
X12949200Y-15527109D02*
X12949200Y-15565204D01*
X13244438Y-15803299D02*
X13234914Y-15793775D01*
X13234914Y-15793775D02*
X13215866Y-15765204D01*
X13215866Y-15765204D02*
X13206343Y-15746156D01*
X13206343Y-15746156D02*
X13196819Y-15717585D01*
X13196819Y-15717585D02*
X13187295Y-15669966D01*
X13187295Y-15669966D02*
X13187295Y-15631871D01*
X13187295Y-15631871D02*
X13196819Y-15584252D01*
X13196819Y-15584252D02*
X13206343Y-15555680D01*
X13206343Y-15555680D02*
X13215866Y-15536633D01*
X13215866Y-15536633D02*
X13234914Y-15508061D01*
X13234914Y-15508061D02*
X13244438Y-15498537D01*
X13311104Y-15546156D02*
X13320628Y-15536633D01*
X13320628Y-15536633D02*
X13339676Y-15527109D01*
X13339676Y-15527109D02*
X13387295Y-15527109D01*
X13387295Y-15527109D02*
X13406343Y-15536633D01*
X13406343Y-15536633D02*
X13415866Y-15546156D01*
X13415866Y-15546156D02*
X13425390Y-15565204D01*
X13425390Y-15565204D02*
X13425390Y-15584252D01*
X13425390Y-15584252D02*
X13415866Y-15612823D01*
X13415866Y-15612823D02*
X13301581Y-15727109D01*
X13301581Y-15727109D02*
X13425390Y-15727109D01*
X13501581Y-15546156D02*
X13511104Y-15536633D01*
X13511104Y-15536633D02*
X13530152Y-15527109D01*
X13530152Y-15527109D02*
X13577771Y-15527109D01*
X13577771Y-15527109D02*
X13596819Y-15536633D01*
X13596819Y-15536633D02*
X13606343Y-15546156D01*
X13606343Y-15546156D02*
X13615866Y-15565204D01*
X13615866Y-15565204D02*
X13615866Y-15584252D01*
X13615866Y-15584252D02*
X13606343Y-15612823D01*
X13606343Y-15612823D02*
X13492057Y-15727109D01*
X13492057Y-15727109D02*
X13615866Y-15727109D01*
X13853962Y-15727109D02*
X13853962Y-15527109D01*
X13939676Y-15727109D02*
X13939676Y-15622347D01*
X13939676Y-15622347D02*
X13930152Y-15603299D01*
X13930152Y-15603299D02*
X13911105Y-15593775D01*
X13911105Y-15593775D02*
X13882533Y-15593775D01*
X13882533Y-15593775D02*
X13863485Y-15603299D01*
X13863485Y-15603299D02*
X13853962Y-15612823D01*
X14063485Y-15727109D02*
X14044438Y-15717585D01*
X14044438Y-15717585D02*
X14034914Y-15708061D01*
X14034914Y-15708061D02*
X14025390Y-15689013D01*
X14025390Y-15689013D02*
X14025390Y-15631871D01*
X14025390Y-15631871D02*
X14034914Y-15612823D01*
X14034914Y-15612823D02*
X14044438Y-15603299D01*
X14044438Y-15603299D02*
X14063485Y-15593775D01*
X14063485Y-15593775D02*
X14092057Y-15593775D01*
X14092057Y-15593775D02*
X14111105Y-15603299D01*
X14111105Y-15603299D02*
X14120628Y-15612823D01*
X14120628Y-15612823D02*
X14130152Y-15631871D01*
X14130152Y-15631871D02*
X14130152Y-15689013D01*
X14130152Y-15689013D02*
X14120628Y-15708061D01*
X14120628Y-15708061D02*
X14111105Y-15717585D01*
X14111105Y-15717585D02*
X14092057Y-15727109D01*
X14092057Y-15727109D02*
X14063485Y-15727109D01*
X14244438Y-15727109D02*
X14225390Y-15717585D01*
X14225390Y-15717585D02*
X14215866Y-15698537D01*
X14215866Y-15698537D02*
X14215866Y-15527109D01*
X14396819Y-15717585D02*
X14377771Y-15727109D01*
X14377771Y-15727109D02*
X14339676Y-15727109D01*
X14339676Y-15727109D02*
X14320628Y-15717585D01*
X14320628Y-15717585D02*
X14311105Y-15698537D01*
X14311105Y-15698537D02*
X14311105Y-15622347D01*
X14311105Y-15622347D02*
X14320628Y-15603299D01*
X14320628Y-15603299D02*
X14339676Y-15593775D01*
X14339676Y-15593775D02*
X14377771Y-15593775D01*
X14377771Y-15593775D02*
X14396819Y-15603299D01*
X14396819Y-15603299D02*
X14406343Y-15622347D01*
X14406343Y-15622347D02*
X14406343Y-15641394D01*
X14406343Y-15641394D02*
X14311105Y-15660442D01*
X14482533Y-15717585D02*
X14501581Y-15727109D01*
X14501581Y-15727109D02*
X14539676Y-15727109D01*
X14539676Y-15727109D02*
X14558724Y-15717585D01*
X14558724Y-15717585D02*
X14568247Y-15698537D01*
X14568247Y-15698537D02*
X14568247Y-15689013D01*
X14568247Y-15689013D02*
X14558724Y-15669966D01*
X14558724Y-15669966D02*
X14539676Y-15660442D01*
X14539676Y-15660442D02*
X14511105Y-15660442D01*
X14511105Y-15660442D02*
X14492057Y-15650918D01*
X14492057Y-15650918D02*
X14482533Y-15631871D01*
X14482533Y-15631871D02*
X14482533Y-15622347D01*
X14482533Y-15622347D02*
X14492057Y-15603299D01*
X14492057Y-15603299D02*
X14511105Y-15593775D01*
X14511105Y-15593775D02*
X14539676Y-15593775D01*
X14539676Y-15593775D02*
X14558724Y-15603299D01*
X14634914Y-15803299D02*
X14644438Y-15793775D01*
X14644438Y-15793775D02*
X14663486Y-15765204D01*
X14663486Y-15765204D02*
X14673009Y-15746156D01*
X14673009Y-15746156D02*
X14682533Y-15717585D01*
X14682533Y-15717585D02*
X14692057Y-15669966D01*
X14692057Y-15669966D02*
X14692057Y-15631871D01*
X14692057Y-15631871D02*
X14682533Y-15584252D01*
X14682533Y-15584252D02*
X14673009Y-15555680D01*
X14673009Y-15555680D02*
X14663486Y-15536633D01*
X14663486Y-15536633D02*
X14644438Y-15508061D01*
X14644438Y-15508061D02*
X14634914Y-15498537D01*
X14996819Y-15803299D02*
X14987295Y-15793775D01*
X14987295Y-15793775D02*
X14968247Y-15765204D01*
X14968247Y-15765204D02*
X14958724Y-15746156D01*
X14958724Y-15746156D02*
X14949200Y-15717585D01*
X14949200Y-15717585D02*
X14939676Y-15669966D01*
X14939676Y-15669966D02*
X14939676Y-15631871D01*
X14939676Y-15631871D02*
X14949200Y-15584252D01*
X14949200Y-15584252D02*
X14958724Y-15555680D01*
X14958724Y-15555680D02*
X14968247Y-15536633D01*
X14968247Y-15536633D02*
X14987295Y-15508061D01*
X14987295Y-15508061D02*
X14996819Y-15498537D01*
X15073009Y-15593775D02*
X15073009Y-15727109D01*
X15073009Y-15612823D02*
X15082533Y-15603299D01*
X15082533Y-15603299D02*
X15101581Y-15593775D01*
X15101581Y-15593775D02*
X15130152Y-15593775D01*
X15130152Y-15593775D02*
X15149200Y-15603299D01*
X15149200Y-15603299D02*
X15158724Y-15622347D01*
X15158724Y-15622347D02*
X15158724Y-15727109D01*
X15282533Y-15727109D02*
X15263486Y-15717585D01*
X15263486Y-15717585D02*
X15253962Y-15708061D01*
X15253962Y-15708061D02*
X15244438Y-15689013D01*
X15244438Y-15689013D02*
X15244438Y-15631871D01*
X15244438Y-15631871D02*
X15253962Y-15612823D01*
X15253962Y-15612823D02*
X15263486Y-15603299D01*
X15263486Y-15603299D02*
X15282533Y-15593775D01*
X15282533Y-15593775D02*
X15311105Y-15593775D01*
X15311105Y-15593775D02*
X15330152Y-15603299D01*
X15330152Y-15603299D02*
X15339676Y-15612823D01*
X15339676Y-15612823D02*
X15349200Y-15631871D01*
X15349200Y-15631871D02*
X15349200Y-15689013D01*
X15349200Y-15689013D02*
X15339676Y-15708061D01*
X15339676Y-15708061D02*
X15330152Y-15717585D01*
X15330152Y-15717585D02*
X15311105Y-15727109D01*
X15311105Y-15727109D02*
X15282533Y-15727109D01*
X15406343Y-15593775D02*
X15482533Y-15593775D01*
X15434914Y-15527109D02*
X15434914Y-15698537D01*
X15434914Y-15698537D02*
X15444438Y-15717585D01*
X15444438Y-15717585D02*
X15463486Y-15727109D01*
X15463486Y-15727109D02*
X15482533Y-15727109D01*
X15701581Y-15593775D02*
X15701581Y-15793775D01*
X15701581Y-15603299D02*
X15720628Y-15593775D01*
X15720628Y-15593775D02*
X15758724Y-15593775D01*
X15758724Y-15593775D02*
X15777771Y-15603299D01*
X15777771Y-15603299D02*
X15787295Y-15612823D01*
X15787295Y-15612823D02*
X15796819Y-15631871D01*
X15796819Y-15631871D02*
X15796819Y-15689013D01*
X15796819Y-15689013D02*
X15787295Y-15708061D01*
X15787295Y-15708061D02*
X15777771Y-15717585D01*
X15777771Y-15717585D02*
X15758724Y-15727109D01*
X15758724Y-15727109D02*
X15720628Y-15727109D01*
X15720628Y-15727109D02*
X15701581Y-15717585D01*
X15911105Y-15727109D02*
X15892057Y-15717585D01*
X15892057Y-15717585D02*
X15882533Y-15698537D01*
X15882533Y-15698537D02*
X15882533Y-15527109D01*
X16073009Y-15727109D02*
X16073009Y-15622347D01*
X16073009Y-15622347D02*
X16063486Y-15603299D01*
X16063486Y-15603299D02*
X16044438Y-15593775D01*
X16044438Y-15593775D02*
X16006343Y-15593775D01*
X16006343Y-15593775D02*
X15987295Y-15603299D01*
X16073009Y-15717585D02*
X16053962Y-15727109D01*
X16053962Y-15727109D02*
X16006343Y-15727109D01*
X16006343Y-15727109D02*
X15987295Y-15717585D01*
X15987295Y-15717585D02*
X15977771Y-15698537D01*
X15977771Y-15698537D02*
X15977771Y-15679490D01*
X15977771Y-15679490D02*
X15987295Y-15660442D01*
X15987295Y-15660442D02*
X16006343Y-15650918D01*
X16006343Y-15650918D02*
X16053962Y-15650918D01*
X16053962Y-15650918D02*
X16073009Y-15641394D01*
X16139676Y-15593775D02*
X16215867Y-15593775D01*
X16168248Y-15527109D02*
X16168248Y-15698537D01*
X16168248Y-15698537D02*
X16177771Y-15717585D01*
X16177771Y-15717585D02*
X16196819Y-15727109D01*
X16196819Y-15727109D02*
X16215867Y-15727109D01*
X16358724Y-15717585D02*
X16339676Y-15727109D01*
X16339676Y-15727109D02*
X16301581Y-15727109D01*
X16301581Y-15727109D02*
X16282533Y-15717585D01*
X16282533Y-15717585D02*
X16273009Y-15698537D01*
X16273009Y-15698537D02*
X16273009Y-15622347D01*
X16273009Y-15622347D02*
X16282533Y-15603299D01*
X16282533Y-15603299D02*
X16301581Y-15593775D01*
X16301581Y-15593775D02*
X16339676Y-15593775D01*
X16339676Y-15593775D02*
X16358724Y-15603299D01*
X16358724Y-15603299D02*
X16368248Y-15622347D01*
X16368248Y-15622347D02*
X16368248Y-15641394D01*
X16368248Y-15641394D02*
X16273009Y-15660442D01*
X16539676Y-15727109D02*
X16539676Y-15527109D01*
X16539676Y-15717585D02*
X16520629Y-15727109D01*
X16520629Y-15727109D02*
X16482533Y-15727109D01*
X16482533Y-15727109D02*
X16463486Y-15717585D01*
X16463486Y-15717585D02*
X16453962Y-15708061D01*
X16453962Y-15708061D02*
X16444438Y-15689013D01*
X16444438Y-15689013D02*
X16444438Y-15631871D01*
X16444438Y-15631871D02*
X16453962Y-15612823D01*
X16453962Y-15612823D02*
X16463486Y-15603299D01*
X16463486Y-15603299D02*
X16482533Y-15593775D01*
X16482533Y-15593775D02*
X16520629Y-15593775D01*
X16520629Y-15593775D02*
X16539676Y-15603299D01*
X16615867Y-15803299D02*
X16625390Y-15793775D01*
X16625390Y-15793775D02*
X16644438Y-15765204D01*
X16644438Y-15765204D02*
X16653962Y-15746156D01*
X16653962Y-15746156D02*
X16663486Y-15717585D01*
X16663486Y-15717585D02*
X16673009Y-15669966D01*
X16673009Y-15669966D02*
X16673009Y-15631871D01*
X16673009Y-15631871D02*
X16663486Y-15584252D01*
X16663486Y-15584252D02*
X16653962Y-15555680D01*
X16653962Y-15555680D02*
X16644438Y-15536633D01*
X16644438Y-15536633D02*
X16625390Y-15508061D01*
X16625390Y-15508061D02*
X16615867Y-15498537D01*
X9669375Y-15925625D02*
G75*
G02*
X9469375Y-15925625I-100000J0D01*
G01*
X9469375Y-15925625D02*
G75*
G02*
X9669375Y-15925625I100000J0D01*
G01*
X10015866Y-15883775D02*
X10015866Y-16017109D01*
X9968247Y-15807585D02*
X9920628Y-15950442D01*
X9920628Y-15950442D02*
X10044438Y-15950442D01*
X10120628Y-15998061D02*
X10130152Y-16007585D01*
X10130152Y-16007585D02*
X10120628Y-16017109D01*
X10120628Y-16017109D02*
X10111104Y-16007585D01*
X10111104Y-16007585D02*
X10120628Y-15998061D01*
X10120628Y-15998061D02*
X10120628Y-16017109D01*
X10253961Y-15817109D02*
X10273009Y-15817109D01*
X10273009Y-15817109D02*
X10292057Y-15826633D01*
X10292057Y-15826633D02*
X10301580Y-15836156D01*
X10301580Y-15836156D02*
X10311104Y-15855204D01*
X10311104Y-15855204D02*
X10320628Y-15893299D01*
X10320628Y-15893299D02*
X10320628Y-15940918D01*
X10320628Y-15940918D02*
X10311104Y-15979013D01*
X10311104Y-15979013D02*
X10301580Y-15998061D01*
X10301580Y-15998061D02*
X10292057Y-16007585D01*
X10292057Y-16007585D02*
X10273009Y-16017109D01*
X10273009Y-16017109D02*
X10253961Y-16017109D01*
X10253961Y-16017109D02*
X10234914Y-16007585D01*
X10234914Y-16007585D02*
X10225390Y-15998061D01*
X10225390Y-15998061D02*
X10215866Y-15979013D01*
X10215866Y-15979013D02*
X10206342Y-15940918D01*
X10206342Y-15940918D02*
X10206342Y-15893299D01*
X10206342Y-15893299D02*
X10215866Y-15855204D01*
X10215866Y-15855204D02*
X10225390Y-15836156D01*
X10225390Y-15836156D02*
X10234914Y-15826633D01*
X10234914Y-15826633D02*
X10253961Y-15817109D01*
X10444438Y-15817109D02*
X10463485Y-15817109D01*
X10463485Y-15817109D02*
X10482533Y-15826633D01*
X10482533Y-15826633D02*
X10492057Y-15836156D01*
X10492057Y-15836156D02*
X10501580Y-15855204D01*
X10501580Y-15855204D02*
X10511104Y-15893299D01*
X10511104Y-15893299D02*
X10511104Y-15940918D01*
X10511104Y-15940918D02*
X10501580Y-15979013D01*
X10501580Y-15979013D02*
X10492057Y-15998061D01*
X10492057Y-15998061D02*
X10482533Y-16007585D01*
X10482533Y-16007585D02*
X10463485Y-16017109D01*
X10463485Y-16017109D02*
X10444438Y-16017109D01*
X10444438Y-16017109D02*
X10425390Y-16007585D01*
X10425390Y-16007585D02*
X10415866Y-15998061D01*
X10415866Y-15998061D02*
X10406342Y-15979013D01*
X10406342Y-15979013D02*
X10396819Y-15940918D01*
X10396819Y-15940918D02*
X10396819Y-15893299D01*
X10396819Y-15893299D02*
X10406342Y-15855204D01*
X10406342Y-15855204D02*
X10415866Y-15836156D01*
X10415866Y-15836156D02*
X10425390Y-15826633D01*
X10425390Y-15826633D02*
X10444438Y-15817109D01*
X10634914Y-15817109D02*
X10653961Y-15817109D01*
X10653961Y-15817109D02*
X10673009Y-15826633D01*
X10673009Y-15826633D02*
X10682533Y-15836156D01*
X10682533Y-15836156D02*
X10692057Y-15855204D01*
X10692057Y-15855204D02*
X10701580Y-15893299D01*
X10701580Y-15893299D02*
X10701580Y-15940918D01*
X10701580Y-15940918D02*
X10692057Y-15979013D01*
X10692057Y-15979013D02*
X10682533Y-15998061D01*
X10682533Y-15998061D02*
X10673009Y-16007585D01*
X10673009Y-16007585D02*
X10653961Y-16017109D01*
X10653961Y-16017109D02*
X10634914Y-16017109D01*
X10634914Y-16017109D02*
X10615866Y-16007585D01*
X10615866Y-16007585D02*
X10606342Y-15998061D01*
X10606342Y-15998061D02*
X10596819Y-15979013D01*
X10596819Y-15979013D02*
X10587295Y-15940918D01*
X10587295Y-15940918D02*
X10587295Y-15893299D01*
X10587295Y-15893299D02*
X10596819Y-15855204D01*
X10596819Y-15855204D02*
X10606342Y-15836156D01*
X10606342Y-15836156D02*
X10615866Y-15826633D01*
X10615866Y-15826633D02*
X10634914Y-15817109D01*
X10787295Y-16017109D02*
X10787295Y-15883775D01*
X10787295Y-15902823D02*
X10796819Y-15893299D01*
X10796819Y-15893299D02*
X10815866Y-15883775D01*
X10815866Y-15883775D02*
X10844438Y-15883775D01*
X10844438Y-15883775D02*
X10863485Y-15893299D01*
X10863485Y-15893299D02*
X10873009Y-15912347D01*
X10873009Y-15912347D02*
X10873009Y-16017109D01*
X10873009Y-15912347D02*
X10882533Y-15893299D01*
X10882533Y-15893299D02*
X10901580Y-15883775D01*
X10901580Y-15883775D02*
X10930152Y-15883775D01*
X10930152Y-15883775D02*
X10949200Y-15893299D01*
X10949200Y-15893299D02*
X10958723Y-15912347D01*
X10958723Y-15912347D02*
X10958723Y-16017109D01*
X11053961Y-16017109D02*
X11053961Y-15883775D01*
X11053961Y-15902823D02*
X11063485Y-15893299D01*
X11063485Y-15893299D02*
X11082533Y-15883775D01*
X11082533Y-15883775D02*
X11111104Y-15883775D01*
X11111104Y-15883775D02*
X11130152Y-15893299D01*
X11130152Y-15893299D02*
X11139676Y-15912347D01*
X11139676Y-15912347D02*
X11139676Y-16017109D01*
X11139676Y-15912347D02*
X11149200Y-15893299D01*
X11149200Y-15893299D02*
X11168247Y-15883775D01*
X11168247Y-15883775D02*
X11196818Y-15883775D01*
X11196818Y-15883775D02*
X11215866Y-15893299D01*
X11215866Y-15893299D02*
X11225390Y-15912347D01*
X11225390Y-15912347D02*
X11225390Y-16017109D01*
X11615866Y-15807585D02*
X11444438Y-16064728D01*
X11873009Y-15817109D02*
X11892057Y-15817109D01*
X11892057Y-15817109D02*
X11911104Y-15826633D01*
X11911104Y-15826633D02*
X11920628Y-15836156D01*
X11920628Y-15836156D02*
X11930152Y-15855204D01*
X11930152Y-15855204D02*
X11939676Y-15893299D01*
X11939676Y-15893299D02*
X11939676Y-15940918D01*
X11939676Y-15940918D02*
X11930152Y-15979013D01*
X11930152Y-15979013D02*
X11920628Y-15998061D01*
X11920628Y-15998061D02*
X11911104Y-16007585D01*
X11911104Y-16007585D02*
X11892057Y-16017109D01*
X11892057Y-16017109D02*
X11873009Y-16017109D01*
X11873009Y-16017109D02*
X11853961Y-16007585D01*
X11853961Y-16007585D02*
X11844438Y-15998061D01*
X11844438Y-15998061D02*
X11834914Y-15979013D01*
X11834914Y-15979013D02*
X11825390Y-15940918D01*
X11825390Y-15940918D02*
X11825390Y-15893299D01*
X11825390Y-15893299D02*
X11834914Y-15855204D01*
X11834914Y-15855204D02*
X11844438Y-15836156D01*
X11844438Y-15836156D02*
X11853961Y-15826633D01*
X11853961Y-15826633D02*
X11873009Y-15817109D01*
X12025390Y-15998061D02*
X12034914Y-16007585D01*
X12034914Y-16007585D02*
X12025390Y-16017109D01*
X12025390Y-16017109D02*
X12015866Y-16007585D01*
X12015866Y-16007585D02*
X12025390Y-15998061D01*
X12025390Y-15998061D02*
X12025390Y-16017109D01*
X12225390Y-16017109D02*
X12111104Y-16017109D01*
X12168247Y-16017109D02*
X12168247Y-15817109D01*
X12168247Y-15817109D02*
X12149200Y-15845680D01*
X12149200Y-15845680D02*
X12130152Y-15864728D01*
X12130152Y-15864728D02*
X12111104Y-15874252D01*
X12406342Y-15817109D02*
X12311104Y-15817109D01*
X12311104Y-15817109D02*
X12301581Y-15912347D01*
X12301581Y-15912347D02*
X12311104Y-15902823D01*
X12311104Y-15902823D02*
X12330152Y-15893299D01*
X12330152Y-15893299D02*
X12377771Y-15893299D01*
X12377771Y-15893299D02*
X12396819Y-15902823D01*
X12396819Y-15902823D02*
X12406342Y-15912347D01*
X12406342Y-15912347D02*
X12415866Y-15931394D01*
X12415866Y-15931394D02*
X12415866Y-15979013D01*
X12415866Y-15979013D02*
X12406342Y-15998061D01*
X12406342Y-15998061D02*
X12396819Y-16007585D01*
X12396819Y-16007585D02*
X12377771Y-16017109D01*
X12377771Y-16017109D02*
X12330152Y-16017109D01*
X12330152Y-16017109D02*
X12311104Y-16007585D01*
X12311104Y-16007585D02*
X12301581Y-15998061D01*
X12482533Y-15817109D02*
X12615866Y-15817109D01*
X12615866Y-15817109D02*
X12530152Y-16017109D01*
X12787295Y-15817109D02*
X12692057Y-15817109D01*
X12692057Y-15817109D02*
X12682533Y-15912347D01*
X12682533Y-15912347D02*
X12692057Y-15902823D01*
X12692057Y-15902823D02*
X12711104Y-15893299D01*
X12711104Y-15893299D02*
X12758723Y-15893299D01*
X12758723Y-15893299D02*
X12777771Y-15902823D01*
X12777771Y-15902823D02*
X12787295Y-15912347D01*
X12787295Y-15912347D02*
X12796819Y-15931394D01*
X12796819Y-15931394D02*
X12796819Y-15979013D01*
X12796819Y-15979013D02*
X12787295Y-15998061D01*
X12787295Y-15998061D02*
X12777771Y-16007585D01*
X12777771Y-16007585D02*
X12758723Y-16017109D01*
X12758723Y-16017109D02*
X12711104Y-16017109D01*
X12711104Y-16017109D02*
X12692057Y-16007585D01*
X12692057Y-16007585D02*
X12682533Y-15998061D01*
X12873009Y-15817109D02*
X12873009Y-15855204D01*
X12949200Y-15817109D02*
X12949200Y-15855204D01*
X13244438Y-16093299D02*
X13234914Y-16083775D01*
X13234914Y-16083775D02*
X13215866Y-16055204D01*
X13215866Y-16055204D02*
X13206343Y-16036156D01*
X13206343Y-16036156D02*
X13196819Y-16007585D01*
X13196819Y-16007585D02*
X13187295Y-15959966D01*
X13187295Y-15959966D02*
X13187295Y-15921871D01*
X13187295Y-15921871D02*
X13196819Y-15874252D01*
X13196819Y-15874252D02*
X13206343Y-15845680D01*
X13206343Y-15845680D02*
X13215866Y-15826633D01*
X13215866Y-15826633D02*
X13234914Y-15798061D01*
X13234914Y-15798061D02*
X13244438Y-15788537D01*
X13425390Y-16017109D02*
X13311104Y-16017109D01*
X13368247Y-16017109D02*
X13368247Y-15817109D01*
X13368247Y-15817109D02*
X13349200Y-15845680D01*
X13349200Y-15845680D02*
X13330152Y-15864728D01*
X13330152Y-15864728D02*
X13311104Y-15874252D01*
X13615866Y-16017109D02*
X13501581Y-16017109D01*
X13558723Y-16017109D02*
X13558723Y-15817109D01*
X13558723Y-15817109D02*
X13539676Y-15845680D01*
X13539676Y-15845680D02*
X13520628Y-15864728D01*
X13520628Y-15864728D02*
X13501581Y-15874252D01*
X13853962Y-16017109D02*
X13853962Y-15817109D01*
X13939676Y-16017109D02*
X13939676Y-15912347D01*
X13939676Y-15912347D02*
X13930152Y-15893299D01*
X13930152Y-15893299D02*
X13911105Y-15883775D01*
X13911105Y-15883775D02*
X13882533Y-15883775D01*
X13882533Y-15883775D02*
X13863485Y-15893299D01*
X13863485Y-15893299D02*
X13853962Y-15902823D01*
X14063485Y-16017109D02*
X14044438Y-16007585D01*
X14044438Y-16007585D02*
X14034914Y-15998061D01*
X14034914Y-15998061D02*
X14025390Y-15979013D01*
X14025390Y-15979013D02*
X14025390Y-15921871D01*
X14025390Y-15921871D02*
X14034914Y-15902823D01*
X14034914Y-15902823D02*
X14044438Y-15893299D01*
X14044438Y-15893299D02*
X14063485Y-15883775D01*
X14063485Y-15883775D02*
X14092057Y-15883775D01*
X14092057Y-15883775D02*
X14111105Y-15893299D01*
X14111105Y-15893299D02*
X14120628Y-15902823D01*
X14120628Y-15902823D02*
X14130152Y-15921871D01*
X14130152Y-15921871D02*
X14130152Y-15979013D01*
X14130152Y-15979013D02*
X14120628Y-15998061D01*
X14120628Y-15998061D02*
X14111105Y-16007585D01*
X14111105Y-16007585D02*
X14092057Y-16017109D01*
X14092057Y-16017109D02*
X14063485Y-16017109D01*
X14244438Y-16017109D02*
X14225390Y-16007585D01*
X14225390Y-16007585D02*
X14215866Y-15988537D01*
X14215866Y-15988537D02*
X14215866Y-15817109D01*
X14396819Y-16007585D02*
X14377771Y-16017109D01*
X14377771Y-16017109D02*
X14339676Y-16017109D01*
X14339676Y-16017109D02*
X14320628Y-16007585D01*
X14320628Y-16007585D02*
X14311105Y-15988537D01*
X14311105Y-15988537D02*
X14311105Y-15912347D01*
X14311105Y-15912347D02*
X14320628Y-15893299D01*
X14320628Y-15893299D02*
X14339676Y-15883775D01*
X14339676Y-15883775D02*
X14377771Y-15883775D01*
X14377771Y-15883775D02*
X14396819Y-15893299D01*
X14396819Y-15893299D02*
X14406343Y-15912347D01*
X14406343Y-15912347D02*
X14406343Y-15931394D01*
X14406343Y-15931394D02*
X14311105Y-15950442D01*
X14482533Y-16007585D02*
X14501581Y-16017109D01*
X14501581Y-16017109D02*
X14539676Y-16017109D01*
X14539676Y-16017109D02*
X14558724Y-16007585D01*
X14558724Y-16007585D02*
X14568247Y-15988537D01*
X14568247Y-15988537D02*
X14568247Y-15979013D01*
X14568247Y-15979013D02*
X14558724Y-15959966D01*
X14558724Y-15959966D02*
X14539676Y-15950442D01*
X14539676Y-15950442D02*
X14511105Y-15950442D01*
X14511105Y-15950442D02*
X14492057Y-15940918D01*
X14492057Y-15940918D02*
X14482533Y-15921871D01*
X14482533Y-15921871D02*
X14482533Y-15912347D01*
X14482533Y-15912347D02*
X14492057Y-15893299D01*
X14492057Y-15893299D02*
X14511105Y-15883775D01*
X14511105Y-15883775D02*
X14539676Y-15883775D01*
X14539676Y-15883775D02*
X14558724Y-15893299D01*
X14634914Y-16093299D02*
X14644438Y-16083775D01*
X14644438Y-16083775D02*
X14663486Y-16055204D01*
X14663486Y-16055204D02*
X14673009Y-16036156D01*
X14673009Y-16036156D02*
X14682533Y-16007585D01*
X14682533Y-16007585D02*
X14692057Y-15959966D01*
X14692057Y-15959966D02*
X14692057Y-15921871D01*
X14692057Y-15921871D02*
X14682533Y-15874252D01*
X14682533Y-15874252D02*
X14673009Y-15845680D01*
X14673009Y-15845680D02*
X14663486Y-15826633D01*
X14663486Y-15826633D02*
X14644438Y-15798061D01*
X14644438Y-15798061D02*
X14634914Y-15788537D01*
X14996819Y-16093299D02*
X14987295Y-16083775D01*
X14987295Y-16083775D02*
X14968247Y-16055204D01*
X14968247Y-16055204D02*
X14958724Y-16036156D01*
X14958724Y-16036156D02*
X14949200Y-16007585D01*
X14949200Y-16007585D02*
X14939676Y-15959966D01*
X14939676Y-15959966D02*
X14939676Y-15921871D01*
X14939676Y-15921871D02*
X14949200Y-15874252D01*
X14949200Y-15874252D02*
X14958724Y-15845680D01*
X14958724Y-15845680D02*
X14968247Y-15826633D01*
X14968247Y-15826633D02*
X14987295Y-15798061D01*
X14987295Y-15798061D02*
X14996819Y-15788537D01*
X15073009Y-15883775D02*
X15073009Y-16017109D01*
X15073009Y-15902823D02*
X15082533Y-15893299D01*
X15082533Y-15893299D02*
X15101581Y-15883775D01*
X15101581Y-15883775D02*
X15130152Y-15883775D01*
X15130152Y-15883775D02*
X15149200Y-15893299D01*
X15149200Y-15893299D02*
X15158724Y-15912347D01*
X15158724Y-15912347D02*
X15158724Y-16017109D01*
X15282533Y-16017109D02*
X15263486Y-16007585D01*
X15263486Y-16007585D02*
X15253962Y-15998061D01*
X15253962Y-15998061D02*
X15244438Y-15979013D01*
X15244438Y-15979013D02*
X15244438Y-15921871D01*
X15244438Y-15921871D02*
X15253962Y-15902823D01*
X15253962Y-15902823D02*
X15263486Y-15893299D01*
X15263486Y-15893299D02*
X15282533Y-15883775D01*
X15282533Y-15883775D02*
X15311105Y-15883775D01*
X15311105Y-15883775D02*
X15330152Y-15893299D01*
X15330152Y-15893299D02*
X15339676Y-15902823D01*
X15339676Y-15902823D02*
X15349200Y-15921871D01*
X15349200Y-15921871D02*
X15349200Y-15979013D01*
X15349200Y-15979013D02*
X15339676Y-15998061D01*
X15339676Y-15998061D02*
X15330152Y-16007585D01*
X15330152Y-16007585D02*
X15311105Y-16017109D01*
X15311105Y-16017109D02*
X15282533Y-16017109D01*
X15406343Y-15883775D02*
X15482533Y-15883775D01*
X15434914Y-15817109D02*
X15434914Y-15988537D01*
X15434914Y-15988537D02*
X15444438Y-16007585D01*
X15444438Y-16007585D02*
X15463486Y-16017109D01*
X15463486Y-16017109D02*
X15482533Y-16017109D01*
X15701581Y-15883775D02*
X15701581Y-16083775D01*
X15701581Y-15893299D02*
X15720628Y-15883775D01*
X15720628Y-15883775D02*
X15758724Y-15883775D01*
X15758724Y-15883775D02*
X15777771Y-15893299D01*
X15777771Y-15893299D02*
X15787295Y-15902823D01*
X15787295Y-15902823D02*
X15796819Y-15921871D01*
X15796819Y-15921871D02*
X15796819Y-15979013D01*
X15796819Y-15979013D02*
X15787295Y-15998061D01*
X15787295Y-15998061D02*
X15777771Y-16007585D01*
X15777771Y-16007585D02*
X15758724Y-16017109D01*
X15758724Y-16017109D02*
X15720628Y-16017109D01*
X15720628Y-16017109D02*
X15701581Y-16007585D01*
X15911105Y-16017109D02*
X15892057Y-16007585D01*
X15892057Y-16007585D02*
X15882533Y-15988537D01*
X15882533Y-15988537D02*
X15882533Y-15817109D01*
X16073009Y-16017109D02*
X16073009Y-15912347D01*
X16073009Y-15912347D02*
X16063486Y-15893299D01*
X16063486Y-15893299D02*
X16044438Y-15883775D01*
X16044438Y-15883775D02*
X16006343Y-15883775D01*
X16006343Y-15883775D02*
X15987295Y-15893299D01*
X16073009Y-16007585D02*
X16053962Y-16017109D01*
X16053962Y-16017109D02*
X16006343Y-16017109D01*
X16006343Y-16017109D02*
X15987295Y-16007585D01*
X15987295Y-16007585D02*
X15977771Y-15988537D01*
X15977771Y-15988537D02*
X15977771Y-15969490D01*
X15977771Y-15969490D02*
X15987295Y-15950442D01*
X15987295Y-15950442D02*
X16006343Y-15940918D01*
X16006343Y-15940918D02*
X16053962Y-15940918D01*
X16053962Y-15940918D02*
X16073009Y-15931394D01*
X16139676Y-15883775D02*
X16215867Y-15883775D01*
X16168248Y-15817109D02*
X16168248Y-15988537D01*
X16168248Y-15988537D02*
X16177771Y-16007585D01*
X16177771Y-16007585D02*
X16196819Y-16017109D01*
X16196819Y-16017109D02*
X16215867Y-16017109D01*
X16358724Y-16007585D02*
X16339676Y-16017109D01*
X16339676Y-16017109D02*
X16301581Y-16017109D01*
X16301581Y-16017109D02*
X16282533Y-16007585D01*
X16282533Y-16007585D02*
X16273009Y-15988537D01*
X16273009Y-15988537D02*
X16273009Y-15912347D01*
X16273009Y-15912347D02*
X16282533Y-15893299D01*
X16282533Y-15893299D02*
X16301581Y-15883775D01*
X16301581Y-15883775D02*
X16339676Y-15883775D01*
X16339676Y-15883775D02*
X16358724Y-15893299D01*
X16358724Y-15893299D02*
X16368248Y-15912347D01*
X16368248Y-15912347D02*
X16368248Y-15931394D01*
X16368248Y-15931394D02*
X16273009Y-15950442D01*
X16539676Y-16017109D02*
X16539676Y-15817109D01*
X16539676Y-16007585D02*
X16520629Y-16017109D01*
X16520629Y-16017109D02*
X16482533Y-16017109D01*
X16482533Y-16017109D02*
X16463486Y-16007585D01*
X16463486Y-16007585D02*
X16453962Y-15998061D01*
X16453962Y-15998061D02*
X16444438Y-15979013D01*
X16444438Y-15979013D02*
X16444438Y-15921871D01*
X16444438Y-15921871D02*
X16453962Y-15902823D01*
X16453962Y-15902823D02*
X16463486Y-15893299D01*
X16463486Y-15893299D02*
X16482533Y-15883775D01*
X16482533Y-15883775D02*
X16520629Y-15883775D01*
X16520629Y-15883775D02*
X16539676Y-15893299D01*
X16615867Y-16093299D02*
X16625390Y-16083775D01*
X16625390Y-16083775D02*
X16644438Y-16055204D01*
X16644438Y-16055204D02*
X16653962Y-16036156D01*
X16653962Y-16036156D02*
X16663486Y-16007585D01*
X16663486Y-16007585D02*
X16673009Y-15959966D01*
X16673009Y-15959966D02*
X16673009Y-15921871D01*
X16673009Y-15921871D02*
X16663486Y-15874252D01*
X16663486Y-15874252D02*
X16653962Y-15845680D01*
X16653962Y-15845680D02*
X16644438Y-15826633D01*
X16644438Y-15826633D02*
X16625390Y-15798061D01*
X16625390Y-15798061D02*
X16615867Y-15788537D01*
M02*
