M48
; DRILL file {KiCad 9.0.2} date 2025-06-30T15:09:24+0800
; FORMAT={-:-/ absolute / metric / decimal}
; #@! TF.CreationDate,2025-06-30T15:09:24+08:00
; #@! TF.GenerationSoftware,Kicad,Pcbnew,9.0.2
; #@! TF.FileFunction,Plated,1,2,PTH
FMAT,2
METRIC
; #@! TA.AperFunction,Plated,PTH,ViaDrill
T1C0.300
; #@! TA.AperFunction,Plated,PTH,ComponentDrill
T2C0.800
; #@! TA.AperFunction,Plated,PTH,ComponentDrill
T3C0.889
; #@! TA.AperFunction,Plated,PTH,ComponentDrill
T4C1.000
; #@! TA.AperFunction,Plated,PTH,ComponentDrill
T5C1.500
%
G90
G05
T1
X113.88Y-62.8
X115.4Y-69.6
X116.1Y-67.1
X117.8Y-68.8
X124.6Y-77.0
X125.356Y-76.402
X138.8Y-78.36
T2
X125.825Y-96.74
X125.825Y-104.36
X125.825Y-115.79
X125.825Y-123.41
X125.825Y-134.927
X125.825Y-142.547
X144.875Y-77.69
X144.875Y-85.31
X144.875Y-96.74
X144.875Y-104.36
X144.875Y-115.79
X144.875Y-123.41
X144.875Y-134.84
X144.875Y-142.46
X163.925Y-77.69
X163.925Y-85.31
X163.925Y-96.74
X163.925Y-104.36
X163.925Y-115.828
X163.925Y-123.447
X163.925Y-134.84
X163.925Y-142.46
X168.688Y-77.69
X168.688Y-85.31
T3
X108.38Y-55.98
X108.38Y-58.52
X108.38Y-61.06
X108.38Y-63.6
X108.38Y-66.14
X108.38Y-68.68
X108.38Y-71.22
X123.62Y-55.98
X123.62Y-58.52
X123.62Y-61.06
X123.62Y-63.6
X123.62Y-66.14
X123.62Y-68.68
X123.62Y-71.22
T4
X109.05Y-79.0
X109.05Y-81.5
X109.05Y-84.0
X123.55Y-79.0
X123.55Y-84.0
X162.5Y-58.62
X162.5Y-61.16
X162.5Y-63.7
X162.5Y-66.24
T5
X112.49Y-98.01
X112.49Y-117.06
X112.49Y-136.11
X118.84Y-95.47
X118.84Y-114.52
X118.84Y-133.57
X131.54Y-78.96
X131.54Y-98.01
X131.54Y-117.06
X131.54Y-136.11
X137.89Y-76.42
X137.89Y-95.47
X137.89Y-114.52
X137.89Y-133.57
X150.59Y-78.96
X150.59Y-98.01
X150.59Y-117.06
X150.59Y-136.11
X156.94Y-76.42
X156.94Y-95.47
X156.94Y-114.52
X156.94Y-133.57
T5
X115.9Y-75.9G85X117.2Y-75.9
G05
X115.9Y-87.1G85X117.2Y-87.1
G05
M30
