%TF.GenerationSoftware,KiCad,Pcbnew,9.0.2*%
%TF.CreationDate,2025-06-30T15:09:24+08:00*%
%TF.ProjectId,flamepad,666c616d-6570-4616-942e-6b696361645f,rev?*%
%TF.SameCoordinates,Original*%
%TF.FileFunction,Drillmap*%
%TF.FilePolarity,Positive*%
%FSLAX45Y45*%
G04 Gerber Fmt 4.5, Leading zero omitted, Abs format (unit mm)*
G04 Created by KiCad (PCBNEW 9.0.2) date 2025-06-30 15:09:24*
%MOMM*%
%LPD*%
G01*
G04 APERTURE LIST*
%ADD10C,0.050000*%
%ADD11C,0.200000*%
%ADD12C,0.100000*%
%ADD13C,0.150000*%
G04 APERTURE END LIST*
D10*
X9671875Y-5305000D02*
X17438125Y-5305000D01*
X17438125Y-14993125D01*
X9671875Y-14993125D01*
X9671875Y-5305000D01*
D11*
D12*
X11373000Y-6265000D02*
X11403000Y-6295000D01*
X11403000Y-6265000D02*
X11373000Y-6295000D01*
X11525000Y-6945000D02*
X11555000Y-6975000D01*
X11555000Y-6945000D02*
X11525000Y-6975000D01*
X11595000Y-6695000D02*
X11625000Y-6725000D01*
X11625000Y-6695000D02*
X11595000Y-6725000D01*
X11765000Y-6865000D02*
X11795000Y-6895000D01*
X11795000Y-6865000D02*
X11765000Y-6895000D01*
X12445000Y-7685000D02*
X12475000Y-7715000D01*
X12475000Y-7685000D02*
X12445000Y-7715000D01*
X12520632Y-7625171D02*
X12550632Y-7655171D01*
X12550632Y-7625171D02*
X12520632Y-7655171D01*
X13865000Y-7821000D02*
X13895000Y-7851000D01*
X13895000Y-7821000D02*
X13865000Y-7851000D01*
X12622500Y-9674000D02*
G75*
G02*
X12542500Y-9674000I-40000J0D01*
G01*
X12542500Y-9674000D02*
G75*
G02*
X12622500Y-9674000I40000J0D01*
G01*
X12622500Y-10436000D02*
G75*
G02*
X12542500Y-10436000I-40000J0D01*
G01*
X12542500Y-10436000D02*
G75*
G02*
X12622500Y-10436000I40000J0D01*
G01*
X12622500Y-11579000D02*
G75*
G02*
X12542500Y-11579000I-40000J0D01*
G01*
X12542500Y-11579000D02*
G75*
G02*
X12622500Y-11579000I40000J0D01*
G01*
X12622500Y-12341000D02*
G75*
G02*
X12542500Y-12341000I-40000J0D01*
G01*
X12542500Y-12341000D02*
G75*
G02*
X12622500Y-12341000I40000J0D01*
G01*
X12622500Y-13492750D02*
G75*
G02*
X12542500Y-13492750I-40000J0D01*
G01*
X12542500Y-13492750D02*
G75*
G02*
X12622500Y-13492750I40000J0D01*
G01*
X12622500Y-14254750D02*
G75*
G02*
X12542500Y-14254750I-40000J0D01*
G01*
X12542500Y-14254750D02*
G75*
G02*
X12622500Y-14254750I40000J0D01*
G01*
X14527500Y-7769000D02*
G75*
G02*
X14447500Y-7769000I-40000J0D01*
G01*
X14447500Y-7769000D02*
G75*
G02*
X14527500Y-7769000I40000J0D01*
G01*
X14527500Y-8531000D02*
G75*
G02*
X14447500Y-8531000I-40000J0D01*
G01*
X14447500Y-8531000D02*
G75*
G02*
X14527500Y-8531000I40000J0D01*
G01*
X14527500Y-9674000D02*
G75*
G02*
X14447500Y-9674000I-40000J0D01*
G01*
X14447500Y-9674000D02*
G75*
G02*
X14527500Y-9674000I40000J0D01*
G01*
X14527500Y-10436000D02*
G75*
G02*
X14447500Y-10436000I-40000J0D01*
G01*
X14447500Y-10436000D02*
G75*
G02*
X14527500Y-10436000I40000J0D01*
G01*
X14527500Y-11579000D02*
G75*
G02*
X14447500Y-11579000I-40000J0D01*
G01*
X14447500Y-11579000D02*
G75*
G02*
X14527500Y-11579000I40000J0D01*
G01*
X14527500Y-12341000D02*
G75*
G02*
X14447500Y-12341000I-40000J0D01*
G01*
X14447500Y-12341000D02*
G75*
G02*
X14527500Y-12341000I40000J0D01*
G01*
X14527500Y-13484000D02*
G75*
G02*
X14447500Y-13484000I-40000J0D01*
G01*
X14447500Y-13484000D02*
G75*
G02*
X14527500Y-13484000I40000J0D01*
G01*
X14527500Y-14246000D02*
G75*
G02*
X14447500Y-14246000I-40000J0D01*
G01*
X14447500Y-14246000D02*
G75*
G02*
X14527500Y-14246000I40000J0D01*
G01*
X16432500Y-7769000D02*
G75*
G02*
X16352500Y-7769000I-40000J0D01*
G01*
X16352500Y-7769000D02*
G75*
G02*
X16432500Y-7769000I40000J0D01*
G01*
X16432500Y-8531000D02*
G75*
G02*
X16352500Y-8531000I-40000J0D01*
G01*
X16352500Y-8531000D02*
G75*
G02*
X16432500Y-8531000I40000J0D01*
G01*
X16432500Y-9674000D02*
G75*
G02*
X16352500Y-9674000I-40000J0D01*
G01*
X16352500Y-9674000D02*
G75*
G02*
X16432500Y-9674000I40000J0D01*
G01*
X16432500Y-10436000D02*
G75*
G02*
X16352500Y-10436000I-40000J0D01*
G01*
X16352500Y-10436000D02*
G75*
G02*
X16432500Y-10436000I40000J0D01*
G01*
X16432500Y-11582750D02*
G75*
G02*
X16352500Y-11582750I-40000J0D01*
G01*
X16352500Y-11582750D02*
G75*
G02*
X16432500Y-11582750I40000J0D01*
G01*
X16432500Y-12344750D02*
G75*
G02*
X16352500Y-12344750I-40000J0D01*
G01*
X16352500Y-12344750D02*
G75*
G02*
X16432500Y-12344750I40000J0D01*
G01*
X16432500Y-13484000D02*
G75*
G02*
X16352500Y-13484000I-40000J0D01*
G01*
X16352500Y-13484000D02*
G75*
G02*
X16432500Y-13484000I40000J0D01*
G01*
X16432500Y-14246000D02*
G75*
G02*
X16352500Y-14246000I-40000J0D01*
G01*
X16352500Y-14246000D02*
G75*
G02*
X16432500Y-14246000I40000J0D01*
G01*
X16908750Y-7769000D02*
G75*
G02*
X16828750Y-7769000I-40000J0D01*
G01*
X16828750Y-7769000D02*
G75*
G02*
X16908750Y-7769000I40000J0D01*
G01*
X16908750Y-8531000D02*
G75*
G02*
X16828750Y-8531000I-40000J0D01*
G01*
X16828750Y-8531000D02*
G75*
G02*
X16908750Y-8531000I40000J0D01*
G01*
X10838000Y-5553550D02*
X10838000Y-5642450D01*
X10793550Y-5598000D02*
X10882450Y-5598000D01*
X10838000Y-5807550D02*
X10838000Y-5896450D01*
X10793550Y-5852000D02*
X10882450Y-5852000D01*
X10838000Y-6061550D02*
X10838000Y-6150450D01*
X10793550Y-6106000D02*
X10882450Y-6106000D01*
X10838000Y-6315550D02*
X10838000Y-6404450D01*
X10793550Y-6360000D02*
X10882450Y-6360000D01*
X10838000Y-6569550D02*
X10838000Y-6658450D01*
X10793550Y-6614000D02*
X10882450Y-6614000D01*
X10838000Y-6823550D02*
X10838000Y-6912450D01*
X10793550Y-6868000D02*
X10882450Y-6868000D01*
X10838000Y-7077550D02*
X10838000Y-7166450D01*
X10793550Y-7122000D02*
X10882450Y-7122000D01*
X12362000Y-5553550D02*
X12362000Y-5642450D01*
X12317550Y-5598000D02*
X12406450Y-5598000D01*
X12362000Y-5807550D02*
X12362000Y-5896450D01*
X12317550Y-5852000D02*
X12406450Y-5852000D01*
X12362000Y-6061550D02*
X12362000Y-6150450D01*
X12317550Y-6106000D02*
X12406450Y-6106000D01*
X12362000Y-6315550D02*
X12362000Y-6404450D01*
X12317550Y-6360000D02*
X12406450Y-6360000D01*
X12362000Y-6569550D02*
X12362000Y-6658450D01*
X12317550Y-6614000D02*
X12406450Y-6614000D01*
X12362000Y-6823550D02*
X12362000Y-6912450D01*
X12317550Y-6868000D02*
X12406450Y-6868000D01*
X12362000Y-7077550D02*
X12362000Y-7166450D01*
X12317550Y-7122000D02*
X12406450Y-7122000D01*
X10940356Y-7935356D02*
X10940356Y-7864644D01*
X10869644Y-7864644D01*
X10869644Y-7935356D01*
X10940356Y-7935356D01*
X10940356Y-8185356D02*
X10940356Y-8114644D01*
X10869644Y-8114644D01*
X10869644Y-8185356D01*
X10940356Y-8185356D01*
X10940356Y-8435356D02*
X10940356Y-8364644D01*
X10869644Y-8364644D01*
X10869644Y-8435356D01*
X10940356Y-8435356D01*
X12390356Y-7935356D02*
X12390356Y-7864644D01*
X12319644Y-7864644D01*
X12319644Y-7935356D01*
X12390356Y-7935356D01*
X12390356Y-8435356D02*
X12390356Y-8364644D01*
X12319644Y-8364644D01*
X12319644Y-8435356D01*
X12390356Y-8435356D01*
X16285356Y-5897356D02*
X16285356Y-5826644D01*
X16214644Y-5826644D01*
X16214644Y-5897356D01*
X16285356Y-5897356D01*
X16285356Y-6151356D02*
X16285356Y-6080644D01*
X16214644Y-6080644D01*
X16214644Y-6151356D01*
X16285356Y-6151356D01*
X16285356Y-6405356D02*
X16285356Y-6334644D01*
X16214644Y-6334644D01*
X16214644Y-6405356D01*
X16285356Y-6405356D01*
X16285356Y-6659356D02*
X16285356Y-6588644D01*
X16214644Y-6588644D01*
X16214644Y-6659356D01*
X16285356Y-6659356D01*
D13*
X11249000Y-9876000D02*
X11324000Y-9801000D01*
X11249000Y-9726000D01*
X11174000Y-9801000D01*
X11249000Y-9876000D01*
X11249000Y-11781000D02*
X11324000Y-11706000D01*
X11249000Y-11631000D01*
X11174000Y-11706000D01*
X11249000Y-11781000D01*
X11249000Y-13686000D02*
X11324000Y-13611000D01*
X11249000Y-13536000D01*
X11174000Y-13611000D01*
X11249000Y-13686000D01*
X11655000Y-7665000D02*
X11730000Y-7590000D01*
X11655000Y-7515000D01*
X11580000Y-7590000D01*
X11655000Y-7665000D01*
D12*
X11590000Y-7665000D02*
X11720000Y-7665000D01*
X11720000Y-7515000D02*
G75*
G02*
X11720000Y-7665000I0J-75000D01*
G01*
X11720000Y-7515000D02*
X11590000Y-7515000D01*
X11590000Y-7515000D02*
G75*
G03*
X11590000Y-7665000I0J-75000D01*
G01*
D13*
X11655000Y-8785000D02*
X11730000Y-8710000D01*
X11655000Y-8635000D01*
X11580000Y-8710000D01*
X11655000Y-8785000D01*
D12*
X11590000Y-8785000D02*
X11720000Y-8785000D01*
X11720000Y-8635000D02*
G75*
G02*
X11720000Y-8785000I0J-75000D01*
G01*
X11720000Y-8635000D02*
X11590000Y-8635000D01*
X11590000Y-8635000D02*
G75*
G03*
X11590000Y-8785000I0J-75000D01*
G01*
D13*
X11884000Y-9622000D02*
X11959000Y-9547000D01*
X11884000Y-9472000D01*
X11809000Y-9547000D01*
X11884000Y-9622000D01*
X11884000Y-11527000D02*
X11959000Y-11452000D01*
X11884000Y-11377000D01*
X11809000Y-11452000D01*
X11884000Y-11527000D01*
X11884000Y-13432000D02*
X11959000Y-13357000D01*
X11884000Y-13282000D01*
X11809000Y-13357000D01*
X11884000Y-13432000D01*
X13154000Y-7971000D02*
X13229000Y-7896000D01*
X13154000Y-7821000D01*
X13079000Y-7896000D01*
X13154000Y-7971000D01*
X13154000Y-9876000D02*
X13229000Y-9801000D01*
X13154000Y-9726000D01*
X13079000Y-9801000D01*
X13154000Y-9876000D01*
X13154000Y-11781000D02*
X13229000Y-11706000D01*
X13154000Y-11631000D01*
X13079000Y-11706000D01*
X13154000Y-11781000D01*
X13154000Y-13686000D02*
X13229000Y-13611000D01*
X13154000Y-13536000D01*
X13079000Y-13611000D01*
X13154000Y-13686000D01*
X13789000Y-7717000D02*
X13864000Y-7642000D01*
X13789000Y-7567000D01*
X13714000Y-7642000D01*
X13789000Y-7717000D01*
X13789000Y-9622000D02*
X13864000Y-9547000D01*
X13789000Y-9472000D01*
X13714000Y-9547000D01*
X13789000Y-9622000D01*
X13789000Y-11527000D02*
X13864000Y-11452000D01*
X13789000Y-11377000D01*
X13714000Y-11452000D01*
X13789000Y-11527000D01*
X13789000Y-13432000D02*
X13864000Y-13357000D01*
X13789000Y-13282000D01*
X13714000Y-13357000D01*
X13789000Y-13432000D01*
X15059000Y-7971000D02*
X15134000Y-7896000D01*
X15059000Y-7821000D01*
X14984000Y-7896000D01*
X15059000Y-7971000D01*
X15059000Y-9876000D02*
X15134000Y-9801000D01*
X15059000Y-9726000D01*
X14984000Y-9801000D01*
X15059000Y-9876000D01*
X15059000Y-11781000D02*
X15134000Y-11706000D01*
X15059000Y-11631000D01*
X14984000Y-11706000D01*
X15059000Y-11781000D01*
X15059000Y-13686000D02*
X15134000Y-13611000D01*
X15059000Y-13536000D01*
X14984000Y-13611000D01*
X15059000Y-13686000D01*
X15694000Y-7717000D02*
X15769000Y-7642000D01*
X15694000Y-7567000D01*
X15619000Y-7642000D01*
X15694000Y-7717000D01*
X15694000Y-9622000D02*
X15769000Y-9547000D01*
X15694000Y-9472000D01*
X15619000Y-9547000D01*
X15694000Y-9622000D01*
X15694000Y-11527000D02*
X15769000Y-11452000D01*
X15694000Y-11377000D01*
X15619000Y-11452000D01*
X15694000Y-11527000D01*
X15694000Y-13432000D02*
X15769000Y-13357000D01*
X15694000Y-13282000D01*
X15619000Y-13357000D01*
X15694000Y-13432000D01*
D11*
X9930152Y-15307109D02*
X9930152Y-15107109D01*
X9930152Y-15107109D02*
X9977771Y-15107109D01*
X9977771Y-15107109D02*
X10006342Y-15116633D01*
X10006342Y-15116633D02*
X10025390Y-15135680D01*
X10025390Y-15135680D02*
X10034914Y-15154728D01*
X10034914Y-15154728D02*
X10044438Y-15192823D01*
X10044438Y-15192823D02*
X10044438Y-15221394D01*
X10044438Y-15221394D02*
X10034914Y-15259490D01*
X10034914Y-15259490D02*
X10025390Y-15278537D01*
X10025390Y-15278537D02*
X10006342Y-15297585D01*
X10006342Y-15297585D02*
X9977771Y-15307109D01*
X9977771Y-15307109D02*
X9930152Y-15307109D01*
X10130152Y-15307109D02*
X10130152Y-15173775D01*
X10130152Y-15211871D02*
X10139676Y-15192823D01*
X10139676Y-15192823D02*
X10149199Y-15183299D01*
X10149199Y-15183299D02*
X10168247Y-15173775D01*
X10168247Y-15173775D02*
X10187295Y-15173775D01*
X10253961Y-15307109D02*
X10253961Y-15173775D01*
X10253961Y-15107109D02*
X10244438Y-15116633D01*
X10244438Y-15116633D02*
X10253961Y-15126156D01*
X10253961Y-15126156D02*
X10263485Y-15116633D01*
X10263485Y-15116633D02*
X10253961Y-15107109D01*
X10253961Y-15107109D02*
X10253961Y-15126156D01*
X10377771Y-15307109D02*
X10358723Y-15297585D01*
X10358723Y-15297585D02*
X10349199Y-15278537D01*
X10349199Y-15278537D02*
X10349199Y-15107109D01*
X10482533Y-15307109D02*
X10463485Y-15297585D01*
X10463485Y-15297585D02*
X10453961Y-15278537D01*
X10453961Y-15278537D02*
X10453961Y-15107109D01*
X10711104Y-15307109D02*
X10711104Y-15107109D01*
X10711104Y-15107109D02*
X10777771Y-15249966D01*
X10777771Y-15249966D02*
X10844438Y-15107109D01*
X10844438Y-15107109D02*
X10844438Y-15307109D01*
X11025390Y-15307109D02*
X11025390Y-15202347D01*
X11025390Y-15202347D02*
X11015866Y-15183299D01*
X11015866Y-15183299D02*
X10996819Y-15173775D01*
X10996819Y-15173775D02*
X10958723Y-15173775D01*
X10958723Y-15173775D02*
X10939676Y-15183299D01*
X11025390Y-15297585D02*
X11006342Y-15307109D01*
X11006342Y-15307109D02*
X10958723Y-15307109D01*
X10958723Y-15307109D02*
X10939676Y-15297585D01*
X10939676Y-15297585D02*
X10930152Y-15278537D01*
X10930152Y-15278537D02*
X10930152Y-15259490D01*
X10930152Y-15259490D02*
X10939676Y-15240442D01*
X10939676Y-15240442D02*
X10958723Y-15230918D01*
X10958723Y-15230918D02*
X11006342Y-15230918D01*
X11006342Y-15230918D02*
X11025390Y-15221394D01*
X11120628Y-15173775D02*
X11120628Y-15373775D01*
X11120628Y-15183299D02*
X11139676Y-15173775D01*
X11139676Y-15173775D02*
X11177771Y-15173775D01*
X11177771Y-15173775D02*
X11196818Y-15183299D01*
X11196818Y-15183299D02*
X11206342Y-15192823D01*
X11206342Y-15192823D02*
X11215866Y-15211871D01*
X11215866Y-15211871D02*
X11215866Y-15269013D01*
X11215866Y-15269013D02*
X11206342Y-15288061D01*
X11206342Y-15288061D02*
X11196818Y-15297585D01*
X11196818Y-15297585D02*
X11177771Y-15307109D01*
X11177771Y-15307109D02*
X11139676Y-15307109D01*
X11139676Y-15307109D02*
X11120628Y-15297585D01*
X11301580Y-15288061D02*
X11311104Y-15297585D01*
X11311104Y-15297585D02*
X11301580Y-15307109D01*
X11301580Y-15307109D02*
X11292057Y-15297585D01*
X11292057Y-15297585D02*
X11301580Y-15288061D01*
X11301580Y-15288061D02*
X11301580Y-15307109D01*
X11301580Y-15183299D02*
X11311104Y-15192823D01*
X11311104Y-15192823D02*
X11301580Y-15202347D01*
X11301580Y-15202347D02*
X11292057Y-15192823D01*
X11292057Y-15192823D02*
X11301580Y-15183299D01*
X11301580Y-15183299D02*
X11301580Y-15202347D01*
D12*
X9639375Y-15620625D02*
X9669375Y-15650625D01*
X9669375Y-15620625D02*
X9639375Y-15650625D01*
D11*
X9968247Y-15527109D02*
X9987295Y-15527109D01*
X9987295Y-15527109D02*
X10006342Y-15536633D01*
X10006342Y-15536633D02*
X10015866Y-15546156D01*
X10015866Y-15546156D02*
X10025390Y-15565204D01*
X10025390Y-15565204D02*
X10034914Y-15603299D01*
X10034914Y-15603299D02*
X10034914Y-15650918D01*
X10034914Y-15650918D02*
X10025390Y-15689013D01*
X10025390Y-15689013D02*
X10015866Y-15708061D01*
X10015866Y-15708061D02*
X10006342Y-15717585D01*
X10006342Y-15717585D02*
X9987295Y-15727109D01*
X9987295Y-15727109D02*
X9968247Y-15727109D01*
X9968247Y-15727109D02*
X9949199Y-15717585D01*
X9949199Y-15717585D02*
X9939676Y-15708061D01*
X9939676Y-15708061D02*
X9930152Y-15689013D01*
X9930152Y-15689013D02*
X9920628Y-15650918D01*
X9920628Y-15650918D02*
X9920628Y-15603299D01*
X9920628Y-15603299D02*
X9930152Y-15565204D01*
X9930152Y-15565204D02*
X9939676Y-15546156D01*
X9939676Y-15546156D02*
X9949199Y-15536633D01*
X9949199Y-15536633D02*
X9968247Y-15527109D01*
X10120628Y-15708061D02*
X10130152Y-15717585D01*
X10130152Y-15717585D02*
X10120628Y-15727109D01*
X10120628Y-15727109D02*
X10111104Y-15717585D01*
X10111104Y-15717585D02*
X10120628Y-15708061D01*
X10120628Y-15708061D02*
X10120628Y-15727109D01*
X10196819Y-15527109D02*
X10320628Y-15527109D01*
X10320628Y-15527109D02*
X10253961Y-15603299D01*
X10253961Y-15603299D02*
X10282533Y-15603299D01*
X10282533Y-15603299D02*
X10301580Y-15612823D01*
X10301580Y-15612823D02*
X10311104Y-15622347D01*
X10311104Y-15622347D02*
X10320628Y-15641394D01*
X10320628Y-15641394D02*
X10320628Y-15689013D01*
X10320628Y-15689013D02*
X10311104Y-15708061D01*
X10311104Y-15708061D02*
X10301580Y-15717585D01*
X10301580Y-15717585D02*
X10282533Y-15727109D01*
X10282533Y-15727109D02*
X10225390Y-15727109D01*
X10225390Y-15727109D02*
X10206342Y-15717585D01*
X10206342Y-15717585D02*
X10196819Y-15708061D01*
X10444438Y-15527109D02*
X10463485Y-15527109D01*
X10463485Y-15527109D02*
X10482533Y-15536633D01*
X10482533Y-15536633D02*
X10492057Y-15546156D01*
X10492057Y-15546156D02*
X10501580Y-15565204D01*
X10501580Y-15565204D02*
X10511104Y-15603299D01*
X10511104Y-15603299D02*
X10511104Y-15650918D01*
X10511104Y-15650918D02*
X10501580Y-15689013D01*
X10501580Y-15689013D02*
X10492057Y-15708061D01*
X10492057Y-15708061D02*
X10482533Y-15717585D01*
X10482533Y-15717585D02*
X10463485Y-15727109D01*
X10463485Y-15727109D02*
X10444438Y-15727109D01*
X10444438Y-15727109D02*
X10425390Y-15717585D01*
X10425390Y-15717585D02*
X10415866Y-15708061D01*
X10415866Y-15708061D02*
X10406342Y-15689013D01*
X10406342Y-15689013D02*
X10396819Y-15650918D01*
X10396819Y-15650918D02*
X10396819Y-15603299D01*
X10396819Y-15603299D02*
X10406342Y-15565204D01*
X10406342Y-15565204D02*
X10415866Y-15546156D01*
X10415866Y-15546156D02*
X10425390Y-15536633D01*
X10425390Y-15536633D02*
X10444438Y-15527109D01*
X10634914Y-15527109D02*
X10653961Y-15527109D01*
X10653961Y-15527109D02*
X10673009Y-15536633D01*
X10673009Y-15536633D02*
X10682533Y-15546156D01*
X10682533Y-15546156D02*
X10692057Y-15565204D01*
X10692057Y-15565204D02*
X10701580Y-15603299D01*
X10701580Y-15603299D02*
X10701580Y-15650918D01*
X10701580Y-15650918D02*
X10692057Y-15689013D01*
X10692057Y-15689013D02*
X10682533Y-15708061D01*
X10682533Y-15708061D02*
X10673009Y-15717585D01*
X10673009Y-15717585D02*
X10653961Y-15727109D01*
X10653961Y-15727109D02*
X10634914Y-15727109D01*
X10634914Y-15727109D02*
X10615866Y-15717585D01*
X10615866Y-15717585D02*
X10606342Y-15708061D01*
X10606342Y-15708061D02*
X10596819Y-15689013D01*
X10596819Y-15689013D02*
X10587295Y-15650918D01*
X10587295Y-15650918D02*
X10587295Y-15603299D01*
X10587295Y-15603299D02*
X10596819Y-15565204D01*
X10596819Y-15565204D02*
X10606342Y-15546156D01*
X10606342Y-15546156D02*
X10615866Y-15536633D01*
X10615866Y-15536633D02*
X10634914Y-15527109D01*
X10787295Y-15727109D02*
X10787295Y-15593775D01*
X10787295Y-15612823D02*
X10796819Y-15603299D01*
X10796819Y-15603299D02*
X10815866Y-15593775D01*
X10815866Y-15593775D02*
X10844438Y-15593775D01*
X10844438Y-15593775D02*
X10863485Y-15603299D01*
X10863485Y-15603299D02*
X10873009Y-15622347D01*
X10873009Y-15622347D02*
X10873009Y-15727109D01*
X10873009Y-15622347D02*
X10882533Y-15603299D01*
X10882533Y-15603299D02*
X10901580Y-15593775D01*
X10901580Y-15593775D02*
X10930152Y-15593775D01*
X10930152Y-15593775D02*
X10949200Y-15603299D01*
X10949200Y-15603299D02*
X10958723Y-15622347D01*
X10958723Y-15622347D02*
X10958723Y-15727109D01*
X11053961Y-15727109D02*
X11053961Y-15593775D01*
X11053961Y-15612823D02*
X11063485Y-15603299D01*
X11063485Y-15603299D02*
X11082533Y-15593775D01*
X11082533Y-15593775D02*
X11111104Y-15593775D01*
X11111104Y-15593775D02*
X11130152Y-15603299D01*
X11130152Y-15603299D02*
X11139676Y-15622347D01*
X11139676Y-15622347D02*
X11139676Y-15727109D01*
X11139676Y-15622347D02*
X11149200Y-15603299D01*
X11149200Y-15603299D02*
X11168247Y-15593775D01*
X11168247Y-15593775D02*
X11196818Y-15593775D01*
X11196818Y-15593775D02*
X11215866Y-15603299D01*
X11215866Y-15603299D02*
X11225390Y-15622347D01*
X11225390Y-15622347D02*
X11225390Y-15727109D01*
X11615866Y-15517585D02*
X11444438Y-15774728D01*
X11873009Y-15527109D02*
X11892057Y-15527109D01*
X11892057Y-15527109D02*
X11911104Y-15536633D01*
X11911104Y-15536633D02*
X11920628Y-15546156D01*
X11920628Y-15546156D02*
X11930152Y-15565204D01*
X11930152Y-15565204D02*
X11939676Y-15603299D01*
X11939676Y-15603299D02*
X11939676Y-15650918D01*
X11939676Y-15650918D02*
X11930152Y-15689013D01*
X11930152Y-15689013D02*
X11920628Y-15708061D01*
X11920628Y-15708061D02*
X11911104Y-15717585D01*
X11911104Y-15717585D02*
X11892057Y-15727109D01*
X11892057Y-15727109D02*
X11873009Y-15727109D01*
X11873009Y-15727109D02*
X11853961Y-15717585D01*
X11853961Y-15717585D02*
X11844438Y-15708061D01*
X11844438Y-15708061D02*
X11834914Y-15689013D01*
X11834914Y-15689013D02*
X11825390Y-15650918D01*
X11825390Y-15650918D02*
X11825390Y-15603299D01*
X11825390Y-15603299D02*
X11834914Y-15565204D01*
X11834914Y-15565204D02*
X11844438Y-15546156D01*
X11844438Y-15546156D02*
X11853961Y-15536633D01*
X11853961Y-15536633D02*
X11873009Y-15527109D01*
X12025390Y-15708061D02*
X12034914Y-15717585D01*
X12034914Y-15717585D02*
X12025390Y-15727109D01*
X12025390Y-15727109D02*
X12015866Y-15717585D01*
X12015866Y-15717585D02*
X12025390Y-15708061D01*
X12025390Y-15708061D02*
X12025390Y-15727109D01*
X12158723Y-15527109D02*
X12177771Y-15527109D01*
X12177771Y-15527109D02*
X12196819Y-15536633D01*
X12196819Y-15536633D02*
X12206342Y-15546156D01*
X12206342Y-15546156D02*
X12215866Y-15565204D01*
X12215866Y-15565204D02*
X12225390Y-15603299D01*
X12225390Y-15603299D02*
X12225390Y-15650918D01*
X12225390Y-15650918D02*
X12215866Y-15689013D01*
X12215866Y-15689013D02*
X12206342Y-15708061D01*
X12206342Y-15708061D02*
X12196819Y-15717585D01*
X12196819Y-15717585D02*
X12177771Y-15727109D01*
X12177771Y-15727109D02*
X12158723Y-15727109D01*
X12158723Y-15727109D02*
X12139676Y-15717585D01*
X12139676Y-15717585D02*
X12130152Y-15708061D01*
X12130152Y-15708061D02*
X12120628Y-15689013D01*
X12120628Y-15689013D02*
X12111104Y-15650918D01*
X12111104Y-15650918D02*
X12111104Y-15603299D01*
X12111104Y-15603299D02*
X12120628Y-15565204D01*
X12120628Y-15565204D02*
X12130152Y-15546156D01*
X12130152Y-15546156D02*
X12139676Y-15536633D01*
X12139676Y-15536633D02*
X12158723Y-15527109D01*
X12415866Y-15727109D02*
X12301581Y-15727109D01*
X12358723Y-15727109D02*
X12358723Y-15527109D01*
X12358723Y-15527109D02*
X12339676Y-15555680D01*
X12339676Y-15555680D02*
X12320628Y-15574728D01*
X12320628Y-15574728D02*
X12301581Y-15584252D01*
X12606342Y-15727109D02*
X12492057Y-15727109D01*
X12549200Y-15727109D02*
X12549200Y-15527109D01*
X12549200Y-15527109D02*
X12530152Y-15555680D01*
X12530152Y-15555680D02*
X12511104Y-15574728D01*
X12511104Y-15574728D02*
X12492057Y-15584252D01*
X12720628Y-15612823D02*
X12701581Y-15603299D01*
X12701581Y-15603299D02*
X12692057Y-15593775D01*
X12692057Y-15593775D02*
X12682533Y-15574728D01*
X12682533Y-15574728D02*
X12682533Y-15565204D01*
X12682533Y-15565204D02*
X12692057Y-15546156D01*
X12692057Y-15546156D02*
X12701581Y-15536633D01*
X12701581Y-15536633D02*
X12720628Y-15527109D01*
X12720628Y-15527109D02*
X12758723Y-15527109D01*
X12758723Y-15527109D02*
X12777771Y-15536633D01*
X12777771Y-15536633D02*
X12787295Y-15546156D01*
X12787295Y-15546156D02*
X12796819Y-15565204D01*
X12796819Y-15565204D02*
X12796819Y-15574728D01*
X12796819Y-15574728D02*
X12787295Y-15593775D01*
X12787295Y-15593775D02*
X12777771Y-15603299D01*
X12777771Y-15603299D02*
X12758723Y-15612823D01*
X12758723Y-15612823D02*
X12720628Y-15612823D01*
X12720628Y-15612823D02*
X12701581Y-15622347D01*
X12701581Y-15622347D02*
X12692057Y-15631871D01*
X12692057Y-15631871D02*
X12682533Y-15650918D01*
X12682533Y-15650918D02*
X12682533Y-15689013D01*
X12682533Y-15689013D02*
X12692057Y-15708061D01*
X12692057Y-15708061D02*
X12701581Y-15717585D01*
X12701581Y-15717585D02*
X12720628Y-15727109D01*
X12720628Y-15727109D02*
X12758723Y-15727109D01*
X12758723Y-15727109D02*
X12777771Y-15717585D01*
X12777771Y-15717585D02*
X12787295Y-15708061D01*
X12787295Y-15708061D02*
X12796819Y-15689013D01*
X12796819Y-15689013D02*
X12796819Y-15650918D01*
X12796819Y-15650918D02*
X12787295Y-15631871D01*
X12787295Y-15631871D02*
X12777771Y-15622347D01*
X12777771Y-15622347D02*
X12758723Y-15612823D01*
X12873009Y-15527109D02*
X12873009Y-15565204D01*
X12949200Y-15527109D02*
X12949200Y-15565204D01*
X13244438Y-15803299D02*
X13234914Y-15793775D01*
X13234914Y-15793775D02*
X13215866Y-15765204D01*
X13215866Y-15765204D02*
X13206343Y-15746156D01*
X13206343Y-15746156D02*
X13196819Y-15717585D01*
X13196819Y-15717585D02*
X13187295Y-15669966D01*
X13187295Y-15669966D02*
X13187295Y-15631871D01*
X13187295Y-15631871D02*
X13196819Y-15584252D01*
X13196819Y-15584252D02*
X13206343Y-15555680D01*
X13206343Y-15555680D02*
X13215866Y-15536633D01*
X13215866Y-15536633D02*
X13234914Y-15508061D01*
X13234914Y-15508061D02*
X13244438Y-15498537D01*
X13301581Y-15527109D02*
X13434914Y-15527109D01*
X13434914Y-15527109D02*
X13349200Y-15727109D01*
X13663485Y-15727109D02*
X13663485Y-15527109D01*
X13749200Y-15727109D02*
X13749200Y-15622347D01*
X13749200Y-15622347D02*
X13739676Y-15603299D01*
X13739676Y-15603299D02*
X13720628Y-15593775D01*
X13720628Y-15593775D02*
X13692057Y-15593775D01*
X13692057Y-15593775D02*
X13673009Y-15603299D01*
X13673009Y-15603299D02*
X13663485Y-15612823D01*
X13873009Y-15727109D02*
X13853962Y-15717585D01*
X13853962Y-15717585D02*
X13844438Y-15708061D01*
X13844438Y-15708061D02*
X13834914Y-15689013D01*
X13834914Y-15689013D02*
X13834914Y-15631871D01*
X13834914Y-15631871D02*
X13844438Y-15612823D01*
X13844438Y-15612823D02*
X13853962Y-15603299D01*
X13853962Y-15603299D02*
X13873009Y-15593775D01*
X13873009Y-15593775D02*
X13901581Y-15593775D01*
X13901581Y-15593775D02*
X13920628Y-15603299D01*
X13920628Y-15603299D02*
X13930152Y-15612823D01*
X13930152Y-15612823D02*
X13939676Y-15631871D01*
X13939676Y-15631871D02*
X13939676Y-15689013D01*
X13939676Y-15689013D02*
X13930152Y-15708061D01*
X13930152Y-15708061D02*
X13920628Y-15717585D01*
X13920628Y-15717585D02*
X13901581Y-15727109D01*
X13901581Y-15727109D02*
X13873009Y-15727109D01*
X14053962Y-15727109D02*
X14034914Y-15717585D01*
X14034914Y-15717585D02*
X14025390Y-15698537D01*
X14025390Y-15698537D02*
X14025390Y-15527109D01*
X14206343Y-15717585D02*
X14187295Y-15727109D01*
X14187295Y-15727109D02*
X14149200Y-15727109D01*
X14149200Y-15727109D02*
X14130152Y-15717585D01*
X14130152Y-15717585D02*
X14120628Y-15698537D01*
X14120628Y-15698537D02*
X14120628Y-15622347D01*
X14120628Y-15622347D02*
X14130152Y-15603299D01*
X14130152Y-15603299D02*
X14149200Y-15593775D01*
X14149200Y-15593775D02*
X14187295Y-15593775D01*
X14187295Y-15593775D02*
X14206343Y-15603299D01*
X14206343Y-15603299D02*
X14215866Y-15622347D01*
X14215866Y-15622347D02*
X14215866Y-15641394D01*
X14215866Y-15641394D02*
X14120628Y-15660442D01*
X14292057Y-15717585D02*
X14311105Y-15727109D01*
X14311105Y-15727109D02*
X14349200Y-15727109D01*
X14349200Y-15727109D02*
X14368247Y-15717585D01*
X14368247Y-15717585D02*
X14377771Y-15698537D01*
X14377771Y-15698537D02*
X14377771Y-15689013D01*
X14377771Y-15689013D02*
X14368247Y-15669966D01*
X14368247Y-15669966D02*
X14349200Y-15660442D01*
X14349200Y-15660442D02*
X14320628Y-15660442D01*
X14320628Y-15660442D02*
X14301581Y-15650918D01*
X14301581Y-15650918D02*
X14292057Y-15631871D01*
X14292057Y-15631871D02*
X14292057Y-15622347D01*
X14292057Y-15622347D02*
X14301581Y-15603299D01*
X14301581Y-15603299D02*
X14320628Y-15593775D01*
X14320628Y-15593775D02*
X14349200Y-15593775D01*
X14349200Y-15593775D02*
X14368247Y-15603299D01*
X14444438Y-15803299D02*
X14453962Y-15793775D01*
X14453962Y-15793775D02*
X14473009Y-15765204D01*
X14473009Y-15765204D02*
X14482533Y-15746156D01*
X14482533Y-15746156D02*
X14492057Y-15717585D01*
X14492057Y-15717585D02*
X14501581Y-15669966D01*
X14501581Y-15669966D02*
X14501581Y-15631871D01*
X14501581Y-15631871D02*
X14492057Y-15584252D01*
X14492057Y-15584252D02*
X14482533Y-15555680D01*
X14482533Y-15555680D02*
X14473009Y-15536633D01*
X14473009Y-15536633D02*
X14453962Y-15508061D01*
X14453962Y-15508061D02*
X14444438Y-15498537D01*
D12*
X9669375Y-15899625D02*
G75*
G02*
X9589375Y-15899625I-40000J0D01*
G01*
X9589375Y-15899625D02*
G75*
G02*
X9669375Y-15899625I40000J0D01*
G01*
D11*
X9968247Y-15791109D02*
X9987295Y-15791109D01*
X9987295Y-15791109D02*
X10006342Y-15800633D01*
X10006342Y-15800633D02*
X10015866Y-15810156D01*
X10015866Y-15810156D02*
X10025390Y-15829204D01*
X10025390Y-15829204D02*
X10034914Y-15867299D01*
X10034914Y-15867299D02*
X10034914Y-15914918D01*
X10034914Y-15914918D02*
X10025390Y-15953013D01*
X10025390Y-15953013D02*
X10015866Y-15972061D01*
X10015866Y-15972061D02*
X10006342Y-15981585D01*
X10006342Y-15981585D02*
X9987295Y-15991109D01*
X9987295Y-15991109D02*
X9968247Y-15991109D01*
X9968247Y-15991109D02*
X9949199Y-15981585D01*
X9949199Y-15981585D02*
X9939676Y-15972061D01*
X9939676Y-15972061D02*
X9930152Y-15953013D01*
X9930152Y-15953013D02*
X9920628Y-15914918D01*
X9920628Y-15914918D02*
X9920628Y-15867299D01*
X9920628Y-15867299D02*
X9930152Y-15829204D01*
X9930152Y-15829204D02*
X9939676Y-15810156D01*
X9939676Y-15810156D02*
X9949199Y-15800633D01*
X9949199Y-15800633D02*
X9968247Y-15791109D01*
X10120628Y-15972061D02*
X10130152Y-15981585D01*
X10130152Y-15981585D02*
X10120628Y-15991109D01*
X10120628Y-15991109D02*
X10111104Y-15981585D01*
X10111104Y-15981585D02*
X10120628Y-15972061D01*
X10120628Y-15972061D02*
X10120628Y-15991109D01*
X10244438Y-15876823D02*
X10225390Y-15867299D01*
X10225390Y-15867299D02*
X10215866Y-15857775D01*
X10215866Y-15857775D02*
X10206342Y-15838728D01*
X10206342Y-15838728D02*
X10206342Y-15829204D01*
X10206342Y-15829204D02*
X10215866Y-15810156D01*
X10215866Y-15810156D02*
X10225390Y-15800633D01*
X10225390Y-15800633D02*
X10244438Y-15791109D01*
X10244438Y-15791109D02*
X10282533Y-15791109D01*
X10282533Y-15791109D02*
X10301580Y-15800633D01*
X10301580Y-15800633D02*
X10311104Y-15810156D01*
X10311104Y-15810156D02*
X10320628Y-15829204D01*
X10320628Y-15829204D02*
X10320628Y-15838728D01*
X10320628Y-15838728D02*
X10311104Y-15857775D01*
X10311104Y-15857775D02*
X10301580Y-15867299D01*
X10301580Y-15867299D02*
X10282533Y-15876823D01*
X10282533Y-15876823D02*
X10244438Y-15876823D01*
X10244438Y-15876823D02*
X10225390Y-15886347D01*
X10225390Y-15886347D02*
X10215866Y-15895871D01*
X10215866Y-15895871D02*
X10206342Y-15914918D01*
X10206342Y-15914918D02*
X10206342Y-15953013D01*
X10206342Y-15953013D02*
X10215866Y-15972061D01*
X10215866Y-15972061D02*
X10225390Y-15981585D01*
X10225390Y-15981585D02*
X10244438Y-15991109D01*
X10244438Y-15991109D02*
X10282533Y-15991109D01*
X10282533Y-15991109D02*
X10301580Y-15981585D01*
X10301580Y-15981585D02*
X10311104Y-15972061D01*
X10311104Y-15972061D02*
X10320628Y-15953013D01*
X10320628Y-15953013D02*
X10320628Y-15914918D01*
X10320628Y-15914918D02*
X10311104Y-15895871D01*
X10311104Y-15895871D02*
X10301580Y-15886347D01*
X10301580Y-15886347D02*
X10282533Y-15876823D01*
X10444438Y-15791109D02*
X10463485Y-15791109D01*
X10463485Y-15791109D02*
X10482533Y-15800633D01*
X10482533Y-15800633D02*
X10492057Y-15810156D01*
X10492057Y-15810156D02*
X10501580Y-15829204D01*
X10501580Y-15829204D02*
X10511104Y-15867299D01*
X10511104Y-15867299D02*
X10511104Y-15914918D01*
X10511104Y-15914918D02*
X10501580Y-15953013D01*
X10501580Y-15953013D02*
X10492057Y-15972061D01*
X10492057Y-15972061D02*
X10482533Y-15981585D01*
X10482533Y-15981585D02*
X10463485Y-15991109D01*
X10463485Y-15991109D02*
X10444438Y-15991109D01*
X10444438Y-15991109D02*
X10425390Y-15981585D01*
X10425390Y-15981585D02*
X10415866Y-15972061D01*
X10415866Y-15972061D02*
X10406342Y-15953013D01*
X10406342Y-15953013D02*
X10396819Y-15914918D01*
X10396819Y-15914918D02*
X10396819Y-15867299D01*
X10396819Y-15867299D02*
X10406342Y-15829204D01*
X10406342Y-15829204D02*
X10415866Y-15810156D01*
X10415866Y-15810156D02*
X10425390Y-15800633D01*
X10425390Y-15800633D02*
X10444438Y-15791109D01*
X10634914Y-15791109D02*
X10653961Y-15791109D01*
X10653961Y-15791109D02*
X10673009Y-15800633D01*
X10673009Y-15800633D02*
X10682533Y-15810156D01*
X10682533Y-15810156D02*
X10692057Y-15829204D01*
X10692057Y-15829204D02*
X10701580Y-15867299D01*
X10701580Y-15867299D02*
X10701580Y-15914918D01*
X10701580Y-15914918D02*
X10692057Y-15953013D01*
X10692057Y-15953013D02*
X10682533Y-15972061D01*
X10682533Y-15972061D02*
X10673009Y-15981585D01*
X10673009Y-15981585D02*
X10653961Y-15991109D01*
X10653961Y-15991109D02*
X10634914Y-15991109D01*
X10634914Y-15991109D02*
X10615866Y-15981585D01*
X10615866Y-15981585D02*
X10606342Y-15972061D01*
X10606342Y-15972061D02*
X10596819Y-15953013D01*
X10596819Y-15953013D02*
X10587295Y-15914918D01*
X10587295Y-15914918D02*
X10587295Y-15867299D01*
X10587295Y-15867299D02*
X10596819Y-15829204D01*
X10596819Y-15829204D02*
X10606342Y-15810156D01*
X10606342Y-15810156D02*
X10615866Y-15800633D01*
X10615866Y-15800633D02*
X10634914Y-15791109D01*
X10787295Y-15991109D02*
X10787295Y-15857775D01*
X10787295Y-15876823D02*
X10796819Y-15867299D01*
X10796819Y-15867299D02*
X10815866Y-15857775D01*
X10815866Y-15857775D02*
X10844438Y-15857775D01*
X10844438Y-15857775D02*
X10863485Y-15867299D01*
X10863485Y-15867299D02*
X10873009Y-15886347D01*
X10873009Y-15886347D02*
X10873009Y-15991109D01*
X10873009Y-15886347D02*
X10882533Y-15867299D01*
X10882533Y-15867299D02*
X10901580Y-15857775D01*
X10901580Y-15857775D02*
X10930152Y-15857775D01*
X10930152Y-15857775D02*
X10949200Y-15867299D01*
X10949200Y-15867299D02*
X10958723Y-15886347D01*
X10958723Y-15886347D02*
X10958723Y-15991109D01*
X11053961Y-15991109D02*
X11053961Y-15857775D01*
X11053961Y-15876823D02*
X11063485Y-15867299D01*
X11063485Y-15867299D02*
X11082533Y-15857775D01*
X11082533Y-15857775D02*
X11111104Y-15857775D01*
X11111104Y-15857775D02*
X11130152Y-15867299D01*
X11130152Y-15867299D02*
X11139676Y-15886347D01*
X11139676Y-15886347D02*
X11139676Y-15991109D01*
X11139676Y-15886347D02*
X11149200Y-15867299D01*
X11149200Y-15867299D02*
X11168247Y-15857775D01*
X11168247Y-15857775D02*
X11196818Y-15857775D01*
X11196818Y-15857775D02*
X11215866Y-15867299D01*
X11215866Y-15867299D02*
X11225390Y-15886347D01*
X11225390Y-15886347D02*
X11225390Y-15991109D01*
X11615866Y-15781585D02*
X11444438Y-16038728D01*
X11873009Y-15791109D02*
X11892057Y-15791109D01*
X11892057Y-15791109D02*
X11911104Y-15800633D01*
X11911104Y-15800633D02*
X11920628Y-15810156D01*
X11920628Y-15810156D02*
X11930152Y-15829204D01*
X11930152Y-15829204D02*
X11939676Y-15867299D01*
X11939676Y-15867299D02*
X11939676Y-15914918D01*
X11939676Y-15914918D02*
X11930152Y-15953013D01*
X11930152Y-15953013D02*
X11920628Y-15972061D01*
X11920628Y-15972061D02*
X11911104Y-15981585D01*
X11911104Y-15981585D02*
X11892057Y-15991109D01*
X11892057Y-15991109D02*
X11873009Y-15991109D01*
X11873009Y-15991109D02*
X11853961Y-15981585D01*
X11853961Y-15981585D02*
X11844438Y-15972061D01*
X11844438Y-15972061D02*
X11834914Y-15953013D01*
X11834914Y-15953013D02*
X11825390Y-15914918D01*
X11825390Y-15914918D02*
X11825390Y-15867299D01*
X11825390Y-15867299D02*
X11834914Y-15829204D01*
X11834914Y-15829204D02*
X11844438Y-15810156D01*
X11844438Y-15810156D02*
X11853961Y-15800633D01*
X11853961Y-15800633D02*
X11873009Y-15791109D01*
X12025390Y-15972061D02*
X12034914Y-15981585D01*
X12034914Y-15981585D02*
X12025390Y-15991109D01*
X12025390Y-15991109D02*
X12015866Y-15981585D01*
X12015866Y-15981585D02*
X12025390Y-15972061D01*
X12025390Y-15972061D02*
X12025390Y-15991109D01*
X12158723Y-15791109D02*
X12177771Y-15791109D01*
X12177771Y-15791109D02*
X12196819Y-15800633D01*
X12196819Y-15800633D02*
X12206342Y-15810156D01*
X12206342Y-15810156D02*
X12215866Y-15829204D01*
X12215866Y-15829204D02*
X12225390Y-15867299D01*
X12225390Y-15867299D02*
X12225390Y-15914918D01*
X12225390Y-15914918D02*
X12215866Y-15953013D01*
X12215866Y-15953013D02*
X12206342Y-15972061D01*
X12206342Y-15972061D02*
X12196819Y-15981585D01*
X12196819Y-15981585D02*
X12177771Y-15991109D01*
X12177771Y-15991109D02*
X12158723Y-15991109D01*
X12158723Y-15991109D02*
X12139676Y-15981585D01*
X12139676Y-15981585D02*
X12130152Y-15972061D01*
X12130152Y-15972061D02*
X12120628Y-15953013D01*
X12120628Y-15953013D02*
X12111104Y-15914918D01*
X12111104Y-15914918D02*
X12111104Y-15867299D01*
X12111104Y-15867299D02*
X12120628Y-15829204D01*
X12120628Y-15829204D02*
X12130152Y-15810156D01*
X12130152Y-15810156D02*
X12139676Y-15800633D01*
X12139676Y-15800633D02*
X12158723Y-15791109D01*
X12292057Y-15791109D02*
X12415866Y-15791109D01*
X12415866Y-15791109D02*
X12349200Y-15867299D01*
X12349200Y-15867299D02*
X12377771Y-15867299D01*
X12377771Y-15867299D02*
X12396819Y-15876823D01*
X12396819Y-15876823D02*
X12406342Y-15886347D01*
X12406342Y-15886347D02*
X12415866Y-15905394D01*
X12415866Y-15905394D02*
X12415866Y-15953013D01*
X12415866Y-15953013D02*
X12406342Y-15972061D01*
X12406342Y-15972061D02*
X12396819Y-15981585D01*
X12396819Y-15981585D02*
X12377771Y-15991109D01*
X12377771Y-15991109D02*
X12320628Y-15991109D01*
X12320628Y-15991109D02*
X12301581Y-15981585D01*
X12301581Y-15981585D02*
X12292057Y-15972061D01*
X12606342Y-15991109D02*
X12492057Y-15991109D01*
X12549200Y-15991109D02*
X12549200Y-15791109D01*
X12549200Y-15791109D02*
X12530152Y-15819680D01*
X12530152Y-15819680D02*
X12511104Y-15838728D01*
X12511104Y-15838728D02*
X12492057Y-15848252D01*
X12787295Y-15791109D02*
X12692057Y-15791109D01*
X12692057Y-15791109D02*
X12682533Y-15886347D01*
X12682533Y-15886347D02*
X12692057Y-15876823D01*
X12692057Y-15876823D02*
X12711104Y-15867299D01*
X12711104Y-15867299D02*
X12758723Y-15867299D01*
X12758723Y-15867299D02*
X12777771Y-15876823D01*
X12777771Y-15876823D02*
X12787295Y-15886347D01*
X12787295Y-15886347D02*
X12796819Y-15905394D01*
X12796819Y-15905394D02*
X12796819Y-15953013D01*
X12796819Y-15953013D02*
X12787295Y-15972061D01*
X12787295Y-15972061D02*
X12777771Y-15981585D01*
X12777771Y-15981585D02*
X12758723Y-15991109D01*
X12758723Y-15991109D02*
X12711104Y-15991109D01*
X12711104Y-15991109D02*
X12692057Y-15981585D01*
X12692057Y-15981585D02*
X12682533Y-15972061D01*
X12873009Y-15791109D02*
X12873009Y-15829204D01*
X12949200Y-15791109D02*
X12949200Y-15829204D01*
X13244438Y-16067299D02*
X13234914Y-16057775D01*
X13234914Y-16057775D02*
X13215866Y-16029204D01*
X13215866Y-16029204D02*
X13206343Y-16010156D01*
X13206343Y-16010156D02*
X13196819Y-15981585D01*
X13196819Y-15981585D02*
X13187295Y-15933966D01*
X13187295Y-15933966D02*
X13187295Y-15895871D01*
X13187295Y-15895871D02*
X13196819Y-15848252D01*
X13196819Y-15848252D02*
X13206343Y-15819680D01*
X13206343Y-15819680D02*
X13215866Y-15800633D01*
X13215866Y-15800633D02*
X13234914Y-15772061D01*
X13234914Y-15772061D02*
X13244438Y-15762537D01*
X13311104Y-15810156D02*
X13320628Y-15800633D01*
X13320628Y-15800633D02*
X13339676Y-15791109D01*
X13339676Y-15791109D02*
X13387295Y-15791109D01*
X13387295Y-15791109D02*
X13406343Y-15800633D01*
X13406343Y-15800633D02*
X13415866Y-15810156D01*
X13415866Y-15810156D02*
X13425390Y-15829204D01*
X13425390Y-15829204D02*
X13425390Y-15848252D01*
X13425390Y-15848252D02*
X13415866Y-15876823D01*
X13415866Y-15876823D02*
X13301581Y-15991109D01*
X13301581Y-15991109D02*
X13425390Y-15991109D01*
X13596819Y-15857775D02*
X13596819Y-15991109D01*
X13549200Y-15781585D02*
X13501581Y-15924442D01*
X13501581Y-15924442D02*
X13625390Y-15924442D01*
X13853962Y-15991109D02*
X13853962Y-15791109D01*
X13939676Y-15991109D02*
X13939676Y-15886347D01*
X13939676Y-15886347D02*
X13930152Y-15867299D01*
X13930152Y-15867299D02*
X13911105Y-15857775D01*
X13911105Y-15857775D02*
X13882533Y-15857775D01*
X13882533Y-15857775D02*
X13863485Y-15867299D01*
X13863485Y-15867299D02*
X13853962Y-15876823D01*
X14063485Y-15991109D02*
X14044438Y-15981585D01*
X14044438Y-15981585D02*
X14034914Y-15972061D01*
X14034914Y-15972061D02*
X14025390Y-15953013D01*
X14025390Y-15953013D02*
X14025390Y-15895871D01*
X14025390Y-15895871D02*
X14034914Y-15876823D01*
X14034914Y-15876823D02*
X14044438Y-15867299D01*
X14044438Y-15867299D02*
X14063485Y-15857775D01*
X14063485Y-15857775D02*
X14092057Y-15857775D01*
X14092057Y-15857775D02*
X14111105Y-15867299D01*
X14111105Y-15867299D02*
X14120628Y-15876823D01*
X14120628Y-15876823D02*
X14130152Y-15895871D01*
X14130152Y-15895871D02*
X14130152Y-15953013D01*
X14130152Y-15953013D02*
X14120628Y-15972061D01*
X14120628Y-15972061D02*
X14111105Y-15981585D01*
X14111105Y-15981585D02*
X14092057Y-15991109D01*
X14092057Y-15991109D02*
X14063485Y-15991109D01*
X14244438Y-15991109D02*
X14225390Y-15981585D01*
X14225390Y-15981585D02*
X14215866Y-15962537D01*
X14215866Y-15962537D02*
X14215866Y-15791109D01*
X14396819Y-15981585D02*
X14377771Y-15991109D01*
X14377771Y-15991109D02*
X14339676Y-15991109D01*
X14339676Y-15991109D02*
X14320628Y-15981585D01*
X14320628Y-15981585D02*
X14311105Y-15962537D01*
X14311105Y-15962537D02*
X14311105Y-15886347D01*
X14311105Y-15886347D02*
X14320628Y-15867299D01*
X14320628Y-15867299D02*
X14339676Y-15857775D01*
X14339676Y-15857775D02*
X14377771Y-15857775D01*
X14377771Y-15857775D02*
X14396819Y-15867299D01*
X14396819Y-15867299D02*
X14406343Y-15886347D01*
X14406343Y-15886347D02*
X14406343Y-15905394D01*
X14406343Y-15905394D02*
X14311105Y-15924442D01*
X14482533Y-15981585D02*
X14501581Y-15991109D01*
X14501581Y-15991109D02*
X14539676Y-15991109D01*
X14539676Y-15991109D02*
X14558724Y-15981585D01*
X14558724Y-15981585D02*
X14568247Y-15962537D01*
X14568247Y-15962537D02*
X14568247Y-15953013D01*
X14568247Y-15953013D02*
X14558724Y-15933966D01*
X14558724Y-15933966D02*
X14539676Y-15924442D01*
X14539676Y-15924442D02*
X14511105Y-15924442D01*
X14511105Y-15924442D02*
X14492057Y-15914918D01*
X14492057Y-15914918D02*
X14482533Y-15895871D01*
X14482533Y-15895871D02*
X14482533Y-15886347D01*
X14482533Y-15886347D02*
X14492057Y-15867299D01*
X14492057Y-15867299D02*
X14511105Y-15857775D01*
X14511105Y-15857775D02*
X14539676Y-15857775D01*
X14539676Y-15857775D02*
X14558724Y-15867299D01*
X14634914Y-16067299D02*
X14644438Y-16057775D01*
X14644438Y-16057775D02*
X14663486Y-16029204D01*
X14663486Y-16029204D02*
X14673009Y-16010156D01*
X14673009Y-16010156D02*
X14682533Y-15981585D01*
X14682533Y-15981585D02*
X14692057Y-15933966D01*
X14692057Y-15933966D02*
X14692057Y-15895871D01*
X14692057Y-15895871D02*
X14682533Y-15848252D01*
X14682533Y-15848252D02*
X14673009Y-15819680D01*
X14673009Y-15819680D02*
X14663486Y-15800633D01*
X14663486Y-15800633D02*
X14644438Y-15772061D01*
X14644438Y-15772061D02*
X14634914Y-15762537D01*
D12*
X9624925Y-16119175D02*
X9624925Y-16208075D01*
X9580475Y-16163625D02*
X9669375Y-16163625D01*
D11*
X9968247Y-16055109D02*
X9987295Y-16055109D01*
X9987295Y-16055109D02*
X10006342Y-16064633D01*
X10006342Y-16064633D02*
X10015866Y-16074156D01*
X10015866Y-16074156D02*
X10025390Y-16093204D01*
X10025390Y-16093204D02*
X10034914Y-16131299D01*
X10034914Y-16131299D02*
X10034914Y-16178918D01*
X10034914Y-16178918D02*
X10025390Y-16217013D01*
X10025390Y-16217013D02*
X10015866Y-16236061D01*
X10015866Y-16236061D02*
X10006342Y-16245585D01*
X10006342Y-16245585D02*
X9987295Y-16255109D01*
X9987295Y-16255109D02*
X9968247Y-16255109D01*
X9968247Y-16255109D02*
X9949199Y-16245585D01*
X9949199Y-16245585D02*
X9939676Y-16236061D01*
X9939676Y-16236061D02*
X9930152Y-16217013D01*
X9930152Y-16217013D02*
X9920628Y-16178918D01*
X9920628Y-16178918D02*
X9920628Y-16131299D01*
X9920628Y-16131299D02*
X9930152Y-16093204D01*
X9930152Y-16093204D02*
X9939676Y-16074156D01*
X9939676Y-16074156D02*
X9949199Y-16064633D01*
X9949199Y-16064633D02*
X9968247Y-16055109D01*
X10120628Y-16236061D02*
X10130152Y-16245585D01*
X10130152Y-16245585D02*
X10120628Y-16255109D01*
X10120628Y-16255109D02*
X10111104Y-16245585D01*
X10111104Y-16245585D02*
X10120628Y-16236061D01*
X10120628Y-16236061D02*
X10120628Y-16255109D01*
X10244438Y-16140823D02*
X10225390Y-16131299D01*
X10225390Y-16131299D02*
X10215866Y-16121775D01*
X10215866Y-16121775D02*
X10206342Y-16102728D01*
X10206342Y-16102728D02*
X10206342Y-16093204D01*
X10206342Y-16093204D02*
X10215866Y-16074156D01*
X10215866Y-16074156D02*
X10225390Y-16064633D01*
X10225390Y-16064633D02*
X10244438Y-16055109D01*
X10244438Y-16055109D02*
X10282533Y-16055109D01*
X10282533Y-16055109D02*
X10301580Y-16064633D01*
X10301580Y-16064633D02*
X10311104Y-16074156D01*
X10311104Y-16074156D02*
X10320628Y-16093204D01*
X10320628Y-16093204D02*
X10320628Y-16102728D01*
X10320628Y-16102728D02*
X10311104Y-16121775D01*
X10311104Y-16121775D02*
X10301580Y-16131299D01*
X10301580Y-16131299D02*
X10282533Y-16140823D01*
X10282533Y-16140823D02*
X10244438Y-16140823D01*
X10244438Y-16140823D02*
X10225390Y-16150347D01*
X10225390Y-16150347D02*
X10215866Y-16159871D01*
X10215866Y-16159871D02*
X10206342Y-16178918D01*
X10206342Y-16178918D02*
X10206342Y-16217013D01*
X10206342Y-16217013D02*
X10215866Y-16236061D01*
X10215866Y-16236061D02*
X10225390Y-16245585D01*
X10225390Y-16245585D02*
X10244438Y-16255109D01*
X10244438Y-16255109D02*
X10282533Y-16255109D01*
X10282533Y-16255109D02*
X10301580Y-16245585D01*
X10301580Y-16245585D02*
X10311104Y-16236061D01*
X10311104Y-16236061D02*
X10320628Y-16217013D01*
X10320628Y-16217013D02*
X10320628Y-16178918D01*
X10320628Y-16178918D02*
X10311104Y-16159871D01*
X10311104Y-16159871D02*
X10301580Y-16150347D01*
X10301580Y-16150347D02*
X10282533Y-16140823D01*
X10434914Y-16140823D02*
X10415866Y-16131299D01*
X10415866Y-16131299D02*
X10406342Y-16121775D01*
X10406342Y-16121775D02*
X10396819Y-16102728D01*
X10396819Y-16102728D02*
X10396819Y-16093204D01*
X10396819Y-16093204D02*
X10406342Y-16074156D01*
X10406342Y-16074156D02*
X10415866Y-16064633D01*
X10415866Y-16064633D02*
X10434914Y-16055109D01*
X10434914Y-16055109D02*
X10473009Y-16055109D01*
X10473009Y-16055109D02*
X10492057Y-16064633D01*
X10492057Y-16064633D02*
X10501580Y-16074156D01*
X10501580Y-16074156D02*
X10511104Y-16093204D01*
X10511104Y-16093204D02*
X10511104Y-16102728D01*
X10511104Y-16102728D02*
X10501580Y-16121775D01*
X10501580Y-16121775D02*
X10492057Y-16131299D01*
X10492057Y-16131299D02*
X10473009Y-16140823D01*
X10473009Y-16140823D02*
X10434914Y-16140823D01*
X10434914Y-16140823D02*
X10415866Y-16150347D01*
X10415866Y-16150347D02*
X10406342Y-16159871D01*
X10406342Y-16159871D02*
X10396819Y-16178918D01*
X10396819Y-16178918D02*
X10396819Y-16217013D01*
X10396819Y-16217013D02*
X10406342Y-16236061D01*
X10406342Y-16236061D02*
X10415866Y-16245585D01*
X10415866Y-16245585D02*
X10434914Y-16255109D01*
X10434914Y-16255109D02*
X10473009Y-16255109D01*
X10473009Y-16255109D02*
X10492057Y-16245585D01*
X10492057Y-16245585D02*
X10501580Y-16236061D01*
X10501580Y-16236061D02*
X10511104Y-16217013D01*
X10511104Y-16217013D02*
X10511104Y-16178918D01*
X10511104Y-16178918D02*
X10501580Y-16159871D01*
X10501580Y-16159871D02*
X10492057Y-16150347D01*
X10492057Y-16150347D02*
X10473009Y-16140823D01*
X10606342Y-16255109D02*
X10644438Y-16255109D01*
X10644438Y-16255109D02*
X10663485Y-16245585D01*
X10663485Y-16245585D02*
X10673009Y-16236061D01*
X10673009Y-16236061D02*
X10692057Y-16207490D01*
X10692057Y-16207490D02*
X10701580Y-16169394D01*
X10701580Y-16169394D02*
X10701580Y-16093204D01*
X10701580Y-16093204D02*
X10692057Y-16074156D01*
X10692057Y-16074156D02*
X10682533Y-16064633D01*
X10682533Y-16064633D02*
X10663485Y-16055109D01*
X10663485Y-16055109D02*
X10625390Y-16055109D01*
X10625390Y-16055109D02*
X10606342Y-16064633D01*
X10606342Y-16064633D02*
X10596819Y-16074156D01*
X10596819Y-16074156D02*
X10587295Y-16093204D01*
X10587295Y-16093204D02*
X10587295Y-16140823D01*
X10587295Y-16140823D02*
X10596819Y-16159871D01*
X10596819Y-16159871D02*
X10606342Y-16169394D01*
X10606342Y-16169394D02*
X10625390Y-16178918D01*
X10625390Y-16178918D02*
X10663485Y-16178918D01*
X10663485Y-16178918D02*
X10682533Y-16169394D01*
X10682533Y-16169394D02*
X10692057Y-16159871D01*
X10692057Y-16159871D02*
X10701580Y-16140823D01*
X10787295Y-16255109D02*
X10787295Y-16121775D01*
X10787295Y-16140823D02*
X10796819Y-16131299D01*
X10796819Y-16131299D02*
X10815866Y-16121775D01*
X10815866Y-16121775D02*
X10844438Y-16121775D01*
X10844438Y-16121775D02*
X10863485Y-16131299D01*
X10863485Y-16131299D02*
X10873009Y-16150347D01*
X10873009Y-16150347D02*
X10873009Y-16255109D01*
X10873009Y-16150347D02*
X10882533Y-16131299D01*
X10882533Y-16131299D02*
X10901580Y-16121775D01*
X10901580Y-16121775D02*
X10930152Y-16121775D01*
X10930152Y-16121775D02*
X10949200Y-16131299D01*
X10949200Y-16131299D02*
X10958723Y-16150347D01*
X10958723Y-16150347D02*
X10958723Y-16255109D01*
X11053961Y-16255109D02*
X11053961Y-16121775D01*
X11053961Y-16140823D02*
X11063485Y-16131299D01*
X11063485Y-16131299D02*
X11082533Y-16121775D01*
X11082533Y-16121775D02*
X11111104Y-16121775D01*
X11111104Y-16121775D02*
X11130152Y-16131299D01*
X11130152Y-16131299D02*
X11139676Y-16150347D01*
X11139676Y-16150347D02*
X11139676Y-16255109D01*
X11139676Y-16150347D02*
X11149200Y-16131299D01*
X11149200Y-16131299D02*
X11168247Y-16121775D01*
X11168247Y-16121775D02*
X11196818Y-16121775D01*
X11196818Y-16121775D02*
X11215866Y-16131299D01*
X11215866Y-16131299D02*
X11225390Y-16150347D01*
X11225390Y-16150347D02*
X11225390Y-16255109D01*
X11615866Y-16045585D02*
X11444438Y-16302728D01*
X11873009Y-16055109D02*
X11892057Y-16055109D01*
X11892057Y-16055109D02*
X11911104Y-16064633D01*
X11911104Y-16064633D02*
X11920628Y-16074156D01*
X11920628Y-16074156D02*
X11930152Y-16093204D01*
X11930152Y-16093204D02*
X11939676Y-16131299D01*
X11939676Y-16131299D02*
X11939676Y-16178918D01*
X11939676Y-16178918D02*
X11930152Y-16217013D01*
X11930152Y-16217013D02*
X11920628Y-16236061D01*
X11920628Y-16236061D02*
X11911104Y-16245585D01*
X11911104Y-16245585D02*
X11892057Y-16255109D01*
X11892057Y-16255109D02*
X11873009Y-16255109D01*
X11873009Y-16255109D02*
X11853961Y-16245585D01*
X11853961Y-16245585D02*
X11844438Y-16236061D01*
X11844438Y-16236061D02*
X11834914Y-16217013D01*
X11834914Y-16217013D02*
X11825390Y-16178918D01*
X11825390Y-16178918D02*
X11825390Y-16131299D01*
X11825390Y-16131299D02*
X11834914Y-16093204D01*
X11834914Y-16093204D02*
X11844438Y-16074156D01*
X11844438Y-16074156D02*
X11853961Y-16064633D01*
X11853961Y-16064633D02*
X11873009Y-16055109D01*
X12025390Y-16236061D02*
X12034914Y-16245585D01*
X12034914Y-16245585D02*
X12025390Y-16255109D01*
X12025390Y-16255109D02*
X12015866Y-16245585D01*
X12015866Y-16245585D02*
X12025390Y-16236061D01*
X12025390Y-16236061D02*
X12025390Y-16255109D01*
X12158723Y-16055109D02*
X12177771Y-16055109D01*
X12177771Y-16055109D02*
X12196819Y-16064633D01*
X12196819Y-16064633D02*
X12206342Y-16074156D01*
X12206342Y-16074156D02*
X12215866Y-16093204D01*
X12215866Y-16093204D02*
X12225390Y-16131299D01*
X12225390Y-16131299D02*
X12225390Y-16178918D01*
X12225390Y-16178918D02*
X12215866Y-16217013D01*
X12215866Y-16217013D02*
X12206342Y-16236061D01*
X12206342Y-16236061D02*
X12196819Y-16245585D01*
X12196819Y-16245585D02*
X12177771Y-16255109D01*
X12177771Y-16255109D02*
X12158723Y-16255109D01*
X12158723Y-16255109D02*
X12139676Y-16245585D01*
X12139676Y-16245585D02*
X12130152Y-16236061D01*
X12130152Y-16236061D02*
X12120628Y-16217013D01*
X12120628Y-16217013D02*
X12111104Y-16178918D01*
X12111104Y-16178918D02*
X12111104Y-16131299D01*
X12111104Y-16131299D02*
X12120628Y-16093204D01*
X12120628Y-16093204D02*
X12130152Y-16074156D01*
X12130152Y-16074156D02*
X12139676Y-16064633D01*
X12139676Y-16064633D02*
X12158723Y-16055109D01*
X12292057Y-16055109D02*
X12415866Y-16055109D01*
X12415866Y-16055109D02*
X12349200Y-16131299D01*
X12349200Y-16131299D02*
X12377771Y-16131299D01*
X12377771Y-16131299D02*
X12396819Y-16140823D01*
X12396819Y-16140823D02*
X12406342Y-16150347D01*
X12406342Y-16150347D02*
X12415866Y-16169394D01*
X12415866Y-16169394D02*
X12415866Y-16217013D01*
X12415866Y-16217013D02*
X12406342Y-16236061D01*
X12406342Y-16236061D02*
X12396819Y-16245585D01*
X12396819Y-16245585D02*
X12377771Y-16255109D01*
X12377771Y-16255109D02*
X12320628Y-16255109D01*
X12320628Y-16255109D02*
X12301581Y-16245585D01*
X12301581Y-16245585D02*
X12292057Y-16236061D01*
X12596819Y-16055109D02*
X12501581Y-16055109D01*
X12501581Y-16055109D02*
X12492057Y-16150347D01*
X12492057Y-16150347D02*
X12501581Y-16140823D01*
X12501581Y-16140823D02*
X12520628Y-16131299D01*
X12520628Y-16131299D02*
X12568247Y-16131299D01*
X12568247Y-16131299D02*
X12587295Y-16140823D01*
X12587295Y-16140823D02*
X12596819Y-16150347D01*
X12596819Y-16150347D02*
X12606342Y-16169394D01*
X12606342Y-16169394D02*
X12606342Y-16217013D01*
X12606342Y-16217013D02*
X12596819Y-16236061D01*
X12596819Y-16236061D02*
X12587295Y-16245585D01*
X12587295Y-16245585D02*
X12568247Y-16255109D01*
X12568247Y-16255109D02*
X12520628Y-16255109D01*
X12520628Y-16255109D02*
X12501581Y-16245585D01*
X12501581Y-16245585D02*
X12492057Y-16236061D01*
X12730152Y-16055109D02*
X12749200Y-16055109D01*
X12749200Y-16055109D02*
X12768247Y-16064633D01*
X12768247Y-16064633D02*
X12777771Y-16074156D01*
X12777771Y-16074156D02*
X12787295Y-16093204D01*
X12787295Y-16093204D02*
X12796819Y-16131299D01*
X12796819Y-16131299D02*
X12796819Y-16178918D01*
X12796819Y-16178918D02*
X12787295Y-16217013D01*
X12787295Y-16217013D02*
X12777771Y-16236061D01*
X12777771Y-16236061D02*
X12768247Y-16245585D01*
X12768247Y-16245585D02*
X12749200Y-16255109D01*
X12749200Y-16255109D02*
X12730152Y-16255109D01*
X12730152Y-16255109D02*
X12711104Y-16245585D01*
X12711104Y-16245585D02*
X12701581Y-16236061D01*
X12701581Y-16236061D02*
X12692057Y-16217013D01*
X12692057Y-16217013D02*
X12682533Y-16178918D01*
X12682533Y-16178918D02*
X12682533Y-16131299D01*
X12682533Y-16131299D02*
X12692057Y-16093204D01*
X12692057Y-16093204D02*
X12701581Y-16074156D01*
X12701581Y-16074156D02*
X12711104Y-16064633D01*
X12711104Y-16064633D02*
X12730152Y-16055109D01*
X12873009Y-16055109D02*
X12873009Y-16093204D01*
X12949200Y-16055109D02*
X12949200Y-16093204D01*
X13244438Y-16331299D02*
X13234914Y-16321775D01*
X13234914Y-16321775D02*
X13215866Y-16293204D01*
X13215866Y-16293204D02*
X13206343Y-16274156D01*
X13206343Y-16274156D02*
X13196819Y-16245585D01*
X13196819Y-16245585D02*
X13187295Y-16197966D01*
X13187295Y-16197966D02*
X13187295Y-16159871D01*
X13187295Y-16159871D02*
X13196819Y-16112252D01*
X13196819Y-16112252D02*
X13206343Y-16083680D01*
X13206343Y-16083680D02*
X13215866Y-16064633D01*
X13215866Y-16064633D02*
X13234914Y-16036061D01*
X13234914Y-16036061D02*
X13244438Y-16026537D01*
X13425390Y-16255109D02*
X13311104Y-16255109D01*
X13368247Y-16255109D02*
X13368247Y-16055109D01*
X13368247Y-16055109D02*
X13349200Y-16083680D01*
X13349200Y-16083680D02*
X13330152Y-16102728D01*
X13330152Y-16102728D02*
X13311104Y-16112252D01*
X13596819Y-16121775D02*
X13596819Y-16255109D01*
X13549200Y-16045585D02*
X13501581Y-16188442D01*
X13501581Y-16188442D02*
X13625390Y-16188442D01*
X13853962Y-16255109D02*
X13853962Y-16055109D01*
X13939676Y-16255109D02*
X13939676Y-16150347D01*
X13939676Y-16150347D02*
X13930152Y-16131299D01*
X13930152Y-16131299D02*
X13911105Y-16121775D01*
X13911105Y-16121775D02*
X13882533Y-16121775D01*
X13882533Y-16121775D02*
X13863485Y-16131299D01*
X13863485Y-16131299D02*
X13853962Y-16140823D01*
X14063485Y-16255109D02*
X14044438Y-16245585D01*
X14044438Y-16245585D02*
X14034914Y-16236061D01*
X14034914Y-16236061D02*
X14025390Y-16217013D01*
X14025390Y-16217013D02*
X14025390Y-16159871D01*
X14025390Y-16159871D02*
X14034914Y-16140823D01*
X14034914Y-16140823D02*
X14044438Y-16131299D01*
X14044438Y-16131299D02*
X14063485Y-16121775D01*
X14063485Y-16121775D02*
X14092057Y-16121775D01*
X14092057Y-16121775D02*
X14111105Y-16131299D01*
X14111105Y-16131299D02*
X14120628Y-16140823D01*
X14120628Y-16140823D02*
X14130152Y-16159871D01*
X14130152Y-16159871D02*
X14130152Y-16217013D01*
X14130152Y-16217013D02*
X14120628Y-16236061D01*
X14120628Y-16236061D02*
X14111105Y-16245585D01*
X14111105Y-16245585D02*
X14092057Y-16255109D01*
X14092057Y-16255109D02*
X14063485Y-16255109D01*
X14244438Y-16255109D02*
X14225390Y-16245585D01*
X14225390Y-16245585D02*
X14215866Y-16226537D01*
X14215866Y-16226537D02*
X14215866Y-16055109D01*
X14396819Y-16245585D02*
X14377771Y-16255109D01*
X14377771Y-16255109D02*
X14339676Y-16255109D01*
X14339676Y-16255109D02*
X14320628Y-16245585D01*
X14320628Y-16245585D02*
X14311105Y-16226537D01*
X14311105Y-16226537D02*
X14311105Y-16150347D01*
X14311105Y-16150347D02*
X14320628Y-16131299D01*
X14320628Y-16131299D02*
X14339676Y-16121775D01*
X14339676Y-16121775D02*
X14377771Y-16121775D01*
X14377771Y-16121775D02*
X14396819Y-16131299D01*
X14396819Y-16131299D02*
X14406343Y-16150347D01*
X14406343Y-16150347D02*
X14406343Y-16169394D01*
X14406343Y-16169394D02*
X14311105Y-16188442D01*
X14482533Y-16245585D02*
X14501581Y-16255109D01*
X14501581Y-16255109D02*
X14539676Y-16255109D01*
X14539676Y-16255109D02*
X14558724Y-16245585D01*
X14558724Y-16245585D02*
X14568247Y-16226537D01*
X14568247Y-16226537D02*
X14568247Y-16217013D01*
X14568247Y-16217013D02*
X14558724Y-16197966D01*
X14558724Y-16197966D02*
X14539676Y-16188442D01*
X14539676Y-16188442D02*
X14511105Y-16188442D01*
X14511105Y-16188442D02*
X14492057Y-16178918D01*
X14492057Y-16178918D02*
X14482533Y-16159871D01*
X14482533Y-16159871D02*
X14482533Y-16150347D01*
X14482533Y-16150347D02*
X14492057Y-16131299D01*
X14492057Y-16131299D02*
X14511105Y-16121775D01*
X14511105Y-16121775D02*
X14539676Y-16121775D01*
X14539676Y-16121775D02*
X14558724Y-16131299D01*
X14634914Y-16331299D02*
X14644438Y-16321775D01*
X14644438Y-16321775D02*
X14663486Y-16293204D01*
X14663486Y-16293204D02*
X14673009Y-16274156D01*
X14673009Y-16274156D02*
X14682533Y-16245585D01*
X14682533Y-16245585D02*
X14692057Y-16197966D01*
X14692057Y-16197966D02*
X14692057Y-16159871D01*
X14692057Y-16159871D02*
X14682533Y-16112252D01*
X14682533Y-16112252D02*
X14673009Y-16083680D01*
X14673009Y-16083680D02*
X14663486Y-16064633D01*
X14663486Y-16064633D02*
X14644438Y-16036061D01*
X14644438Y-16036061D02*
X14634914Y-16026537D01*
D12*
X9654731Y-16462981D02*
X9654731Y-16392269D01*
X9584019Y-16392269D01*
X9584019Y-16462981D01*
X9654731Y-16462981D01*
D11*
X10034914Y-16519109D02*
X9920628Y-16519109D01*
X9977771Y-16519109D02*
X9977771Y-16319109D01*
X9977771Y-16319109D02*
X9958723Y-16347680D01*
X9958723Y-16347680D02*
X9939676Y-16366728D01*
X9939676Y-16366728D02*
X9920628Y-16376252D01*
X10120628Y-16500061D02*
X10130152Y-16509585D01*
X10130152Y-16509585D02*
X10120628Y-16519109D01*
X10120628Y-16519109D02*
X10111104Y-16509585D01*
X10111104Y-16509585D02*
X10120628Y-16500061D01*
X10120628Y-16500061D02*
X10120628Y-16519109D01*
X10253961Y-16319109D02*
X10273009Y-16319109D01*
X10273009Y-16319109D02*
X10292057Y-16328633D01*
X10292057Y-16328633D02*
X10301580Y-16338156D01*
X10301580Y-16338156D02*
X10311104Y-16357204D01*
X10311104Y-16357204D02*
X10320628Y-16395299D01*
X10320628Y-16395299D02*
X10320628Y-16442918D01*
X10320628Y-16442918D02*
X10311104Y-16481013D01*
X10311104Y-16481013D02*
X10301580Y-16500061D01*
X10301580Y-16500061D02*
X10292057Y-16509585D01*
X10292057Y-16509585D02*
X10273009Y-16519109D01*
X10273009Y-16519109D02*
X10253961Y-16519109D01*
X10253961Y-16519109D02*
X10234914Y-16509585D01*
X10234914Y-16509585D02*
X10225390Y-16500061D01*
X10225390Y-16500061D02*
X10215866Y-16481013D01*
X10215866Y-16481013D02*
X10206342Y-16442918D01*
X10206342Y-16442918D02*
X10206342Y-16395299D01*
X10206342Y-16395299D02*
X10215866Y-16357204D01*
X10215866Y-16357204D02*
X10225390Y-16338156D01*
X10225390Y-16338156D02*
X10234914Y-16328633D01*
X10234914Y-16328633D02*
X10253961Y-16319109D01*
X10444438Y-16319109D02*
X10463485Y-16319109D01*
X10463485Y-16319109D02*
X10482533Y-16328633D01*
X10482533Y-16328633D02*
X10492057Y-16338156D01*
X10492057Y-16338156D02*
X10501580Y-16357204D01*
X10501580Y-16357204D02*
X10511104Y-16395299D01*
X10511104Y-16395299D02*
X10511104Y-16442918D01*
X10511104Y-16442918D02*
X10501580Y-16481013D01*
X10501580Y-16481013D02*
X10492057Y-16500061D01*
X10492057Y-16500061D02*
X10482533Y-16509585D01*
X10482533Y-16509585D02*
X10463485Y-16519109D01*
X10463485Y-16519109D02*
X10444438Y-16519109D01*
X10444438Y-16519109D02*
X10425390Y-16509585D01*
X10425390Y-16509585D02*
X10415866Y-16500061D01*
X10415866Y-16500061D02*
X10406342Y-16481013D01*
X10406342Y-16481013D02*
X10396819Y-16442918D01*
X10396819Y-16442918D02*
X10396819Y-16395299D01*
X10396819Y-16395299D02*
X10406342Y-16357204D01*
X10406342Y-16357204D02*
X10415866Y-16338156D01*
X10415866Y-16338156D02*
X10425390Y-16328633D01*
X10425390Y-16328633D02*
X10444438Y-16319109D01*
X10634914Y-16319109D02*
X10653961Y-16319109D01*
X10653961Y-16319109D02*
X10673009Y-16328633D01*
X10673009Y-16328633D02*
X10682533Y-16338156D01*
X10682533Y-16338156D02*
X10692057Y-16357204D01*
X10692057Y-16357204D02*
X10701580Y-16395299D01*
X10701580Y-16395299D02*
X10701580Y-16442918D01*
X10701580Y-16442918D02*
X10692057Y-16481013D01*
X10692057Y-16481013D02*
X10682533Y-16500061D01*
X10682533Y-16500061D02*
X10673009Y-16509585D01*
X10673009Y-16509585D02*
X10653961Y-16519109D01*
X10653961Y-16519109D02*
X10634914Y-16519109D01*
X10634914Y-16519109D02*
X10615866Y-16509585D01*
X10615866Y-16509585D02*
X10606342Y-16500061D01*
X10606342Y-16500061D02*
X10596819Y-16481013D01*
X10596819Y-16481013D02*
X10587295Y-16442918D01*
X10587295Y-16442918D02*
X10587295Y-16395299D01*
X10587295Y-16395299D02*
X10596819Y-16357204D01*
X10596819Y-16357204D02*
X10606342Y-16338156D01*
X10606342Y-16338156D02*
X10615866Y-16328633D01*
X10615866Y-16328633D02*
X10634914Y-16319109D01*
X10787295Y-16519109D02*
X10787295Y-16385775D01*
X10787295Y-16404823D02*
X10796819Y-16395299D01*
X10796819Y-16395299D02*
X10815866Y-16385775D01*
X10815866Y-16385775D02*
X10844438Y-16385775D01*
X10844438Y-16385775D02*
X10863485Y-16395299D01*
X10863485Y-16395299D02*
X10873009Y-16414347D01*
X10873009Y-16414347D02*
X10873009Y-16519109D01*
X10873009Y-16414347D02*
X10882533Y-16395299D01*
X10882533Y-16395299D02*
X10901580Y-16385775D01*
X10901580Y-16385775D02*
X10930152Y-16385775D01*
X10930152Y-16385775D02*
X10949200Y-16395299D01*
X10949200Y-16395299D02*
X10958723Y-16414347D01*
X10958723Y-16414347D02*
X10958723Y-16519109D01*
X11053961Y-16519109D02*
X11053961Y-16385775D01*
X11053961Y-16404823D02*
X11063485Y-16395299D01*
X11063485Y-16395299D02*
X11082533Y-16385775D01*
X11082533Y-16385775D02*
X11111104Y-16385775D01*
X11111104Y-16385775D02*
X11130152Y-16395299D01*
X11130152Y-16395299D02*
X11139676Y-16414347D01*
X11139676Y-16414347D02*
X11139676Y-16519109D01*
X11139676Y-16414347D02*
X11149200Y-16395299D01*
X11149200Y-16395299D02*
X11168247Y-16385775D01*
X11168247Y-16385775D02*
X11196818Y-16385775D01*
X11196818Y-16385775D02*
X11215866Y-16395299D01*
X11215866Y-16395299D02*
X11225390Y-16414347D01*
X11225390Y-16414347D02*
X11225390Y-16519109D01*
X11615866Y-16309585D02*
X11444438Y-16566728D01*
X11873009Y-16319109D02*
X11892057Y-16319109D01*
X11892057Y-16319109D02*
X11911104Y-16328633D01*
X11911104Y-16328633D02*
X11920628Y-16338156D01*
X11920628Y-16338156D02*
X11930152Y-16357204D01*
X11930152Y-16357204D02*
X11939676Y-16395299D01*
X11939676Y-16395299D02*
X11939676Y-16442918D01*
X11939676Y-16442918D02*
X11930152Y-16481013D01*
X11930152Y-16481013D02*
X11920628Y-16500061D01*
X11920628Y-16500061D02*
X11911104Y-16509585D01*
X11911104Y-16509585D02*
X11892057Y-16519109D01*
X11892057Y-16519109D02*
X11873009Y-16519109D01*
X11873009Y-16519109D02*
X11853961Y-16509585D01*
X11853961Y-16509585D02*
X11844438Y-16500061D01*
X11844438Y-16500061D02*
X11834914Y-16481013D01*
X11834914Y-16481013D02*
X11825390Y-16442918D01*
X11825390Y-16442918D02*
X11825390Y-16395299D01*
X11825390Y-16395299D02*
X11834914Y-16357204D01*
X11834914Y-16357204D02*
X11844438Y-16338156D01*
X11844438Y-16338156D02*
X11853961Y-16328633D01*
X11853961Y-16328633D02*
X11873009Y-16319109D01*
X12025390Y-16500061D02*
X12034914Y-16509585D01*
X12034914Y-16509585D02*
X12025390Y-16519109D01*
X12025390Y-16519109D02*
X12015866Y-16509585D01*
X12015866Y-16509585D02*
X12025390Y-16500061D01*
X12025390Y-16500061D02*
X12025390Y-16519109D01*
X12158723Y-16319109D02*
X12177771Y-16319109D01*
X12177771Y-16319109D02*
X12196819Y-16328633D01*
X12196819Y-16328633D02*
X12206342Y-16338156D01*
X12206342Y-16338156D02*
X12215866Y-16357204D01*
X12215866Y-16357204D02*
X12225390Y-16395299D01*
X12225390Y-16395299D02*
X12225390Y-16442918D01*
X12225390Y-16442918D02*
X12215866Y-16481013D01*
X12215866Y-16481013D02*
X12206342Y-16500061D01*
X12206342Y-16500061D02*
X12196819Y-16509585D01*
X12196819Y-16509585D02*
X12177771Y-16519109D01*
X12177771Y-16519109D02*
X12158723Y-16519109D01*
X12158723Y-16519109D02*
X12139676Y-16509585D01*
X12139676Y-16509585D02*
X12130152Y-16500061D01*
X12130152Y-16500061D02*
X12120628Y-16481013D01*
X12120628Y-16481013D02*
X12111104Y-16442918D01*
X12111104Y-16442918D02*
X12111104Y-16395299D01*
X12111104Y-16395299D02*
X12120628Y-16357204D01*
X12120628Y-16357204D02*
X12130152Y-16338156D01*
X12130152Y-16338156D02*
X12139676Y-16328633D01*
X12139676Y-16328633D02*
X12158723Y-16319109D01*
X12292057Y-16319109D02*
X12415866Y-16319109D01*
X12415866Y-16319109D02*
X12349200Y-16395299D01*
X12349200Y-16395299D02*
X12377771Y-16395299D01*
X12377771Y-16395299D02*
X12396819Y-16404823D01*
X12396819Y-16404823D02*
X12406342Y-16414347D01*
X12406342Y-16414347D02*
X12415866Y-16433394D01*
X12415866Y-16433394D02*
X12415866Y-16481013D01*
X12415866Y-16481013D02*
X12406342Y-16500061D01*
X12406342Y-16500061D02*
X12396819Y-16509585D01*
X12396819Y-16509585D02*
X12377771Y-16519109D01*
X12377771Y-16519109D02*
X12320628Y-16519109D01*
X12320628Y-16519109D02*
X12301581Y-16509585D01*
X12301581Y-16509585D02*
X12292057Y-16500061D01*
X12511104Y-16519109D02*
X12549200Y-16519109D01*
X12549200Y-16519109D02*
X12568247Y-16509585D01*
X12568247Y-16509585D02*
X12577771Y-16500061D01*
X12577771Y-16500061D02*
X12596819Y-16471490D01*
X12596819Y-16471490D02*
X12606342Y-16433394D01*
X12606342Y-16433394D02*
X12606342Y-16357204D01*
X12606342Y-16357204D02*
X12596819Y-16338156D01*
X12596819Y-16338156D02*
X12587295Y-16328633D01*
X12587295Y-16328633D02*
X12568247Y-16319109D01*
X12568247Y-16319109D02*
X12530152Y-16319109D01*
X12530152Y-16319109D02*
X12511104Y-16328633D01*
X12511104Y-16328633D02*
X12501581Y-16338156D01*
X12501581Y-16338156D02*
X12492057Y-16357204D01*
X12492057Y-16357204D02*
X12492057Y-16404823D01*
X12492057Y-16404823D02*
X12501581Y-16423871D01*
X12501581Y-16423871D02*
X12511104Y-16433394D01*
X12511104Y-16433394D02*
X12530152Y-16442918D01*
X12530152Y-16442918D02*
X12568247Y-16442918D01*
X12568247Y-16442918D02*
X12587295Y-16433394D01*
X12587295Y-16433394D02*
X12596819Y-16423871D01*
X12596819Y-16423871D02*
X12606342Y-16404823D01*
X12777771Y-16385775D02*
X12777771Y-16519109D01*
X12730152Y-16309585D02*
X12682533Y-16452442D01*
X12682533Y-16452442D02*
X12806342Y-16452442D01*
X12873009Y-16319109D02*
X12873009Y-16357204D01*
X12949200Y-16319109D02*
X12949200Y-16357204D01*
X13244438Y-16595299D02*
X13234914Y-16585775D01*
X13234914Y-16585775D02*
X13215866Y-16557204D01*
X13215866Y-16557204D02*
X13206343Y-16538156D01*
X13206343Y-16538156D02*
X13196819Y-16509585D01*
X13196819Y-16509585D02*
X13187295Y-16461966D01*
X13187295Y-16461966D02*
X13187295Y-16423871D01*
X13187295Y-16423871D02*
X13196819Y-16376252D01*
X13196819Y-16376252D02*
X13206343Y-16347680D01*
X13206343Y-16347680D02*
X13215866Y-16328633D01*
X13215866Y-16328633D02*
X13234914Y-16300061D01*
X13234914Y-16300061D02*
X13244438Y-16290537D01*
X13330152Y-16519109D02*
X13368247Y-16519109D01*
X13368247Y-16519109D02*
X13387295Y-16509585D01*
X13387295Y-16509585D02*
X13396819Y-16500061D01*
X13396819Y-16500061D02*
X13415866Y-16471490D01*
X13415866Y-16471490D02*
X13425390Y-16433394D01*
X13425390Y-16433394D02*
X13425390Y-16357204D01*
X13425390Y-16357204D02*
X13415866Y-16338156D01*
X13415866Y-16338156D02*
X13406343Y-16328633D01*
X13406343Y-16328633D02*
X13387295Y-16319109D01*
X13387295Y-16319109D02*
X13349200Y-16319109D01*
X13349200Y-16319109D02*
X13330152Y-16328633D01*
X13330152Y-16328633D02*
X13320628Y-16338156D01*
X13320628Y-16338156D02*
X13311104Y-16357204D01*
X13311104Y-16357204D02*
X13311104Y-16404823D01*
X13311104Y-16404823D02*
X13320628Y-16423871D01*
X13320628Y-16423871D02*
X13330152Y-16433394D01*
X13330152Y-16433394D02*
X13349200Y-16442918D01*
X13349200Y-16442918D02*
X13387295Y-16442918D01*
X13387295Y-16442918D02*
X13406343Y-16433394D01*
X13406343Y-16433394D02*
X13415866Y-16423871D01*
X13415866Y-16423871D02*
X13425390Y-16404823D01*
X13663485Y-16519109D02*
X13663485Y-16319109D01*
X13749200Y-16519109D02*
X13749200Y-16414347D01*
X13749200Y-16414347D02*
X13739676Y-16395299D01*
X13739676Y-16395299D02*
X13720628Y-16385775D01*
X13720628Y-16385775D02*
X13692057Y-16385775D01*
X13692057Y-16385775D02*
X13673009Y-16395299D01*
X13673009Y-16395299D02*
X13663485Y-16404823D01*
X13873009Y-16519109D02*
X13853962Y-16509585D01*
X13853962Y-16509585D02*
X13844438Y-16500061D01*
X13844438Y-16500061D02*
X13834914Y-16481013D01*
X13834914Y-16481013D02*
X13834914Y-16423871D01*
X13834914Y-16423871D02*
X13844438Y-16404823D01*
X13844438Y-16404823D02*
X13853962Y-16395299D01*
X13853962Y-16395299D02*
X13873009Y-16385775D01*
X13873009Y-16385775D02*
X13901581Y-16385775D01*
X13901581Y-16385775D02*
X13920628Y-16395299D01*
X13920628Y-16395299D02*
X13930152Y-16404823D01*
X13930152Y-16404823D02*
X13939676Y-16423871D01*
X13939676Y-16423871D02*
X13939676Y-16481013D01*
X13939676Y-16481013D02*
X13930152Y-16500061D01*
X13930152Y-16500061D02*
X13920628Y-16509585D01*
X13920628Y-16509585D02*
X13901581Y-16519109D01*
X13901581Y-16519109D02*
X13873009Y-16519109D01*
X14053962Y-16519109D02*
X14034914Y-16509585D01*
X14034914Y-16509585D02*
X14025390Y-16490537D01*
X14025390Y-16490537D02*
X14025390Y-16319109D01*
X14206343Y-16509585D02*
X14187295Y-16519109D01*
X14187295Y-16519109D02*
X14149200Y-16519109D01*
X14149200Y-16519109D02*
X14130152Y-16509585D01*
X14130152Y-16509585D02*
X14120628Y-16490537D01*
X14120628Y-16490537D02*
X14120628Y-16414347D01*
X14120628Y-16414347D02*
X14130152Y-16395299D01*
X14130152Y-16395299D02*
X14149200Y-16385775D01*
X14149200Y-16385775D02*
X14187295Y-16385775D01*
X14187295Y-16385775D02*
X14206343Y-16395299D01*
X14206343Y-16395299D02*
X14215866Y-16414347D01*
X14215866Y-16414347D02*
X14215866Y-16433394D01*
X14215866Y-16433394D02*
X14120628Y-16452442D01*
X14292057Y-16509585D02*
X14311105Y-16519109D01*
X14311105Y-16519109D02*
X14349200Y-16519109D01*
X14349200Y-16519109D02*
X14368247Y-16509585D01*
X14368247Y-16509585D02*
X14377771Y-16490537D01*
X14377771Y-16490537D02*
X14377771Y-16481013D01*
X14377771Y-16481013D02*
X14368247Y-16461966D01*
X14368247Y-16461966D02*
X14349200Y-16452442D01*
X14349200Y-16452442D02*
X14320628Y-16452442D01*
X14320628Y-16452442D02*
X14301581Y-16442918D01*
X14301581Y-16442918D02*
X14292057Y-16423871D01*
X14292057Y-16423871D02*
X14292057Y-16414347D01*
X14292057Y-16414347D02*
X14301581Y-16395299D01*
X14301581Y-16395299D02*
X14320628Y-16385775D01*
X14320628Y-16385775D02*
X14349200Y-16385775D01*
X14349200Y-16385775D02*
X14368247Y-16395299D01*
X14444438Y-16595299D02*
X14453962Y-16585775D01*
X14453962Y-16585775D02*
X14473009Y-16557204D01*
X14473009Y-16557204D02*
X14482533Y-16538156D01*
X14482533Y-16538156D02*
X14492057Y-16509585D01*
X14492057Y-16509585D02*
X14501581Y-16461966D01*
X14501581Y-16461966D02*
X14501581Y-16423871D01*
X14501581Y-16423871D02*
X14492057Y-16376252D01*
X14492057Y-16376252D02*
X14482533Y-16347680D01*
X14482533Y-16347680D02*
X14473009Y-16328633D01*
X14473009Y-16328633D02*
X14453962Y-16300061D01*
X14453962Y-16300061D02*
X14444438Y-16290537D01*
D13*
X9594375Y-16766625D02*
X9669375Y-16691625D01*
X9594375Y-16616625D01*
X9519375Y-16691625D01*
X9594375Y-16766625D01*
D11*
X10034914Y-16783109D02*
X9920628Y-16783109D01*
X9977771Y-16783109D02*
X9977771Y-16583109D01*
X9977771Y-16583109D02*
X9958723Y-16611680D01*
X9958723Y-16611680D02*
X9939676Y-16630728D01*
X9939676Y-16630728D02*
X9920628Y-16640252D01*
X10120628Y-16764061D02*
X10130152Y-16773585D01*
X10130152Y-16773585D02*
X10120628Y-16783109D01*
X10120628Y-16783109D02*
X10111104Y-16773585D01*
X10111104Y-16773585D02*
X10120628Y-16764061D01*
X10120628Y-16764061D02*
X10120628Y-16783109D01*
X10311104Y-16583109D02*
X10215866Y-16583109D01*
X10215866Y-16583109D02*
X10206342Y-16678347D01*
X10206342Y-16678347D02*
X10215866Y-16668823D01*
X10215866Y-16668823D02*
X10234914Y-16659299D01*
X10234914Y-16659299D02*
X10282533Y-16659299D01*
X10282533Y-16659299D02*
X10301580Y-16668823D01*
X10301580Y-16668823D02*
X10311104Y-16678347D01*
X10311104Y-16678347D02*
X10320628Y-16697394D01*
X10320628Y-16697394D02*
X10320628Y-16745013D01*
X10320628Y-16745013D02*
X10311104Y-16764061D01*
X10311104Y-16764061D02*
X10301580Y-16773585D01*
X10301580Y-16773585D02*
X10282533Y-16783109D01*
X10282533Y-16783109D02*
X10234914Y-16783109D01*
X10234914Y-16783109D02*
X10215866Y-16773585D01*
X10215866Y-16773585D02*
X10206342Y-16764061D01*
X10444438Y-16583109D02*
X10463485Y-16583109D01*
X10463485Y-16583109D02*
X10482533Y-16592633D01*
X10482533Y-16592633D02*
X10492057Y-16602156D01*
X10492057Y-16602156D02*
X10501580Y-16621204D01*
X10501580Y-16621204D02*
X10511104Y-16659299D01*
X10511104Y-16659299D02*
X10511104Y-16706918D01*
X10511104Y-16706918D02*
X10501580Y-16745013D01*
X10501580Y-16745013D02*
X10492057Y-16764061D01*
X10492057Y-16764061D02*
X10482533Y-16773585D01*
X10482533Y-16773585D02*
X10463485Y-16783109D01*
X10463485Y-16783109D02*
X10444438Y-16783109D01*
X10444438Y-16783109D02*
X10425390Y-16773585D01*
X10425390Y-16773585D02*
X10415866Y-16764061D01*
X10415866Y-16764061D02*
X10406342Y-16745013D01*
X10406342Y-16745013D02*
X10396819Y-16706918D01*
X10396819Y-16706918D02*
X10396819Y-16659299D01*
X10396819Y-16659299D02*
X10406342Y-16621204D01*
X10406342Y-16621204D02*
X10415866Y-16602156D01*
X10415866Y-16602156D02*
X10425390Y-16592633D01*
X10425390Y-16592633D02*
X10444438Y-16583109D01*
X10634914Y-16583109D02*
X10653961Y-16583109D01*
X10653961Y-16583109D02*
X10673009Y-16592633D01*
X10673009Y-16592633D02*
X10682533Y-16602156D01*
X10682533Y-16602156D02*
X10692057Y-16621204D01*
X10692057Y-16621204D02*
X10701580Y-16659299D01*
X10701580Y-16659299D02*
X10701580Y-16706918D01*
X10701580Y-16706918D02*
X10692057Y-16745013D01*
X10692057Y-16745013D02*
X10682533Y-16764061D01*
X10682533Y-16764061D02*
X10673009Y-16773585D01*
X10673009Y-16773585D02*
X10653961Y-16783109D01*
X10653961Y-16783109D02*
X10634914Y-16783109D01*
X10634914Y-16783109D02*
X10615866Y-16773585D01*
X10615866Y-16773585D02*
X10606342Y-16764061D01*
X10606342Y-16764061D02*
X10596819Y-16745013D01*
X10596819Y-16745013D02*
X10587295Y-16706918D01*
X10587295Y-16706918D02*
X10587295Y-16659299D01*
X10587295Y-16659299D02*
X10596819Y-16621204D01*
X10596819Y-16621204D02*
X10606342Y-16602156D01*
X10606342Y-16602156D02*
X10615866Y-16592633D01*
X10615866Y-16592633D02*
X10634914Y-16583109D01*
X10787295Y-16783109D02*
X10787295Y-16649775D01*
X10787295Y-16668823D02*
X10796819Y-16659299D01*
X10796819Y-16659299D02*
X10815866Y-16649775D01*
X10815866Y-16649775D02*
X10844438Y-16649775D01*
X10844438Y-16649775D02*
X10863485Y-16659299D01*
X10863485Y-16659299D02*
X10873009Y-16678347D01*
X10873009Y-16678347D02*
X10873009Y-16783109D01*
X10873009Y-16678347D02*
X10882533Y-16659299D01*
X10882533Y-16659299D02*
X10901580Y-16649775D01*
X10901580Y-16649775D02*
X10930152Y-16649775D01*
X10930152Y-16649775D02*
X10949200Y-16659299D01*
X10949200Y-16659299D02*
X10958723Y-16678347D01*
X10958723Y-16678347D02*
X10958723Y-16783109D01*
X11053961Y-16783109D02*
X11053961Y-16649775D01*
X11053961Y-16668823D02*
X11063485Y-16659299D01*
X11063485Y-16659299D02*
X11082533Y-16649775D01*
X11082533Y-16649775D02*
X11111104Y-16649775D01*
X11111104Y-16649775D02*
X11130152Y-16659299D01*
X11130152Y-16659299D02*
X11139676Y-16678347D01*
X11139676Y-16678347D02*
X11139676Y-16783109D01*
X11139676Y-16678347D02*
X11149200Y-16659299D01*
X11149200Y-16659299D02*
X11168247Y-16649775D01*
X11168247Y-16649775D02*
X11196818Y-16649775D01*
X11196818Y-16649775D02*
X11215866Y-16659299D01*
X11215866Y-16659299D02*
X11225390Y-16678347D01*
X11225390Y-16678347D02*
X11225390Y-16783109D01*
X11615866Y-16573585D02*
X11444438Y-16830728D01*
X11873009Y-16583109D02*
X11892057Y-16583109D01*
X11892057Y-16583109D02*
X11911104Y-16592633D01*
X11911104Y-16592633D02*
X11920628Y-16602156D01*
X11920628Y-16602156D02*
X11930152Y-16621204D01*
X11930152Y-16621204D02*
X11939676Y-16659299D01*
X11939676Y-16659299D02*
X11939676Y-16706918D01*
X11939676Y-16706918D02*
X11930152Y-16745013D01*
X11930152Y-16745013D02*
X11920628Y-16764061D01*
X11920628Y-16764061D02*
X11911104Y-16773585D01*
X11911104Y-16773585D02*
X11892057Y-16783109D01*
X11892057Y-16783109D02*
X11873009Y-16783109D01*
X11873009Y-16783109D02*
X11853961Y-16773585D01*
X11853961Y-16773585D02*
X11844438Y-16764061D01*
X11844438Y-16764061D02*
X11834914Y-16745013D01*
X11834914Y-16745013D02*
X11825390Y-16706918D01*
X11825390Y-16706918D02*
X11825390Y-16659299D01*
X11825390Y-16659299D02*
X11834914Y-16621204D01*
X11834914Y-16621204D02*
X11844438Y-16602156D01*
X11844438Y-16602156D02*
X11853961Y-16592633D01*
X11853961Y-16592633D02*
X11873009Y-16583109D01*
X12025390Y-16764061D02*
X12034914Y-16773585D01*
X12034914Y-16773585D02*
X12025390Y-16783109D01*
X12025390Y-16783109D02*
X12015866Y-16773585D01*
X12015866Y-16773585D02*
X12025390Y-16764061D01*
X12025390Y-16764061D02*
X12025390Y-16783109D01*
X12158723Y-16583109D02*
X12177771Y-16583109D01*
X12177771Y-16583109D02*
X12196819Y-16592633D01*
X12196819Y-16592633D02*
X12206342Y-16602156D01*
X12206342Y-16602156D02*
X12215866Y-16621204D01*
X12215866Y-16621204D02*
X12225390Y-16659299D01*
X12225390Y-16659299D02*
X12225390Y-16706918D01*
X12225390Y-16706918D02*
X12215866Y-16745013D01*
X12215866Y-16745013D02*
X12206342Y-16764061D01*
X12206342Y-16764061D02*
X12196819Y-16773585D01*
X12196819Y-16773585D02*
X12177771Y-16783109D01*
X12177771Y-16783109D02*
X12158723Y-16783109D01*
X12158723Y-16783109D02*
X12139676Y-16773585D01*
X12139676Y-16773585D02*
X12130152Y-16764061D01*
X12130152Y-16764061D02*
X12120628Y-16745013D01*
X12120628Y-16745013D02*
X12111104Y-16706918D01*
X12111104Y-16706918D02*
X12111104Y-16659299D01*
X12111104Y-16659299D02*
X12120628Y-16621204D01*
X12120628Y-16621204D02*
X12130152Y-16602156D01*
X12130152Y-16602156D02*
X12139676Y-16592633D01*
X12139676Y-16592633D02*
X12158723Y-16583109D01*
X12406342Y-16583109D02*
X12311104Y-16583109D01*
X12311104Y-16583109D02*
X12301581Y-16678347D01*
X12301581Y-16678347D02*
X12311104Y-16668823D01*
X12311104Y-16668823D02*
X12330152Y-16659299D01*
X12330152Y-16659299D02*
X12377771Y-16659299D01*
X12377771Y-16659299D02*
X12396819Y-16668823D01*
X12396819Y-16668823D02*
X12406342Y-16678347D01*
X12406342Y-16678347D02*
X12415866Y-16697394D01*
X12415866Y-16697394D02*
X12415866Y-16745013D01*
X12415866Y-16745013D02*
X12406342Y-16764061D01*
X12406342Y-16764061D02*
X12396819Y-16773585D01*
X12396819Y-16773585D02*
X12377771Y-16783109D01*
X12377771Y-16783109D02*
X12330152Y-16783109D01*
X12330152Y-16783109D02*
X12311104Y-16773585D01*
X12311104Y-16773585D02*
X12301581Y-16764061D01*
X12511104Y-16783109D02*
X12549200Y-16783109D01*
X12549200Y-16783109D02*
X12568247Y-16773585D01*
X12568247Y-16773585D02*
X12577771Y-16764061D01*
X12577771Y-16764061D02*
X12596819Y-16735490D01*
X12596819Y-16735490D02*
X12606342Y-16697394D01*
X12606342Y-16697394D02*
X12606342Y-16621204D01*
X12606342Y-16621204D02*
X12596819Y-16602156D01*
X12596819Y-16602156D02*
X12587295Y-16592633D01*
X12587295Y-16592633D02*
X12568247Y-16583109D01*
X12568247Y-16583109D02*
X12530152Y-16583109D01*
X12530152Y-16583109D02*
X12511104Y-16592633D01*
X12511104Y-16592633D02*
X12501581Y-16602156D01*
X12501581Y-16602156D02*
X12492057Y-16621204D01*
X12492057Y-16621204D02*
X12492057Y-16668823D01*
X12492057Y-16668823D02*
X12501581Y-16687871D01*
X12501581Y-16687871D02*
X12511104Y-16697394D01*
X12511104Y-16697394D02*
X12530152Y-16706918D01*
X12530152Y-16706918D02*
X12568247Y-16706918D01*
X12568247Y-16706918D02*
X12587295Y-16697394D01*
X12587295Y-16697394D02*
X12596819Y-16687871D01*
X12596819Y-16687871D02*
X12606342Y-16668823D01*
X12796819Y-16783109D02*
X12682533Y-16783109D01*
X12739676Y-16783109D02*
X12739676Y-16583109D01*
X12739676Y-16583109D02*
X12720628Y-16611680D01*
X12720628Y-16611680D02*
X12701581Y-16630728D01*
X12701581Y-16630728D02*
X12682533Y-16640252D01*
X12873009Y-16583109D02*
X12873009Y-16621204D01*
X12949200Y-16583109D02*
X12949200Y-16621204D01*
X13244438Y-16859299D02*
X13234914Y-16849775D01*
X13234914Y-16849775D02*
X13215866Y-16821204D01*
X13215866Y-16821204D02*
X13206343Y-16802156D01*
X13206343Y-16802156D02*
X13196819Y-16773585D01*
X13196819Y-16773585D02*
X13187295Y-16725966D01*
X13187295Y-16725966D02*
X13187295Y-16687871D01*
X13187295Y-16687871D02*
X13196819Y-16640252D01*
X13196819Y-16640252D02*
X13206343Y-16611680D01*
X13206343Y-16611680D02*
X13215866Y-16592633D01*
X13215866Y-16592633D02*
X13234914Y-16564061D01*
X13234914Y-16564061D02*
X13244438Y-16554537D01*
X13311104Y-16602156D02*
X13320628Y-16592633D01*
X13320628Y-16592633D02*
X13339676Y-16583109D01*
X13339676Y-16583109D02*
X13387295Y-16583109D01*
X13387295Y-16583109D02*
X13406343Y-16592633D01*
X13406343Y-16592633D02*
X13415866Y-16602156D01*
X13415866Y-16602156D02*
X13425390Y-16621204D01*
X13425390Y-16621204D02*
X13425390Y-16640252D01*
X13425390Y-16640252D02*
X13415866Y-16668823D01*
X13415866Y-16668823D02*
X13301581Y-16783109D01*
X13301581Y-16783109D02*
X13425390Y-16783109D01*
X13501581Y-16602156D02*
X13511104Y-16592633D01*
X13511104Y-16592633D02*
X13530152Y-16583109D01*
X13530152Y-16583109D02*
X13577771Y-16583109D01*
X13577771Y-16583109D02*
X13596819Y-16592633D01*
X13596819Y-16592633D02*
X13606343Y-16602156D01*
X13606343Y-16602156D02*
X13615866Y-16621204D01*
X13615866Y-16621204D02*
X13615866Y-16640252D01*
X13615866Y-16640252D02*
X13606343Y-16668823D01*
X13606343Y-16668823D02*
X13492057Y-16783109D01*
X13492057Y-16783109D02*
X13615866Y-16783109D01*
X13853962Y-16783109D02*
X13853962Y-16583109D01*
X13939676Y-16783109D02*
X13939676Y-16678347D01*
X13939676Y-16678347D02*
X13930152Y-16659299D01*
X13930152Y-16659299D02*
X13911105Y-16649775D01*
X13911105Y-16649775D02*
X13882533Y-16649775D01*
X13882533Y-16649775D02*
X13863485Y-16659299D01*
X13863485Y-16659299D02*
X13853962Y-16668823D01*
X14063485Y-16783109D02*
X14044438Y-16773585D01*
X14044438Y-16773585D02*
X14034914Y-16764061D01*
X14034914Y-16764061D02*
X14025390Y-16745013D01*
X14025390Y-16745013D02*
X14025390Y-16687871D01*
X14025390Y-16687871D02*
X14034914Y-16668823D01*
X14034914Y-16668823D02*
X14044438Y-16659299D01*
X14044438Y-16659299D02*
X14063485Y-16649775D01*
X14063485Y-16649775D02*
X14092057Y-16649775D01*
X14092057Y-16649775D02*
X14111105Y-16659299D01*
X14111105Y-16659299D02*
X14120628Y-16668823D01*
X14120628Y-16668823D02*
X14130152Y-16687871D01*
X14130152Y-16687871D02*
X14130152Y-16745013D01*
X14130152Y-16745013D02*
X14120628Y-16764061D01*
X14120628Y-16764061D02*
X14111105Y-16773585D01*
X14111105Y-16773585D02*
X14092057Y-16783109D01*
X14092057Y-16783109D02*
X14063485Y-16783109D01*
X14244438Y-16783109D02*
X14225390Y-16773585D01*
X14225390Y-16773585D02*
X14215866Y-16754537D01*
X14215866Y-16754537D02*
X14215866Y-16583109D01*
X14396819Y-16773585D02*
X14377771Y-16783109D01*
X14377771Y-16783109D02*
X14339676Y-16783109D01*
X14339676Y-16783109D02*
X14320628Y-16773585D01*
X14320628Y-16773585D02*
X14311105Y-16754537D01*
X14311105Y-16754537D02*
X14311105Y-16678347D01*
X14311105Y-16678347D02*
X14320628Y-16659299D01*
X14320628Y-16659299D02*
X14339676Y-16649775D01*
X14339676Y-16649775D02*
X14377771Y-16649775D01*
X14377771Y-16649775D02*
X14396819Y-16659299D01*
X14396819Y-16659299D02*
X14406343Y-16678347D01*
X14406343Y-16678347D02*
X14406343Y-16697394D01*
X14406343Y-16697394D02*
X14311105Y-16716442D01*
X14482533Y-16773585D02*
X14501581Y-16783109D01*
X14501581Y-16783109D02*
X14539676Y-16783109D01*
X14539676Y-16783109D02*
X14558724Y-16773585D01*
X14558724Y-16773585D02*
X14568247Y-16754537D01*
X14568247Y-16754537D02*
X14568247Y-16745013D01*
X14568247Y-16745013D02*
X14558724Y-16725966D01*
X14558724Y-16725966D02*
X14539676Y-16716442D01*
X14539676Y-16716442D02*
X14511105Y-16716442D01*
X14511105Y-16716442D02*
X14492057Y-16706918D01*
X14492057Y-16706918D02*
X14482533Y-16687871D01*
X14482533Y-16687871D02*
X14482533Y-16678347D01*
X14482533Y-16678347D02*
X14492057Y-16659299D01*
X14492057Y-16659299D02*
X14511105Y-16649775D01*
X14511105Y-16649775D02*
X14539676Y-16649775D01*
X14539676Y-16649775D02*
X14558724Y-16659299D01*
X14806343Y-16706918D02*
X14958724Y-16706918D01*
X14882533Y-16783109D02*
X14882533Y-16630728D01*
X15196819Y-16602156D02*
X15206343Y-16592633D01*
X15206343Y-16592633D02*
X15225390Y-16583109D01*
X15225390Y-16583109D02*
X15273009Y-16583109D01*
X15273009Y-16583109D02*
X15292057Y-16592633D01*
X15292057Y-16592633D02*
X15301581Y-16602156D01*
X15301581Y-16602156D02*
X15311105Y-16621204D01*
X15311105Y-16621204D02*
X15311105Y-16640252D01*
X15311105Y-16640252D02*
X15301581Y-16668823D01*
X15301581Y-16668823D02*
X15187295Y-16783109D01*
X15187295Y-16783109D02*
X15311105Y-16783109D01*
X15539676Y-16773585D02*
X15558724Y-16783109D01*
X15558724Y-16783109D02*
X15596819Y-16783109D01*
X15596819Y-16783109D02*
X15615867Y-16773585D01*
X15615867Y-16773585D02*
X15625390Y-16754537D01*
X15625390Y-16754537D02*
X15625390Y-16745013D01*
X15625390Y-16745013D02*
X15615867Y-16725966D01*
X15615867Y-16725966D02*
X15596819Y-16716442D01*
X15596819Y-16716442D02*
X15568248Y-16716442D01*
X15568248Y-16716442D02*
X15549200Y-16706918D01*
X15549200Y-16706918D02*
X15539676Y-16687871D01*
X15539676Y-16687871D02*
X15539676Y-16678347D01*
X15539676Y-16678347D02*
X15549200Y-16659299D01*
X15549200Y-16659299D02*
X15568248Y-16649775D01*
X15568248Y-16649775D02*
X15596819Y-16649775D01*
X15596819Y-16649775D02*
X15615867Y-16659299D01*
X15739676Y-16783109D02*
X15720629Y-16773585D01*
X15720629Y-16773585D02*
X15711105Y-16754537D01*
X15711105Y-16754537D02*
X15711105Y-16583109D01*
X15844438Y-16783109D02*
X15825390Y-16773585D01*
X15825390Y-16773585D02*
X15815867Y-16764061D01*
X15815867Y-16764061D02*
X15806343Y-16745013D01*
X15806343Y-16745013D02*
X15806343Y-16687871D01*
X15806343Y-16687871D02*
X15815867Y-16668823D01*
X15815867Y-16668823D02*
X15825390Y-16659299D01*
X15825390Y-16659299D02*
X15844438Y-16649775D01*
X15844438Y-16649775D02*
X15873010Y-16649775D01*
X15873010Y-16649775D02*
X15892057Y-16659299D01*
X15892057Y-16659299D02*
X15901581Y-16668823D01*
X15901581Y-16668823D02*
X15911105Y-16687871D01*
X15911105Y-16687871D02*
X15911105Y-16745013D01*
X15911105Y-16745013D02*
X15901581Y-16764061D01*
X15901581Y-16764061D02*
X15892057Y-16773585D01*
X15892057Y-16773585D02*
X15873010Y-16783109D01*
X15873010Y-16783109D02*
X15844438Y-16783109D01*
X15968248Y-16649775D02*
X16044438Y-16649775D01*
X15996819Y-16583109D02*
X15996819Y-16754537D01*
X15996819Y-16754537D02*
X16006343Y-16773585D01*
X16006343Y-16773585D02*
X16025390Y-16783109D01*
X16025390Y-16783109D02*
X16044438Y-16783109D01*
X16101581Y-16773585D02*
X16120629Y-16783109D01*
X16120629Y-16783109D02*
X16158724Y-16783109D01*
X16158724Y-16783109D02*
X16177771Y-16773585D01*
X16177771Y-16773585D02*
X16187295Y-16754537D01*
X16187295Y-16754537D02*
X16187295Y-16745013D01*
X16187295Y-16745013D02*
X16177771Y-16725966D01*
X16177771Y-16725966D02*
X16158724Y-16716442D01*
X16158724Y-16716442D02*
X16130152Y-16716442D01*
X16130152Y-16716442D02*
X16111105Y-16706918D01*
X16111105Y-16706918D02*
X16101581Y-16687871D01*
X16101581Y-16687871D02*
X16101581Y-16678347D01*
X16101581Y-16678347D02*
X16111105Y-16659299D01*
X16111105Y-16659299D02*
X16130152Y-16649775D01*
X16130152Y-16649775D02*
X16158724Y-16649775D01*
X16158724Y-16649775D02*
X16177771Y-16659299D01*
X16253962Y-16859299D02*
X16263486Y-16849775D01*
X16263486Y-16849775D02*
X16282533Y-16821204D01*
X16282533Y-16821204D02*
X16292057Y-16802156D01*
X16292057Y-16802156D02*
X16301581Y-16773585D01*
X16301581Y-16773585D02*
X16311105Y-16725966D01*
X16311105Y-16725966D02*
X16311105Y-16687871D01*
X16311105Y-16687871D02*
X16301581Y-16640252D01*
X16301581Y-16640252D02*
X16292057Y-16611680D01*
X16292057Y-16611680D02*
X16282533Y-16592633D01*
X16282533Y-16592633D02*
X16263486Y-16564061D01*
X16263486Y-16564061D02*
X16253962Y-16554537D01*
M02*
