%TF.GenerationSoftware,KiCad,Pcbnew,9.0.2*%
%TF.CreationDate,2025-06-30T11:38:54+08:00*%
%TF.ProjectId,flamepad,666c616d-6570-4616-942e-6b696361645f,rev?*%
%TF.SameCoordinates,Original*%
%TF.FileFunction,Copper,L2,Bot*%
%TF.FilePolarity,Positive*%
%FSLAX46Y46*%
G04 Gerber Fmt 4.6, Leading zero omitted, Abs format (unit mm)*
G04 Created by KiCad (PCBNEW 9.0.2) date 2025-06-30 11:38:54*
%MOMM*%
%LPD*%
G01*
G04 APERTURE LIST*
G04 Aperture macros list*
%AMRoundRect*
0 Rectangle with rounded corners*
0 $1 Rounding radius*
0 $2 $3 $4 $5 $6 $7 $8 $9 X,Y pos of 4 corners*
0 Add a 4 corners polygon primitive as box body*
4,1,4,$2,$3,$4,$5,$6,$7,$8,$9,$2,$3,0*
0 Add four circle primitives for the rounded corners*
1,1,$1+$1,$2,$3*
1,1,$1+$1,$4,$5*
1,1,$1+$1,$6,$7*
1,1,$1+$1,$8,$9*
0 Add four rect primitives between the rounded corners*
20,1,$1+$1,$2,$3,$4,$5,0*
20,1,$1+$1,$4,$5,$6,$7,0*
20,1,$1+$1,$6,$7,$8,$9,0*
20,1,$1+$1,$8,$9,$2,$3,0*%
G04 Aperture macros list end*
%TA.AperFunction,ComponentPad*%
%ADD10R,2.000000X2.000000*%
%TD*%
%TA.AperFunction,ComponentPad*%
%ADD11C,2.000000*%
%TD*%
%TA.AperFunction,ComponentPad*%
%ADD12R,3.200000X2.000000*%
%TD*%
%TA.AperFunction,ComponentPad*%
%ADD13C,2.200000*%
%TD*%
%TA.AperFunction,ComponentPad*%
%ADD14R,1.700000X1.700000*%
%TD*%
%TA.AperFunction,ComponentPad*%
%ADD15O,1.700000X1.700000*%
%TD*%
%TA.AperFunction,ComponentPad*%
%ADD16C,1.524000*%
%TD*%
%TA.AperFunction,ComponentPad*%
%ADD17RoundRect,0.250000X0.550000X-0.550000X0.550000X0.550000X-0.550000X0.550000X-0.550000X-0.550000X0*%
%TD*%
%TA.AperFunction,ComponentPad*%
%ADD18C,1.600000*%
%TD*%
%TA.AperFunction,ViaPad*%
%ADD19C,0.600000*%
%TD*%
%TA.AperFunction,Conductor*%
%ADD20C,0.200000*%
%TD*%
G04 APERTURE END LIST*
D10*
%TO.P,SW1,A,A*%
%TO.N,SW1 A*%
X109050000Y-79000000D03*
D11*
%TO.P,SW1,B,B*%
%TO.N,SW1 B*%
X109050000Y-84000000D03*
%TO.P,SW1,C,C*%
%TO.N,GND*%
X109050000Y-81500000D03*
D12*
%TO.P,SW1,MP*%
%TO.N,N/C*%
X116550000Y-75900000D03*
X116550000Y-87100000D03*
D11*
%TO.P,SW1,S1,S1*%
%TO.N,Net-(D1-A)*%
X123550000Y-84000000D03*
%TO.P,SW1,S2,S2*%
%TO.N,Col 0*%
X123550000Y-79000000D03*
%TD*%
D13*
%TO.P,SW10,1,1*%
%TO.N,Col 0*%
X118840000Y-133570000D03*
%TO.P,SW10,2,2*%
%TO.N,Net-(D10-A)*%
X112490000Y-136110000D03*
%TD*%
%TO.P,SW12,1,1*%
%TO.N,Col 2*%
X156940000Y-133570000D03*
%TO.P,SW12,2,2*%
%TO.N,Net-(D12-A)*%
X150590000Y-136110000D03*
%TD*%
D14*
%TO.P,J1,1,Pin_1*%
%TO.N,GND*%
X162500000Y-58620000D03*
D15*
%TO.P,J1,2,Pin_2*%
%TO.N,+3.3V*%
X162500000Y-61160000D03*
%TO.P,J1,3,Pin_3*%
%TO.N,SCL*%
X162500000Y-63700000D03*
%TO.P,J1,4,Pin_4*%
%TO.N,SDA*%
X162500000Y-66240000D03*
%TD*%
D13*
%TO.P,SW5,1,1*%
%TO.N,Col 1*%
X137890000Y-95470000D03*
%TO.P,SW5,2,2*%
%TO.N,Net-(D5-A)*%
X131540000Y-98010000D03*
%TD*%
%TO.P,SW3,1,1*%
%TO.N,Col 2*%
X156940000Y-76420000D03*
%TO.P,SW3,2,2*%
%TO.N,Net-(D3-A)*%
X150590000Y-78960000D03*
%TD*%
%TO.P,SW7,1,1*%
%TO.N,Col 0*%
X118840000Y-114520000D03*
%TO.P,SW7,2,2*%
%TO.N,Net-(D7-A)*%
X112490000Y-117060000D03*
%TD*%
%TO.P,SW11,1,1*%
%TO.N,Col 1*%
X137890000Y-133570000D03*
%TO.P,SW11,2,2*%
%TO.N,Net-(D11-A)*%
X131540000Y-136110000D03*
%TD*%
%TO.P,SW2,1,1*%
%TO.N,Col 1*%
X137890000Y-76420000D03*
%TO.P,SW2,2,2*%
%TO.N,Net-(D2-A)*%
X131540000Y-78960000D03*
%TD*%
%TO.P,SW9,1,1*%
%TO.N,Col 2*%
X156940000Y-114520000D03*
%TO.P,SW9,2,2*%
%TO.N,Net-(D9-A)*%
X150590000Y-117060000D03*
%TD*%
%TO.P,SW4,1,1*%
%TO.N,Col 0*%
X118840000Y-95470000D03*
%TO.P,SW4,2,2*%
%TO.N,Net-(D4-A)*%
X112490000Y-98010000D03*
%TD*%
D16*
%TO.P,U1,1,GPIO26/ADC0/A0*%
%TO.N,Col 0*%
X108380000Y-55980000D03*
%TO.P,U1,2,GPIO27/ADC1/A1*%
%TO.N,Col 1*%
X108380000Y-58520000D03*
%TO.P,U1,3,GPIO28/ADC2/A2*%
%TO.N,Col 2*%
X108380000Y-61060000D03*
%TO.P,U1,4,GPIO29/ADC3/A3*%
%TO.N,Row 3*%
X108380000Y-63600000D03*
%TO.P,U1,5,GPIO6/SDA*%
%TO.N,SDA*%
X108380000Y-66140000D03*
%TO.P,U1,6,GPIO7/SCL*%
%TO.N,SCL*%
X108380000Y-68680000D03*
%TO.P,U1,7,GPIO0/TX*%
%TO.N,SW1 B*%
X108380000Y-71220000D03*
%TO.P,U1,8,GPIO1/RX*%
%TO.N,Row 2*%
X123620000Y-71220000D03*
%TO.P,U1,9,GPIO2/SCK*%
%TO.N,Row 1*%
X123620000Y-68680000D03*
%TO.P,U1,10,GPIO4/MISO*%
%TO.N,Col 0*%
X123620000Y-66140000D03*
%TO.P,U1,11,GPIO3/MOSI*%
%TO.N,SW1 A*%
X123620000Y-63600000D03*
%TO.P,U1,12,3V3*%
%TO.N,+3.3V*%
X123620000Y-61060000D03*
%TO.P,U1,13,GND*%
%TO.N,GND*%
X123620000Y-58520000D03*
%TO.P,U1,14,VBUS*%
%TO.N,+5V*%
X123620000Y-55980000D03*
%TD*%
D13*
%TO.P,SW6,1,1*%
%TO.N,Col 2*%
X156940000Y-95470000D03*
%TO.P,SW6,2,2*%
%TO.N,Net-(D6-A)*%
X150590000Y-98010000D03*
%TD*%
%TO.P,SW8,1,1*%
%TO.N,Col 1*%
X137890000Y-114520000D03*
%TO.P,SW8,2,2*%
%TO.N,Net-(D8-A)*%
X131540000Y-117060000D03*
%TD*%
D17*
%TO.P,D1,1,K*%
%TO.N,Col 0*%
X168687500Y-85310000D03*
D18*
%TO.P,D1,2,A*%
%TO.N,Net-(D1-A)*%
X168687500Y-77690000D03*
%TD*%
D17*
%TO.P,D6,1,K*%
%TO.N,Row 1*%
X163925000Y-104360000D03*
D18*
%TO.P,D6,2,A*%
%TO.N,Net-(D6-A)*%
X163925000Y-96740000D03*
%TD*%
D17*
%TO.P,D11,1,K*%
%TO.N,Row 3*%
X144875000Y-142460000D03*
D18*
%TO.P,D11,2,A*%
%TO.N,Net-(D11-A)*%
X144875000Y-134840000D03*
%TD*%
D17*
%TO.P,D4,1,K*%
%TO.N,Row 1*%
X125825000Y-104360000D03*
D18*
%TO.P,D4,2,A*%
%TO.N,Net-(D4-A)*%
X125825000Y-96740000D03*
%TD*%
D17*
%TO.P,D12,1,K*%
%TO.N,Row 3*%
X163925000Y-142460000D03*
D18*
%TO.P,D12,2,A*%
%TO.N,Net-(D12-A)*%
X163925000Y-134840000D03*
%TD*%
D17*
%TO.P,D5,1,K*%
%TO.N,Row 1*%
X144875000Y-104360000D03*
D18*
%TO.P,D5,2,A*%
%TO.N,Net-(D5-A)*%
X144875000Y-96740000D03*
%TD*%
D17*
%TO.P,D3,1,K*%
%TO.N,Col 0*%
X163925000Y-85310000D03*
D18*
%TO.P,D3,2,A*%
%TO.N,Net-(D3-A)*%
X163925000Y-77690000D03*
%TD*%
D17*
%TO.P,D2,1,K*%
%TO.N,Col 0*%
X144875000Y-85310000D03*
D18*
%TO.P,D2,2,A*%
%TO.N,Net-(D2-A)*%
X144875000Y-77690000D03*
%TD*%
D17*
%TO.P,D10,1,K*%
%TO.N,Row 3*%
X125825000Y-142547500D03*
D18*
%TO.P,D10,2,A*%
%TO.N,Net-(D10-A)*%
X125825000Y-134927500D03*
%TD*%
D17*
%TO.P,D9,1,K*%
%TO.N,Row 2*%
X163925000Y-123447500D03*
D18*
%TO.P,D9,2,A*%
%TO.N,Net-(D9-A)*%
X163925000Y-115827500D03*
%TD*%
D17*
%TO.P,D7,1,K*%
%TO.N,Row 2*%
X125825000Y-123410000D03*
D18*
%TO.P,D7,2,A*%
%TO.N,Net-(D7-A)*%
X125825000Y-115790000D03*
%TD*%
D17*
%TO.P,D8,1,K*%
%TO.N,Row 2*%
X144875000Y-123410000D03*
D18*
%TO.P,D8,2,A*%
%TO.N,Net-(D8-A)*%
X144875000Y-115790000D03*
%TD*%
D19*
%TO.N,GND*%
X115400000Y-69600000D03*
%TO.N,Row 1*%
X124600000Y-77000000D03*
%TO.N,Row 2*%
X125356317Y-76401713D03*
%TO.N,Col 0*%
X138800000Y-78360000D03*
%TO.N,SCL*%
X117800000Y-68800000D03*
%TO.N,SDA*%
X116100000Y-67100000D03*
%TO.N,Col 2*%
X113880000Y-62800000D03*
%TD*%
D20*
%TO.N,+3.3V*%
X123620000Y-61060000D02*
X162400000Y-61060000D01*
X162400000Y-61060000D02*
X162500000Y-61160000D01*
X123620000Y-61060000D02*
X124160000Y-61600000D01*
X161600000Y-61060000D02*
X162500000Y-61960000D01*
%TO.N,GND*%
X110351000Y-74649000D02*
X110351000Y-80199000D01*
X110351000Y-80199000D02*
X109050000Y-81500000D01*
X162400000Y-58520000D02*
X162500000Y-58620000D01*
X123620000Y-58520000D02*
X162400000Y-58520000D01*
X123805000Y-58705000D02*
X123620000Y-58520000D01*
X115400000Y-69600000D02*
X110351000Y-74649000D01*
%TO.N,Row 1*%
X124851000Y-77251000D02*
X124851000Y-96156950D01*
X124724000Y-103259000D02*
X125825000Y-104360000D01*
X124724000Y-96283950D02*
X124724000Y-103259000D01*
X124851000Y-96156950D02*
X124724000Y-96283950D01*
X124600000Y-77000000D02*
X124851000Y-77251000D01*
%TO.N,Row 2*%
X126926000Y-122309000D02*
X125825000Y-123410000D01*
X126926000Y-77971396D02*
X126926000Y-122309000D01*
X125356317Y-76401713D02*
X126926000Y-77971396D01*
%TO.N,Col 0*%
X118840000Y-95470000D02*
X118840000Y-133570000D01*
X144875000Y-85310000D02*
X144875000Y-84235000D01*
X144875000Y-84235000D02*
X139000000Y-78360000D01*
X118840000Y-83710000D02*
X118840000Y-95470000D01*
X139000000Y-78360000D02*
X138800000Y-78360000D01*
X123550000Y-79000000D02*
X118840000Y-83710000D01*
%TO.N,SCL*%
X108380000Y-68680000D02*
X117680000Y-68680000D01*
X117680000Y-68680000D02*
X117800000Y-68800000D01*
%TO.N,SDA*%
X108380000Y-66140000D02*
X115140000Y-66140000D01*
X115140000Y-66140000D02*
X116100000Y-67100000D01*
%TO.N,Col 2*%
X147723000Y-67203000D02*
X156940000Y-76420000D01*
X113880000Y-62800000D02*
X118283000Y-67203000D01*
X147703000Y-67203000D02*
X147700000Y-67200000D01*
X147697000Y-67203000D02*
X118283000Y-67203000D01*
X147700000Y-67200000D02*
X147697000Y-67203000D01*
X147723000Y-67203000D02*
X147703000Y-67203000D01*
X156940000Y-76420000D02*
X156940000Y-133570000D01*
%TO.N,SW1 B*%
X107618001Y-82568001D02*
X109050000Y-84000000D01*
X108380000Y-71220000D02*
X107618001Y-71981999D01*
X107618001Y-71981999D02*
X107618001Y-82568001D01*
%TO.N,Col 1*%
X126280000Y-76420000D02*
X108380000Y-58520000D01*
X137890000Y-95470000D02*
X137890000Y-133570000D01*
X137890000Y-76420000D02*
X137890000Y-95470000D01*
X137890000Y-76420000D02*
X126280000Y-76420000D01*
%TD*%
M02*
