M48
; DRILL file {KiCad 9.0.2} date 2025-06-30T15:09:24+0800
; FORMAT={-:-/ absolute / metric / decimal}
; #@! TF.CreationDate,2025-06-30T15:09:24+08:00
; #@! TF.GenerationSoftware,Kicad,Pcbnew,9.0.2
; #@! TF.FileFunction,NonPlated,1,2,NPTH
FMAT,2
METRIC
; #@! TA.AperFunction,NonPlated,NPTH,ComponentDrill
T1C1.700
; #@! TA.AperFunction,NonPlated,NPTH,ComponentDrill
T2C4.000
%
G90
G05
T1
X111.22Y-100.55
X111.22Y-119.6
X111.22Y-138.65
X121.38Y-100.55
X121.38Y-119.6
X121.38Y-138.65
X130.27Y-81.5
X130.27Y-100.55
X130.27Y-119.6
X130.27Y-138.65
X140.43Y-81.5
X140.43Y-100.55
X140.43Y-119.6
X140.43Y-138.65
X149.32Y-81.5
X149.32Y-100.55
X149.32Y-119.6
X149.32Y-138.65
X159.48Y-81.5
X159.48Y-100.55
X159.48Y-119.6
X159.48Y-138.65
T2
X116.3Y-100.55
X116.3Y-119.6
X116.3Y-138.65
X135.35Y-81.5
X135.35Y-100.55
X135.35Y-119.6
X135.35Y-138.65
X154.4Y-81.5
X154.4Y-100.55
X154.4Y-119.6
X154.4Y-138.65
M30
